{
.appVersion = "3228";
.formatVersion = 3;
DisplayStrings = (
"Ꝁ",
"BꞴꞳ",
"ꞴꞳ",
"Ꭓ",
"Ɛ",
"đ",
"Ɑaɑa",
"ʘ",
"ɯ"
);
axes = (
{
name = Weight;
tag = wght;
}
);
customParameters = (
{
name = blueScale;
value = 0.04;
},
{
name = blueShift;
value = 7;
},
{
name = blueFuzz;
value = 1;
},
{
name = TTFBlueFuzz;
value = 1;
},
{
name = fsType;
value = (
);
},
{
name = "Use Typo Metrics";
value = 1;
}
);
date = "2023-09-29 07:07:32 +0000";
familyName = Festac;
featurePrefixes = (
{
automatic = 1;
code = "languagesystem DFLT dflt;

languagesystem latn dflt;
languagesystem latn AZE;
languagesystem latn CRT;
languagesystem latn KAZ;
languagesystem latn TAT;
languagesystem latn TRK;
languagesystem latn ROM;
languagesystem latn MOL;
languagesystem latn CAT;
languagesystem latn NLD;
";
name = Languagesystems;
}
);
features = (
{
automatic = 1;
code = "feature locl;
feature subs;
feature sinf;
feature sups;
feature numr;
feature dnom;
feature frac;
feature ordn;
feature lnum;
feature pnum;
feature tnum;
feature onum;
feature case;
feature zero;
feature ss01;
feature ss02;
feature ss03;
feature ss10;
";
tag = aalt;
},
{
automatic = 1;
code = "lookup ccmp_DFLT_1 {
	lookupflag 0;
	sub acutecomb macroncomb by acutecomb_macroncomb;
	sub brevecomb acutecomb by brevecomb_acutecomb;
	sub brevecomb gravecomb by brevecomb_gravecomb;
	sub brevecomb hookabovecomb by brevecomb_hookabovecomb;
	sub brevecomb tildecomb by brevecomb_tildecomb;
	sub circumflexcomb acutecomb by circumflexcomb_acutecomb;
	sub circumflexcomb gravecomb by circumflexcomb_gravecomb;
	sub circumflexcomb hookabovecomb by circumflexcomb_hookabovecomb;
	sub circumflexcomb tildecomb by circumflexcomb_tildecomb;
	sub gravecomb macroncomb by gravecomb_macroncomb;
	sub macroncomb acutecomb by macroncomb_acutecomb;
	sub macroncomb gravecomb by macroncomb_gravecomb;
} ccmp_DFLT_1;

lookup ccmp_Other_1 {

glyphs = (
{
color = 11;
glyphname = A;
lastChange = "2023-12-12 21:58:21 +0000";
layers = (
{
anchors = (
{
name = bottom;
pos = (256,0);
},
{
name = center;
pos = (262,277);
},
{
name = oconnect;
pos = (180,0);
},
{
name = ogonek;
pos = (471,10);
},
{
name = top;
pos = (256,554);
}
);
background = {
shapes = (
{
closed = 1;
nodes = (
(357,201,l),
(357,316,l),
(155,316,l),
(155,201,l)
);
},
{
closed = 1;
nodes = (
(24,186,o),
(32,70,o),
(51,0,c),
(224,0,l),
(201,67,o),
(193,158,o),
(193,253,cs),
(193,345,o),
(220,431,o),
(258,506,c),
(296,431,o),
(323,344,o),
(323,252,cs),
(323,157,o),
(315,67,o),
(292,0,c),
(465,0,l),
(484,71,o),
(492,186,o),
(492,249,cs),
(492,355,o),
(460,478,o),
(418,554,c),
(98,554,l),
(56,478,o),
(24,355,o),
(24,249,cs)
);
}
);
};
layerId = m01;
shapes = (
{
closed = 1;
nodes = (
(215,-6,l),
(191,117,o),
(190,169,o),
(190,252,cs),
(190,341,o),
(220,448,o),
(258,515,c),
(296,448,o),
(326,341,o),
(326,252,cs),
(326,169,o),
(325,117,o),
(301,-6,c),
(473,-6,l),
(489,66,o),
(494,183,o),
(494,223,cs),
(494,356,o),
(461,475,o),
(418,554,c),
(98,554,l),
(55,475,o),
(22,356,o),
(22,223,cs),
(22,183,o),
(27,66,o),
(43,-6,c)
);
},
{
closed = 1;
nodes = (
(357,201,l),
(357,316,l),
(155,316,l),
(155,201,l)
);
}
);
width = 515;
}
);
unicode = 65;
},
{
color = 9;
glyphname = "Alpha-latin";
lastChange = "2023-12-12 23:02:49 +0000";
layers = (
{
layerId = m01;
shapes = (
{
closed = 1;
nodes = (
);
},
{
closed = 1;
nodes = (
(526,0,l),
(482,60,o),
(462,120,o),
(462,195,cs),
(462,554,l),
(291,554,l),
(291,0,l)
);
},
{
closed = 1;
nodes = (
(299,0,l),
(299,30,l),
(237,41,o),
(187,151,o),
(187,275,cs),
(187,380,o),
(225,469,o),
(291,518,c),
(291,554,l),
(104,554,l),
(51,506,o),
(16,390,o),
(16,269,cs),
(16,155,o),
(47,59,o),
(104,0,c)
);
}
);
width = 512;
}
);
metricLeft = C;
metricRight = C;
unicode = 11373;
},
{
color = 11;
glyphname = AE;
lastChange = "2023-12-12 21:58:21 +0000";
layers = (
{
anchors = (
{
name = bottom;
pos = (302,0);
},
{
name = center;
pos = (274,277);
},
{
name = ogonek;
pos = (378,10);
},
{
name = top;
pos = (302,554);
},
{
name = topleft;
pos = (22,554);
}
);
layerId = m01;
shapes = (
{
closed = 1;
nodes = (
(607,0,l),
(607,114,l),
(433,114,l),
(433,444,l),
(603,444,l),
(603,554,l),
(273,554,l),
(273,0,l)
);
},
{
closed = 1;
nodes = (
(218,0,l),
(187,124,o),
(186,182,o),
(186,257,cs),
(186,392,o),
(236,470,o),
(293,554,c),
(91,554,l),
(54,493,o),
(22,383,o),
(22,269,cs),
(22,201,o),
(22,117,o),
(43,0,c)
);
},
{
closed = 1;
nodes = (
(403,204,l),
(403,304,l),
(62,304,l),
(62,204,l)
);
},
{
closed = 1;
nodes = (
(571,242,l),
(571,342,l),
(417,342,l),
(417,242,l)
);
}
);
width = 651;
}
);
metricLeft = A;
metricRight = H;
unicode = 198;
},
{
color = 11;
glyphname = B;
lastChange = "2023-12-13 15:54:14 +0000";
layers = (
{
anchors = (
{
name = bottom;
pos = (255,0);
},
{
name = center;
pos = (255,277);
},
{
name = hook;
pos = (44,554);
},
{
name = stroke;
pos = (132,157);
},
{
name = top;
pos = (255,554);
}
);
background = {
shapes = (
{
pos = (5,0);
ref = P;
}
);
};
layerId = m01;
shapes = (
{
closed = 1;
nodes = (
(427,0,l),
(468,33,o),
(493,89,o),
(493,150,cs),
(493,216,o),
(465,266,o),
(407,306,c),
(444,329,o),
(468,378,o),
(468,430,cs),
(468,480,o),
(446,527,o),
(409,554,c),
(44,554,l),
(44,0,l)
);
},
{
closed = 1;
nodes = (
(216,245,l),
(283,237,o),
(317,204,o),
(317,147,cs),
(317,95,o),
(276,49,o),
(216,34,c)
);
},
{
closed = 1;
nodes = (
(216,516,l),
(267,510,o),
(304,469,o),
(304,417,cs),
(304,367,o),
(269,325,o),
(216,310,c)
);
}
);
width = 507;
}
);
unicode = 66;
},
{
color = 7;
glyphname = "Beta-latin";
lastChange = "2023-12-13 15:56:45 +0000";
layers = (
{
layerId = m01;
shapes = (
{
closed = 1;
nodes = (
(216,-190,l),
(216,0,l),
(427,0,l),
(468,33,o),
(493,89,o),
(493,150,cs),
(493,216,o),
(465,266,o),
(407,306,c),
(444,329,o),
(468,378,o),
(468,430,cs),
(468,480,o),
(446,527,o),
(409,554,c),
(44,554,l),
(44,-190,l)
);
},
{
closed = 1;
nodes = (
(216,245,l),
(283,237,o),
(317,204,o),
(317,147,cs),
(317,95,o),
(276,49,o),
(216,34,c)
);
},
{
closed = 1;
nodes = (
(216,516,l),
(267,510,o),
(304,469,o),
(304,417,cs),
(304,367,o),
(269,325,o),
(216,310,c)
);
}
);
width = 507;
}
);
metricLeft = B;
metricRight = B;
unicode = 42932;
},
{
color = 11;
glyphname = C;
lastChange = "2023-12-12 21:58:21 +0000";
layers = (
{
anchors = (
{
name = bottom;
pos = (203,0);
},
{
name = center;
pos = (268,278);
},
{
name = top;
pos = (178,554);
}
);
layerId = m01;
shapes = (
{
closed = 1;
nodes = (
(340,0,l),
(240,83,o),
(189,180,o),
(189,284,cs),
(189,385,o),
(236,468,o),
(340,554,c),
(115,554,l),
(51,496,o),
(16,404,o),
(16,289,cs),
(16,173,o),
(52,68,o),
(115,0,c)
);
}
);
width = 326;
}
);
unicode = 67;
},
{
color = 7;
glyphname = "Chi-latin";
lastChange = "2023-12-13 16:03:02 +0000";
layers = (
{
layerId = m01;
shapes = (
{
closed = 1;
nodes = (
(190,0,l),
(226,205,l),
(228,205,l),
(267,103,o),
(365,0,o),
(430,0,c),
(487,206,l),
(486,209,l),
(422,210,o),
(343,251,o),
(283,312,c),
(284,314,l),
(423,315,l),
(472,554,l),
(303,554,l),
(260,341,l),
(259,341,l),
(212,408,o),
(198,460,o),
(206,550,c),
(203,554,l),
(14,554,l),
(14,425,o),
(69,331,o),
(187,261,c),
(187,260,l),
(63,261,l),
(17,0,l)
);
}
);
width = 492;
}
);
metricLeft = X;
metricRight = X;
unicode = 42931;
},
{
color = 7;
glyphname = D;
lastChange = "2023-12-13 15:49:54 +0000";
layers = (
{
anchors = (
{
name = bottom;
pos = (232,0);
},
{
name = center;
pos = (275,277);
},
{
name = hook;
pos = (44,554);
},
{
name = stroke;
pos = (131,277);
},
{
name = top;
pos = (235,554);
}
);
background = {
shapes = (
{
closed = 1;
nodes = (
(217,0,l),
(217,154,l),
(406,154,l),
(441,193,o),
(469,272,o),
(469,371,cs),
(469,437,o),
(442,513,o),
(406,554,c),
(44,554,l),
(44,0,l)
);
},
{
closed = 1;
nodes = (
(217,517,l),
(269,492,o),
(301,426,o),
(301,354,cs),
(301,292,o),
(269,227,o),
(217,183,c)
);
}
);
};
layerId = m01;
shapes = (
{
closed = 1;
nodes = (
(415,0,l),
(466,64,o),
(501,184,o),
(501,291,cs),
(501,383,o),
(473,468,o),
(415,554,c),
(44,554,l),
(44,0,l)
);
},
{
closed = 1;
nodes = (
(217,516,l),
(286,487,o),
(330,386,o),
(330,282,cs),
(330,182,o),
(292,83,o),
(217,32,c)
);
}
);
width = 518;
}
);
unicode = 68;
},
{
color = 11;
glyphname = E;
lastChange = "2023-12-12 21:58:21 +0000";
layers = (
{
anchors = (
{
name = bottom;
pos = (205,0);
},
{
name = center;
pos = (268,277);
},
{
name = ogonek;
pos = (372,10);
},
{
name = top;
pos = (205,554);
},
{
name = topleft;
pos = (16,554);
}
);
associatedMasterId = m01;
layerId = "6A2C1B8F-E57C-4FB2-B782-7C8CAB9B7401";
name = "Nov 21, 23 at 16:33";
shapes = (
{
closed = 1;
nodes = (
(384,0,l),
(384,120,l),
(210,120,l),
(210,435,l),
(380,435,l),
(380,554,l),
(40,552,l),
(40,-2,l)
);
},
{
closed = 1;
nodes = (
(348,224,l),
(348,340,l),
(194,340,l),
(194,224,l)
);
}
);
width = 414;
},
{
anchors = (
{
name = bottom;
pos = (224,0);
},
{
name = center;
pos = (287,277);
},
{
name = ogonek;
pos = (391,10);
},
{
name = top;
pos = (211,554);
},
{
name = topleft;
pos = (35,554);
}
);
layerId = m01;
name = Bold;
shapes = (
{
closed = 1;
nodes = (
(379,0,l),
(411,120,l),
(211,120,l),
(211,219,l),
(329,219,l),
(361,337,l),
(211,337,l),
(211,436,l),
(377,436,l),
(409,554,l),
(44,554,l),
(44,0,l)
);
}
);
visible = 1;
width = 417;
}
);
unicode = 69;
},
{
color = 8;
glyphname = Eopen;
lastChange = "2023-12-13 16:05:46 +0000";
layers = (
{
layerId = m01;
shapes = (
{
closed = 1;
nodes = (
(318,0,l),
(318,5,l),
(250,31,o),
(196,97,o),
(196,168,cs),
(196,231,o),
(230,271,o),
(275,286,c),
(275,292,l),
(231,310,o),
(200,350,o),
(200,418,cs),
(200,478,o),
(246,538,o),
(301,549,c),
(301,554,l),
(123,554,l),
(71,531,o),
(35,477,o),
(35,420,cs),
(35,359,o),
(72,311,o),
(134,291,c),
(134,287,l),
(68,270,o),
(26,218,o),
(26,154,cs),
(26,85,o),
(63,28,o),
(113,0,c)
);
}
);
width = 367;
}
);
metricLeft = O;
unicode = 400;
},
{
color = 11;
glyphname = Esh;
lastChange = "2023-12-12 21:58:21 +0000";
layers = (
{
layerId = m01;
shapes = (
{
closed = 1;
nodes = (
(353,0,l),
(353,117,l),
(255,285,l),
(352,436,l),
(353,554,l),
(24,554,l),
(24,437,l),
(188,437,l),
(80,285,l),
(189,117,l),
(24,117,l),
(24,0,l)
);
}
);
width = 377;
}
);
unicode = 425;
},
{
color = 11;
glyphname = Schwa;
lastChange = "2023-12-12 21:58:21 +0000";
layers = (
{
anchors = (
{
name = bottom;
pos = (266,0);
},
{
name = center;
pos = (266,277);
},
{
name = ogonek;
pos = (442,0);
},
{
name = top;
pos = (266,554);
},
{
name = topleft;
pos = (89,554);
},
{
name = topright;
pos = (446,554);
}
);
background = {
shapes = (
{
closed = 1;
nodes = (
(36,146,l),
(43,100,o),
(65,38,o),
(90,0,c),
(437,0,l),
(481,58,o),
(505,162,o),
(505,278,cs),
(505,391,o),
(482,493,o),
(441,554,c),
(94,554,l),
(68,519,o),
(49,468,o),
(37,408,c),
(217,408,l),
(228,449,o),
(244,488,o),
(263,522,c),
(305,456,o),
(330,367,o),
(330,275,cs),
(330,188,o),
(307,100,o),
(268,32,c),
(246,67,o),
(225,107,o),
(217,146,c)
);
}
);
};
layerId = m01;
shapes = (
{
closed = 1;
nodes = (
(437,0,l),
(481,58,o),
(505,162,o),
(505,278,cs),
(505,391,o),
(482,493,o),
(441,554,c),
(94,554,l),
(68,520,o),
(49,469,o),
(38,409,c),
(218,408,l),
(228,449,o),
(244,488,o),
(263,522,c),
(303,459,o),
(328,374,o),
(330,286,c),
(27,286,l),
(21,218,o),
(37,79,o),
(90,0,c)
);
},
{
closed = 1;
nodes = (
(228,94,o),
(207,140,o),
(203,234,c),
(328,234,l),
(322,161,o),
(301,89,o),
(268,32,c)
);
},
{
closed = 0;
nodes = (
(344,172,l)
);
}
);
width = 531;
}
);
metricLeft = O;
metricRight = O;
unicode = 399;
},
{
color = 11;
glyphname = Ezh;
lastChange = "2023-12-12 21:58:21 +0000";
layers = (
{
anchors = (
{
name = bottom;
pos = (232,0);
},
{
name = top;
pos = (232,554);
}
);
layerId = m01;
shapes = (
{
closed = 1;
nodes = (
(297,0,l),
(417,72,o),
(431,250,o),
(314,322,c),
(397,434,l),
(397,554,l),
(73,554,l),
(73,434,l),
(232,434,l),
(149,322,l),
(150,322,l),
(276,224,o),
(228,67,o),
(63,0,c)
);
}
);
width = 464;
}
);
unicode = 439;
},
{
color = 11;
glyphname = F;
lastChange = "2023-12-12 21:58:21 +0000";
layers = (
{
anchors = (
{
name = bottom;
pos = (110,0);
},
{
name = center;
pos = (277,277);
},
{
name = ogonek;
pos = (192,0);
},
{
name = top;
pos = (157,554);
},
{
name = topleft;
pos = (21,554);
}
);
layerId = m01;
shapes = (
{
closed = 1;
nodes = (
(214,0,l),
(214,209,l),
(342,209,l),
(374,327,l),
(214,327,l),
(214,436,l),
(370,436,l),
(402,554,l),
(44,554,l),
(44,0,l)
);
}
);
width = 404;
}
);
unicode = 70;
},
{
color = 11;
glyphname = Fhook;
lastChange = "2023-12-12 21:58:21 +0000";
layers = (
{
anchors = (
{
name = bottom;
pos = (113,0);
},
{
name = ogonek;
pos = (195,0);
},
{
name = top;
pos = (160,554);
},
{
name = topleft;
pos = (24,554);
}
);
background = {
shapes = (
{
closed = 1;
nodes = (
(195,0,l),
(195,193,l),
(332,193,l),
(332,311,l),
(194,311,l),
(194,435,l),
(360,435,l),
(360,554,l),
(24,554,l),
(24,0,l)
);
}
);
};
layerId = m01;
shapes = (
{
closed = 1;
nodes = (
(160,-154,l),
(185,-116,o),
(195,-74,o),
(195,0,cs),
(195,193,l),
(332,193,l),
(332,311,l),
(194,311,l),
(194,435,l),
(360,435,l),
(360,554,l),
(24,554,l),
(24,0,ls),
(24,-80,o),
(12,-116,o),
(-26,-154,c)
);
}
);
width = 380;
}
);
unicode = 401;
},
{
color = 9;
glyphname = G;
lastChange = "2023-12-12 22:01:15 +0000";
layers = (
{
anchors = (
{
name = bottom;
pos = (266,0);
},
{
name = top;
pos = (266,554);
}
);
associatedMasterId = m01;
background = {
shapes = (
{
closed = 1;
nodes = (
(206,554,l),
(33,554,l),
(33,0,l),
(206,0,l)
);
},
{
closed = 1;
nodes = (
(322,0,l),
(495,0,l),
(495,554,l),
(322,554,l)
);
},
{
closed = 1;
nodes = (
(190,224,l),
(338,224,l),
(338,340,l),
(190,340,l)
);
}
);
};
layerId = "23C79121-4DE4-4880-A9C3-01FCD5708AF1";
name = "Nov 21, 23 at 16:33";
shapes = (
{
closed = 1;
nodes = (
(449,0,l),
(485,57,o),
(504,157,o),
(504,273,cs),
(504,330,l),
(279,330,l),
(282,224,l),
(339,224,l),
(339,165,o),
(319,84,o),
(278,30,c),
(231,91,o),
(205,171,o),
(205,275,cs),
(205,372,o),
(224,457,o),
(276,522,c),
(298,485,o),
(310,455,o),
(323,401,c),
(498,401,l),
(487,467,o),
(467,521,o),
(440,554,c),
(88,554,l),
(52,495,o),
(30,393,o),
(30,279,cs),
(30,158,o),
(56,56,o),
(99,-1,c)
);
}
);
width = 536;
},
{
anchors = (
{
name = bottom;
pos = (297,0);
},
{
name = stroke;
pos = (385,192);
},
{
name = top;
pos = (250,554);
}
);
background = {
shapes = (
{
closed = 1;
nodes = (
(302,0,l),
(312,32,l),
(232,80,o),
(181,196,o),
(181,288,cs),
(181,399,o),
(209,462,o),
(246,522,c),
(277,491,o),
(292,454,o),
(304,401,c),
(479,401,l),
(469,468,o),
(443,522,o),
(417,554,c),
(68,554,l),
(37,494,o),
(7,410,o),
(4,279,cs),
(2,181,o),
(39,60,o),
(108,0,c)
);
},
{
closed = 1;
nodes = (
(471,0,l),
(471,288,l),
(302,288,l),
(302,0,l)
);
}
);
};
layerId = m01;
name = Bold;
shapes = (
{
closed = 1;
nodes = (
(320,0,l),
(307,25,l),
(234,73,o),
(191,179,o),
(192,309,cs),
(192,397,o),
(231,495,o),
(290,554,c),
(95,554,l),
(46,491,o),
(20,397,o),
(20,288,cs),
(19,180,o),
(53,70,o),
(109,0,c)
);
},
{
closed = 1;
nodes = (
(466,0,l),
(466,288,l),
(297,288,l),
(297,0,l)
);
},
{
closed = 1;
nodes = (
(471,400,l),
(465,458,o),
(439,525,o),
(411,554,c),
(227,554,l),
(272,504,o),
(286,476,o),
(302,400,c)
);
}
);
visible = 1;
width = 500;
}
);
unicode = 71;
},
{
color = 11;
glyphname = H;
lastChange = "2023-12-13 15:33:30 +0000";
layers = (
{
anchors = (
{
name = bottom;
pos = (270,0);
},
{
name = center;
pos = (270,277);
},
{
name = hook;
pos = (44,554);
},
{
name = top;
pos = (274,554);
},
{
name = topleft;
pos = (39,554);
}
);
layerId = m01;
shapes = (
{
closed = 1;
nodes = (
(504,0,l),
(504,554,l),
(331,554,l),
(331,0,l)
);
},
{
closed = 1;
nodes = (
(217,0,l),
(217,554,l),
(44,554,l),
(44,0,l)
);
},
{
closed = 1;
nodes = (
(377,224,l),
(377,342,l),
(171,342,l),
(171,224,l)
);
}
);
width = 548;
}
);
unicode = 72;
},
{
color = 7;
glyphname = Hbar;
lastChange = "2023-12-13 15:29:48 +0000";
layers = (
{
layerId = m01;
shapes = (
{
closed = 1;
nodes = (
(530,0,l),
(530,554,l),
(357,554,l),
(357,0,l)
);
},
{
closed = 1;
nodes = (
(243,0,l),
(243,554,l),
(70,554,l),
(70,0,l)
);
},
{
closed = 1;
nodes = (
(403,184,l),
(403,286,l),
(197,286,l),
(197,184,l)
);
},
{
closed = 1;
nodes = (
(574,360,l),
(574,462,l),
(26,462,l),
(26,360,l)
);
}
);
width = 600;
}
);
metricLeft = O;
metricRight = O;
unicode = 294;
},
{
color = 7;
glyphname = Heng;
lastChange = "2023-12-13 15:45:25 +0000";
layers = (
{
layerId = m01;
shapes = (
{
closed = 1;
nodes = (
(469,-174,l),
(488,-146,o),
(504,-77,o),
(504,-27,cs),
(504,554,l),
(331,554,l),
(331,342,l),
(217,342,l),
(217,554,l),
(44,554,l),
(44,0,l),
(217,0,l),
(217,224,l),
(331,224,l),
(331,34,ls),
(331,-28,o),
(303,-111,o),
(261,-174,c)
);
}
);
width = 528;
}
);
metricLeft = H;
metricRight = j;
unicode = 42790;
},
{
color = 7;
glyphname = Hturned;
lastChange = "2023-12-13 15:46:06 +0000";
layers = (
{
layerId = m01;
shapes = (
{
closed = 1;
nodes = (
(450,0,l),
(450,554,l),
(279,554,l),
(279,208,l),
(227,241,o),
(197,295,o),
(197,385,cs),
(197,554,l),
(26,554,l),
(26,374,ls),
(26,292,o),
(48,216,o),
(84,174,c),
(279,174,l),
(279,0,l)
);
}
);
width = 494;
}
);
metricLeft = O;
metricRight = H;
unicode = 42893;
},
{
color = 11;
glyphname = I;
lastChange = "2023-12-12 21:58:21 +0000";
layers = (
{
anchors = (
{
name = bottom;
pos = (131,0);
},
{
name = ogonek;
pos = (202,0);
},
{
name = stroke;
pos = (131,277);
},
{
name = top;
pos = (131,554);
},
{
name = topleft;
pos = (40,554);
}
);
layerId = m01;
shapes = (
{
closed = 1;
nodes = (
(217,0,l),
(217,554,l),
(44,554,l),
(44,0,l)
);
}
);
width = 261;
}
);
unicode = 73;
},
{
color = 11;
glyphname = "Iota-latin";
lastChange = "2023-12-12 21:58:21 +0000";
layers = (
{
anchors = (
{
name = bottom;
pos = (131,0);
},
{
name = ogonek;
pos = (202,0);
},
{
name = stroke;
pos = (131,277);
},
{
name = top;
pos = (131,554);
},
{
name = topleft;
pos = (40,554);
}
);
layerId = m01;
shapes = (
{
closed = 1;
nodes = (
(217,0,l),
(217,554,l),
(44,554,l),
(44,0,l)
);
}
);
width = 241;
}
);
metricLeft = H;
metricRight = h4;
unicode = 406;
},
{
color = 9;
glyphname = J;
lastChange = "2023-12-12 22:18:30 +0000";
layers = (
{
anchors = (
{
name = bottom;
pos = (130,0);
},
{
name = center;
pos = (130,288);
},
{
name = top;
pos = (130,554);
}
);
layerId = m01;
shapes = (
{
closed = 1;
nodes = (
(142,-126,l),
(190,-95,o),
(216,-44,o),
(216,21,cs),
(216,554,l),
(43,554,l),
(43,28,ls),
(43,-39,o),
(24,-91,o),
(-14,-126,c)
);
}
);
width = 260;
}
);
unicode = 74;
},
{
color = 9;
glyphname = Jcrossedtail;
lastChange = "2023-12-12 22:23:11 +0000";
layers = (
{
anchors = (
{
name = bottom;
pos = (130,0);
},
{
name = center;
pos = (130,288);
},
{
name = top;
pos = (130,554);
}
);
background = {
shapes = (
{
closed = 1;
nodes = (
(142,-126,l),
(190,-95,o),
(216,-44,o),
(216,21,cs),
(216,554,l),
(43,554,l),
(43,28,ls),
(43,-39,o),
(24,-91,o),
(-14,-126,c)
);
},
{
closed = 1;
nodes = (
(56,-126,l),
(18,-99,o),
(-11,-40,o),
(-11,8,cs),
(-11,84,o),
(62,139,o),
(187,158,c),
(74,158,l),
(-103,129,o),
(-174,85,o),
(-174,3,cs),
(-174,-48,o),
(-146,-97,o),
(-100,-126,c)
);
},
{
closed = 1;
nodes = (
(171,146,o),
(205,120,o),
(205,90,c),
(403,90,l),
(403,125,o),
(309,158,o),
(209,158,c),
(116,158,l)
);
}
);
};
layerId = m01;
shapes = (
{
closed = 1;
nodes = (
(142,-126,l),
(190,-95,o),
(216,-44,o),
(216,21,cs),
(216,90,l),
(403,90,l),
(403,124,o),
(314,156,o),
(216,158,c),
(216,554,l),
(43,554,l),
(43,153,l),
(-111,124,o),
(-174,80,o),
(-174,3,cs),
(-174,-48,o),
(-146,-97,o),
(-100,-126,c)
);
},
{
closed = 1;
nodes = (
(0,-56,o),
(-11,-22,o),
(-11,8,cs),
(-11,46,o),
(7,79,o),
(43,106,c),
(43,28,ls),
(43,-17,o),
(35,-55,o),
(18,-84,c)
);
}
);
width = 260;
}
);
unicode = 42930;
},
{
color = 11;
glyphname = K;
lastChange = "2023-12-12 21:58:21 +0000";
layers = (
{
anchors = (
{
name = bottom;
pos = (262,0);
},
{
name = top;
pos = (250,554);
}
);
background = {
shapes = (
{
closed = 1;
nodes = (
(440,319,o),
(467,378,o),
(467,430,cs),
(467,478,o),
(443,528,o),
(408,554,c),
(47,554,l),
(47,0,l),
(214,0,l),
(214,250,l),
(272,245,o),
(299,201,o),
(303,139,cs),
(312,0,l),
(486,0,l),
(477,139,ls),
(472,218,o),
(443,271,o),
(400,294,c)
);
},
{
closed = 1;
nodes = (
(214,517,l),
(258,509,o),
(299,466,o),
(299,412,cs),
(299,360,o),
(271,316,o),
(214,298,c)
);
}
);
};
layerId = m01;
shapes = (
{
closed = 1;
nodes = (
(214,0,l),
(214,259,l),
(279,254,o),
(306,201,o),
(310,139,cs),
(319,0,l),
(495,0,l),
(486,139,ls),
(481,218,o),
(458,280,o),
(410,303,c),
(450,328,o),
(470,378,o),
(470,430,cs),
(470,554,l),
(296,554,l),
(296,427,ls),
(296,367,o),
(278,316,o),
(214,307,c),
(214,554,l),
(44,554,l),
(44,0,l)
);
}
);
width = 515;
}
);
unicode = 75;
},
{
color = 11;
glyphname = L;
lastChange = "2023-12-12 22:24:29 +0000";
layers = (
{
anchors = (
{
name = bottom;
pos = (215,0);
},
{
name = center;
pos = (143,315);
},
{
name = stroke;
pos = (140,315);
},
{
name = top;
pos = (215,554);
},
{
name = topright;
pos = (373,554);
}
);
layerId = m01;
shapes = (
{
closed = 1;
nodes = (
(368,0,l),
(400,125,l),
(215,125,l),
(215,554,l),
(44,554,l),
(44,0,l)
);
}
);
width = 384;
}
);
unicode = 76;
},
{
color = 11;
glyphname = M;
lastChange = "2023-12-12 21:58:21 +0000";
layers = (
{
anchors = (
{
name = bottom;
pos = (362,0);
},
{
name = top;
pos = (362,554);
}
);
background = {
shapes = (
{
closed = 1;
nodes = (
(738,0,l),
(738,352,ls),
(738,437,o),
(711,504,o),
(657,554,c),
(44,554,l),
(44,0,l),
(217,0,l),
(217,514,l),
(284,488,o),
(305,399,o),
(305,313,cs),
(305,0,l),
(477,0,l),
(477,352,ls),
(477,410,o),
(472,469,o),
(446,514,c),
(538,484,o),
(565,430,o),
(565,312,cs),
(565,0,l)
);
}
);
};
layerId = m01;
shapes = (
{
closed = 1;
nodes = (
(217,0,l),
(217,516,l),
(286,487,o),
(305,399,o),
(305,313,cs),
(305,0,l),
(477,0,l),
(477,352,ls),
(477,410,o),
(471,470,o),
(444,516,c),
(535,484,o),
(565,430,o),
(565,312,cs),
(565,0,l),
(738,0,l),
(738,352,ls),
(738,437,o),
(711,504,o),
(657,554,c),
(44,554,l),
(44,0,l)
);
}
);
width = 774;
}
);
unicode = 77;
},
{
color = 11;
glyphname = N;
lastChange = "2023-12-12 21:58:21 +0000";
layers = (
{
anchors = (
{
name = bottom;
pos = (276,0);
},
{
name = top;
pos = (262,554);
}
);
layerId = m01;
shapes = (
{
closed = 1;
nodes = (
(488,-1,l),
(488,316,ls),
(488,438,o),
(462,519,o),
(410,554,c),
(44,554,l),
(44,0,l),
(217,0,l),
(217,516,l),
(285,490,o),
(315,419,o),
(315,286,cs),
(315,-1,l)
);
}
);
width = 524;
}
);
unicode = 78;
},
{
color = 7;
glyphname = Nhookleft;
lastChange = "2023-12-13 15:29:48 +0000";
layers = (
{
layerId = m01;
shapes = (
{
closed = 1;
nodes = (
(178,-174,l),
(197,-146,o),
(213,-77,o),
(213,-27,cs),
(213,516,l),
(281,490,o),
(311,419,o),
(311,286,cs),
(311,-1,l),
(484,-1,l),
(484,316,ls),
(484,438,o),
(458,519,o),
(406,554,c),
(40,554,l),
(40,34,ls),
(40,-28,o),
(12,-111,o),
(-30,-174,c)
);
}
);
width = 520;
}
);
metricLeft = j;
metricRight = N;
unicode = 413;
},
{
color = 9;
glyphname = Nlongrightleg;
lastChange = "2023-12-12 22:38:50 +0000";
layers = (
{
layerId = m01;
shapes = (
{
closed = 1;
nodes = (
(488,-174,l),
(488,316,ls),
(488,438,o),
(462,519,o),
(410,554,c),
(44,554,l),
(44,0,l),
(217,0,l),
(217,516,l),
(285,490,o),
(315,419,o),
(315,286,cs),
(315,-174,l)
);
}
);
width = 524;
}
);
unicode = 544;
},
{
color = 7;
glyphname = Eng;
lastChange = "2023-12-13 15:43:38 +0000";
layers = (
{
layerId = m01;
shapes = (
{
closed = 1;
nodes = (
(432,-250,l),
(454,-209,o),
(468,-136,o),
(468,-63,cs),
(468,354,ls),
(468,436,o),
(446,512,o),
(410,554,c),
(44,554,l),
(44,0,l),
(215,0,l),
(215,520,l),
(271,485,o),
(297,428,o),
(297,343,cs),
(297,-42,ls),
(297,-108,o),
(273,-191,o),
(236,-250,c)
);
}
);
width = 492;
}
);
metricLeft = H;
metricRight = j;
unicode = 330;
},
{
color = 11;
glyphname = O;
lastChange = "2023-12-12 22:37:40 +0000";
layers = (
{
anchors = (
{
name = bottom;
pos = (261,0);
},
{
name = center;
pos = (261,277);
},
{
name = ogonek;
pos = (469,10);
},
{
name = top;
pos = (261,554);
},
{
name = topleft;
pos = (20,554);
},
{
name = topright;
pos = (456,502);
}
);
background = {
shapes = (
{
closed = 1;
nodes = (
(434,0,l),
(476,68,o),
(495,168,o),
(495,278,cs),
(495,380,o),
(479,466,o),
(433,554,c),
(88,554,l),
(45,481,o),
(26,384,o),
(26,276,cs),
(26,175,o),
(43,89,o),
(89,0,c)
);
},
{
closed = 1;
nodes = (
(218,116,o),
(201,189,o),
(201,279,cs),
(201,367,o),
(221,448,o),
(260,518,c),
(306,446,o),
(320,367,o),
(320,275,cs),
(320,187,o),
(304,105,o),
(266,36,c)
);
}
);
};
layerId = m01;
shapes = (
{
closed = 1;
nodes = (
(434,0,l),
(476,68,o),
(495,168,o),
(495,278,cs),
(495,380,o),
(479,466,o),
(433,554,c),
(88,554,l),
(45,481,o),
(26,384,o),
(26,276,cs),
(26,175,o),
(43,89,o),
(89,0,c)
);
},
{
closed = 1;
nodes = (
(220,104,o),
(201,183,o),
(201,277,cs),
(201,365,o),
(221,446,o),
(260,516,c),
(306,444,o),
(320,365,o),
(320,273,cs),
(320,181,o),
(303,101,o),
(266,32,c)
);
}
);
width = 521;
}
);
unicode = 79;
},
{
color = 9;
glyphname = OU;
lastChange = "2023-12-12 22:40:05 +0000";
layers = (
{
layerId = m01;
shapes = (
{
closed = 1;
nodes = (
(435,0,l),
(477,46,o),
(496,113,o),
(496,187,cs),
(496,256,o),
(480,313,o),
(434,372,c),
(89,372,l),
(46,323,o),
(26,250,o),
(26,185,cs),
(26,124,o),
(44,60,o),
(90,0,c)
);
},
{
closed = 1;
nodes = (
(221,77,o),
(202,128,o),
(202,184,cs),
(202,242,o),
(222,291,o),
(261,334,c),
(307,289,o),
(321,239,o),
(321,184,cs),
(321,124,o),
(304,75,o),
(267,32,c)
);
},
{
closed = 1;
nodes = (
(435,372,l),
(477,417,o),
(496,484,o),
(496,554,c),
(321,554,l),
(321,496,o),
(304,447,o),
(267,404,c),
(221,449,o),
(202,498,o),
(202,554,c),
(27,554,l),
(27,488,o),
(44,431,o),
(90,372,c)
);
}
);
width = 522;
}
);
metricLeft = O;
metricRight = O;
unicode = 546;
},
{
color = 11;
glyphname = Obarred;
lastChange = "2023-12-12 12:12:08 +0000";
layers = (
{
layerId = m01;
shapes = (
{
ref = O;
},
{
pos = (54,-19);
ref = strokelong.comb;
},
{
closed = 0;
nodes = (
(350,172,l)
);
}
);
width = 543;
}
);
unicode = 415;
},
{
color = 11;
glyphname = Oopen;
lastChange = "2023-12-12 21:58:21 +0000";
layers = (
{
anchors = (
{
name = bottom;
pos = (256,0);
},
{
name = center;
pos = (256,277);
},
{
name = ogonek;
pos = (432,0);
},
{
name = top;
pos = (256,554);
},
{
name = topleft;
pos = (79,554);
},
{
name = topright;
pos = (436,554);
}
);
layerId = m01;
shapes = (
{
closed = 1;
nodes = (
(427,0,l),
(471,58,o),
(495,162,o),
(495,278,cs),
(495,391,o),
(472,493,o),
(431,554,c),
(84,554,l),
(58,519,o),
(39,468,o),
(27,408,c),
(207,408,l),
(218,449,o),
(234,488,o),
(253,522,c),
(295,456,o),
(320,367,o),
(320,275,cs),
(320,188,o),
(297,100,o),
(258,32,c),
(236,67,o),
(215,107,o),
(207,146,c),
(26,146,l),
(33,100,o),
(55,38,o),
(80,0,c)
);
}
);
width = 527;
}
);
metricLeft = O;
unicode = 390;
},
{
color = 11;
glyphname = Oslash;
lastChange = "2023-12-12 21:58:21 +0000";
layers = (
{
anchors = (
{
name = bottom;
pos = (300,0);
},
{
name = top;
pos = (300,554);
}
);
layerId = m01;
shapes = (
{
closed = 1;
nodes = (
(359,550,l),
(313,550,l),
(184,9,l),
(230,8,l)
);
},
{
ref = O;
}
);
width = 543;
}
);
unicode = 216;
},
{
color = 11;
glyphname = P;
lastChange = "2023-12-13 15:33:59 +0000";
layers = (
{
anchors = (
{
name = bottom;
pos = (257,0);
},
{
name = hook;
pos = (44,554);
},
{
name = stroke;
pos = (133,359);
},
{
name = top;
pos = (257,554);
}
);
background = {
shapes = (
{
closed = 1;
nodes = (
(213,198,l),
(262,229,o),
(308,284,o),
(308,374,cs),
(308,439,o),
(277,500,o),
(217,516,c),
(217,0,l),
(44,0,l),
(44,554,l),
(408,554,l),
(444,530,o),
(481,450,o),
(481,377,cs),
(481,278,o),
(443,210,o),
(408,171,c),
(213,171,l)
);
}
);
};
layerId = m01;
shapes = (
{
closed = 1;
nodes = (
(217,0,l),
(217,171,l),
(408,171,l),
(454,223,o),
(482,298,o),
(482,377,cs),
(482,445,o),
(447,528,o),
(408,554,c),
(44,554,l),
(44,0,l)
);
},
{
closed = 1;
nodes = (
(217,516,l),
(272,501,o),
(309,445,o),
(309,374,cs),
(309,303,o),
(279,250,o),
(217,209,c)
);
}
);
width = 495;
}
);
unicode = 80;
},
{
color = 11;
glyphname = Thorn;
lastChange = "2023-12-12 21:58:21 +0000";
layers = (
{
anchors = (
{
name = bottom;
pos = (296,0);
},
{
name = top;
pos = (296,554);
}
);
layerId = m01;
shapes = (
{
closed = 1;
nodes = (
(217,0,l),
(217,554,l),
(44,554,l),
(44,0,l)
);
},
{
closed = 1;
nodes = (
(406,113,l),
(441,146,o),
(464,214,o),
(464,284,cs),
(464,355,o),
(441,421,o),
(406,455,c),
(192,455,l),
(253,416,o),
(291,350,o),
(291,284,cs),
(291,218,o),
(253,152,o),
(192,113,c)
);
}
);
width = 512;
}
);
metricLeft = H;
unicode = 222;
},
{
color = 11;
glyphname = Q;
lastChange = "2023-12-12 21:58:21 +0000";
layers = (
{
anchors = (
{
name = bottom;
pos = (255,0);
},
{
name = jot;
pos = (255,-412);
},
{
name = leg;
pos = (195,-412);
},
{
name = top;
pos = (255,554);
}
);
background = {
anchors = (
{
name = bottom;
pos = (255,0);
},
{
name = jot;
pos = (255,-412);
},
{
name = leg;
pos = (195,-412);
},
{
name = top;
pos = (255,554);
}
);
shapes = (
{
closed = 1;
nodes = (
(434,0,l),
(476,68,o),
(495,168,o),
(495,278,cs),
(495,380,o),
(479,466,o),
(433,554,c),
(88,554,l),
(45,481,o),
(26,384,o),
(26,276,cs),
(26,175,o),
(43,89,o),
(89,0,c)
);
},
{
closed = 1;
nodes = (
(220,104,o),
(201,183,o),
(201,277,cs),
(201,365,o),
(221,446,o),
(260,516,c),
(306,444,o),
(320,365,o),
(320,273,cs),
(320,181,o),
(303,101,o),
(266,32,c)
);
}
);
};
layerId = m01;
shapes = (
{
closed = 1;
nodes = (
(395,-127,l),
(253,7,o),
(201,116,o),
(200,279,cs),
(199,360,o),
(219,440,o),
(260,516,c),
(301,450,o),
(319,375,o),
(319,275,cs),
(319,163,o),
(295,76,o),
(243,0,c),
(434,0,l),
(473,64,o),
(494,161,o),
(494,278,cs),
(493,388,o),
(474,472,o),
(431,554,c),
(91,554,l),
(46,477,o),
(23,379,o),
(24,274,cs),
(25,115,o),
(94,-47,o),
(195,-127,c)
);
}
);
width = 520;
}
);
unicode = 81;
},
{
color = 7;
glyphname = Qhooktail;
lastChange = "2023-12-13 15:29:48 +0000";
layers = (
{
layerId = m01;
shapes = (
{
closed = 1;
nodes = (
(536,-190,l),
(492,-136,o),
(472,-82,o),
(472,-15,cs),
(472,554,l),
(301,554,l),
(301,-19,ls),
(301,-104,o),
(311,-147,o),
(341,-190,c)
);
},
{
closed = 1;
nodes = (
(309,0,l),
(309,30,l),
(247,41,o),
(197,151,o),
(197,275,cs),
(197,380,o),
(235,469,o),
(301,518,c),
(301,554,l),
(114,554,l),
(61,506,o),
(26,390,o),
(26,269,cs),
(26,155,o),
(57,59,o),
(114,0,c)
);
}
);
width = 536;
}
);
metricLeft = O;
metricRight = T;
unicode = 586;
},
{
color = 11;
glyphname = R;
lastChange = "2023-12-12 21:58:21 +0000";
layers = (
{
anchors = (
{
name = bottom;
pos = (263,0);
},
{
name = stroke;
pos = (135,418);
},
{
name = top;
pos = (251,554);
}
);
background = {
shapes = (
{
closed = 1;
nodes = (
(214,0,l),
(214,259,l),
(287,254,o),
(314,201,o),
(318,139,cs),
(327,0,l),
(501,0,l),
(492,139,ls),
(487,218,o),
(460,280,o),
(412,303,c),
(452,328,o),
(474,378,o),
(474,430,cs),
(474,554,l),
(304,554,l),
(304,427,ls),
(304,367,o),
(286,316,o),
(214,307,c),
(214,554,l),
(47,554,l),
(47,0,l)
);
}
);
};
layerId = m01;
shapes = (
{
closed = 1;
nodes = (
(214,0,l),
(214,250,l),
(274,245,o),
(306,207,o),
(310,139,cs),
(319,0,l),
(495,0,l),
(486,139,ls),
(481,215,o),
(454,270,o),
(409,294,c),
(447,318,o),
(475,375,o),
(475,430,cs),
(475,478,o),
(451,528,o),
(416,554,c),
(44,554,l),
(44,0,l)
);
},
{
closed = 1;
nodes = (
(214,516,l),
(266,509,o),
(302,465,o),
(302,411,cs),
(302,358,o),
(267,313,o),
(214,298,c)
);
}
);
width = 515;
}
);
unicode = 82;
},
{
color = 11;
glyphname = S;
lastChange = "2023-12-12 23:11:19 +0000";
layers = (
{
anchors = (
{
name = bottom;
pos = (163,0);
},
{
name = center;
pos = (153,290);
},
{
name = top;
pos = (158,554);
}
);
background = {
shapes = (
{
closed = 1;
nodes = (
(241,0,l),
(276,43,o),
(299,100,o),
(299,159,cs),
(299,212,o),
(281,246,o),
(257,301,cs),
(240,340,o),
(228,371,o),
(228,412,cs),
(228,468,o),
(251,511,o),
(284,554,c),
(94,554,l),
(60,510,o),
(38,450,o),
(38,389,cs),
(38,342,o),
(51,308,o),
(63,279,cs),
(81,236,o),
(104,189,o),
(104,142,cs),
(104,90,o),
(75,37,o),
(47,-2,c)
);
}
);
};
layerId = m01;
shapes = (
{
closed = 1;
nodes = (
(229,2,l),
(272,57,o),
(290,104,o),
(289,161,cs),
(287,206,o),
(277,237,o),
(241,303,cs),
(214,353,o),
(205,380,o),
(203,414,cs),
(203,460,o),
(223,500,o),
(272,556,c),
(85,556,l),
(41,506,o),
(16,446,o),
(18,391,cs),
(20,353,o),
(28,323,o),
(50,281,cs),
(90,205,o),
(101,177,o),
(102,144,cs),
(103,104,o),
(79,55,o),
(33,2,c)
);
}
);
width = 307;
}
);
unicode = 83;
},
{
color = 4;
glyphname = Germandbls;
lastChange = "2023-12-13 14:01:10 +0000";
layers = (
{
anchors = (
{
name = bottom;
pos = (473,0);
},
{
name = top;
pos = (473,554);
}
);
layerId = m01;
shapes = (
{
closed = 1;
nodes = (
(214,0,l),
(214,434,l),
(336,434,l),
(256,282,l),
(257,282,l),
(297,251,o),
(320,197,o),
(320,134,cs),
(320,88,o),
(308,40,o),
(286,0,c),
(470,0,l),
(489,36,o),
(503,100,o),
(503,147,cs),
(503,215,o),
(471,263,o),
(409,289,c),
(490,434,l),
(490,554,l),
(198,554,ls),
(96,554,o),
(44,504,o),
(44,407,cs),
(44,0,l)
);
}
);
width = 529;
}
);
metricLeft = H;
metricRight = O;
unicode = 7838;
},
{
color = 11;
glyphname = T;
lastChange = "2023-12-13 15:34:11 +0000";
layers = (
{
anchors = (
{
name = bottom;
pos = (197,0);
},
{
name = center;
pos = (197,277);
},
{
name = hook;
pos = (0,554);
},
{
name = stroke;
pos = (197,312);
},
{
name = top;
pos = (197,554);
}
);
layerId = m01;
shapes = (
{
closed = 1;
nodes = (
(281,0,l),
(281,431,l),
(393,431,l),
(393,554,l),
(0,554,l),
(0,431,l),
(112,431,l),
(112,0,l)
);
}
);
width = 393;
}
);
unicode = 84;
},
{
color = 7;
glyphname = Tretroflexhook;
lastChange = "2023-12-13 15:29:48 +0000";
layers = (
{
layerId = m01;
shapes = (
{
closed = 1;
nodes = (
(351,-196,l),
(309,-133,o),
(281,-50,o),
(281,12,cs),
(281,431,l),
(393,431,l),
(393,554,l),
(0,554,l),
(0,431,l),
(112,431,l),
(112,-49,ls),
(112,-99,o),
(128,-168,o),
(147,-196,c)
);
}
);
width = 393;
}
);
metricLeft = T;
metricRight = T;
unicode = 430;
},
{
color = 7;
glyphname = U;
lastChange = "2023-12-13 15:30:26 +0000";
layers = (
{
anchors = (
{
name = bottom;
pos = (262,0);
},
{
name = center;
pos = (259,277);
},
{
name = ogonek;
pos = (480,0);
},
{
name = top;
pos = (258,554);
},
{
name = topright;
pos = (480,554);
}
);
layerId = m01;
shapes = (
{
closed = 1;
nodes = (
(480,0,l),
(480,554,l),
(307,554,l),
(307,32,l),
(240,66,o),
(210,144,o),
(210,267,cs),
(210,554,l),
(37,554,l),
(37,237,ls),
(37,125,o),
(59,38,o),
(115,0,c)
);
}
);
width = 524;
}
);
unicode = 85;
},
{
color = 8;
glyphname = Ubar;
lastChange = "2023-12-13 15:35:25 +0000";
layers = (
{
layerId = m01;
shapes = (
{
closed = 1;
nodes = (
(514,247,l),
(514,306,l),
(4,306,l),
(4,247,l)
);
},
{
ref = U;
}
);
width = 524;
}
);
unicode = 580;
},
{
color = 11;
glyphname = V;
lastChange = "2023-12-12 21:58:21 +0000";
layers = (
{
anchors = (
{
name = bottom;
pos = (269,0);
},
{
name = ogonek;
pos = (408,0);
},
{
name = top;
pos = (269,554);
}
);
background = {
shapes = (
{
pos = (-19,0);
ref = H;
}
);
};
layerId = m01;
shapes = (
{
closed = 1;
nodes = (
(402,0,l),
(442,47,o),
(457,98,o),
(463,205,cs),
(483,554,l),
(313,554,l),
(292,201,ls),
(287,113,o),
(272,60,o),
(245,32,c),
(190,554,l),
(18,554,l),
(76,0,l)
);
}
);
width = 507;
}
);
unicode = 86;
},
{
color = 7;
glyphname = Vhook;
lastChange = "2023-12-13 15:31:09 +0000";
layers = (
{
layerId = m01;
shapes = (
{
closed = 1;
nodes = (
(402,0,l),
(442,47,o),
(457,98,o),
(463,205,cs),
(474,388,ls),
(479,474,o),
(471,513,o),
(439,554,c),
(269,554,l),
(301,513,o),
(309,474,o),
(303,389,cs),
(292,201,ls),
(287,114,o),
(272,60,o),
(245,32,c),
(190,554,l),
(18,554,l),
(76,0,l)
);
}
);
width = 507;
}
);
unicode = 434;
},
{
color = 11;
glyphname = W;
lastChange = "2023-12-12 21:58:21 +0000";
layers = (
{
anchors = (
{
name = bottom;
pos = (384,0);
},
{
name = jot;
pos = (160,0);
},
{
name = leg;
pos = (413,0);
},
{
name = top;
pos = (387,554);
}
);
background = {
shapes = (
{
closed = 1;
nodes = (
(645,0,l),
(676,38,o),
(694,103,o),
(700,202,cs),
(722,554,l),
(546,554,l),
(534,224,ls),
(531,135,o),
(510,83,o),
(450,38,c),
(461,71,o),
(465,120,o),
(463,199,cs),
(453,554,l),
(280,554,l),
(292,199,ls),
(295,122,o),
(285,86,o),
(249,38,c),
(184,554,l),
(8,554,l),
(71,0,l)
);
}
);
};
layerId = m01;
shapes = (
{
closed = 1;
nodes = (
(653,0,l),
(698,43,o),
(712,76,o),
(719,202,cs),
(738,554,l),
(568,554,l),
(551,223,ls),
(545,109,o),
(522,55,o),
(414,0,c),
(442,0,l),
(482,34,o),
(486,78,o),
(483,199,cs),
(473,554,l),
(301,554,l),
(313,199,ls),
(317,93,o),
(289,28,o),
(223,0,c),
(274,0,l),
(200,554,l),
(27,554,l),
(101,0,l)
);
}
);
width = 766;
}
);
unicode = 87;
},
{
color = 11;
glyphname = X;
lastChange = "2023-12-12 21:58:21 +0000";
layers = (
{
anchors = (
{
name = bottom;
pos = (248,0);
},
{
name = top;
pos = (238,554);
}
);
background = {
shapes = (
{
closed = 1;
nodes = (
(485,-1,l),
(483,147,o),
(437,234,o),
(335,312,cs),
(214,404,o),
(195,438,o),
(197,554,c),
(20,554,l),
(20,394,o),
(69,318,o),
(200,229,cs),
(280,175,o),
(307,111,o),
(308,0,c)
);
},
{
closed = 1;
nodes = (
(193,-1,l),
(240,260,l),
(68,261,l),
(21,0,l)
);
},
{
closed = 1;
nodes = (
(413,315,l),
(460,554,l),
(292,554,l),
(245,314,l)
);
}
);
};
layerId = m01;
shapes = (
{
closed = 1;
nodes = (
(490,0,l),
(487,152,o),
(448,236,o),
(345,312,cs),
(216,406,o),
(195,441,o),
(198,554,c),
(21,554,l),
(20,403,o),
(64,323,o),
(202,229,cs),
(281,175,o),
(310,115,o),
(311,0,c)
);
},
{
closed = 1;
nodes = (
(187,0,l),
(233,260,l),
(60,261,l),
(14,0,l)
);
},
{
closed = 1;
nodes = (
(420,315,l),
(469,554,l),
(300,554,l),
(252,314,l)
);
}
);
width = 495;
}
);
unicode = 88;
},
{
color = 11;
glyphname = Y;
lastChange = "2023-12-12 21:58:21 +0000";
layers = (
{
anchors = (
{
name = bottom;
pos = (180,0);
},
{
name = center;
pos = (181,424);
},
{
name = top;
pos = (231,554);
},
{
name = topleft;
pos = (-51,555);
}
);
background = {
shapes = (
{
closed = 1;
nodes = (
(253,203,l),
(205,237,o),
(183,348,o),
(183,471,cs),
(183,554,l),
(18,554,l),
(18,441,ls),
(18,329,o),
(36,209,o),
(74,171,c),
(253,171,l)
);
},
{
closed = 1;
nodes = (
(333,-3,l),
(405,84,o),
(441,215,o),
(441,351,cs),
(441,554,l),
(269,554,l),
(269,375,ls),
(269,176,o),
(197,94,o),
(125,-1,c)
);
}
);
};
layerId = m01;
shapes = (
{
closed = 1;
nodes = (
(404,76,o),
(446,203,o),
(446,321,cs),
(446,554,l),
(276,554,l),
(276,345,ls),
(276,217,o),
(242,139,o),
(124,-1,c),
(338,-3,l)
);
},
{
closed = 1;
nodes = (
(261,171,l),
(261,209,l),
(213,243,o),
(186,316,o),
(186,411,cs),
(186,554,l),
(18,554,l),
(18,381,ls),
(18,294,o),
(43,208,o),
(80,171,c)
);
}
);
width = 472;
}
);
unicode = 89;
},
{
color = 9;
glyphname = Z;
lastChange = "2023-12-12 22:03:13 +0000";
layers = (
{
anchors = (
{
name = bottom;
pos = (202,0);
},
{
name = center;
pos = (165,277);
},
{
name = ogonek;
pos = (390,0);
},
{
name = top;
pos = (202,554);
},
{
name = topleft;
pos = (-14,554);
}
);
associatedMasterId = m01;
layerId = "83B27D1C-7ED5-4616-A935-B5F25C0041BE";
name = "Nov 21, 23 at 16:33";
shapes = (
{
closed = 1;
nodes = (
(442,0,l),
(442,119,l),
(256,119,l),
(443,554,l),
(32,554,l),
(32,437,l),
(214,437,l),
(20,0,l)
);
}
);
width = 467;
},
{
anchors = (
{
name = bottom;
pos = (186,0);
},
{
name = center;
pos = (208,277);
},
{
name = ogonek;
pos = (379,0);
},
{
name = top;
pos = (230,554);
},
{
name = topleft;
pos = (35,554);
}
);
background = {
shapes = (
{
closed = 1;
nodes = (
(411,113,l),
(127,113,l),
(179,122,o),
(219,149,o),
(248,208,cs),
(411,554,l),
(1,554,l),
(1,437,l),
(258,441,l),
(208,426,o),
(163,396,o),
(141,347,cs),
(-17,0,l),
(411,0,l)
);
}
);
};
layerId = m01;
name = Bold;
shapes = (
{
closed = 1;
nodes = (
(186,0,l),
(415,554,l),
(230,554,l),
(1,0,l)
);
},
{
closed = 1;
nodes = (
(379,0,l),
(412,120,l),
(149,120,l),
(135,0,l)
);
},
{
closed = 1;
nodes = (
(241,434,l),
(242,554,l),
(35,554,l),
(2,434,l)
);
}
);
visible = 1;
width = 416;
}
);
unicode = 90;
},
{
color = 11;
glyphname = "Iota-latin.ss01";
lastChange = "2023-12-12 21:58:21 +0000";
layers = (
{
anchors = (
{
name = bottom;
pos = (132,0);
},
{
name = ogonek;
pos = (203,0);
},
{
name = stroke;
pos = (132,277);
},
{
name = top;
pos = (132,554);
},
{
name = topleft;
pos = (41,554);
}
);
layerId = m01;
shapes = (
{
closed = 1;
nodes = (
(274,1,l),
(236,36,o),
(217,88,o),
(217,155,cs),
(217,554,l),
(44,554,l),
(44,148,ls),
(44,83,o),
(70,32,o),
(118,1,c)
);
}
);
width = 286;
}
);
metricLeft = H;
},
{
color = 11;
glyphname = T.ss01;
lastChange = "2023-12-12 21:58:21 +0000";
layers = (
{
layerId = m01;
shapes = (
{
closed = 1;
nodes = (
(281,0,l),
(281,431,l),
(383,431,l),
(417,554,l),
(0,554,l),
(0,431,l),
(112,431,l),
(112,0,l)
);
}
);
width = 405;
}
);
},
{
color = 11;
glyphname = V.ss01;
lastChange = "2023-12-12 21:58:21 +0000";
layers = (
{
anchors = (
{
name = bottom;
pos = (266,0);
},
{
name = ogonek;
pos = (405,0);
},
{
name = top;
pos = (266,554);
}
);
layerId = m01;
shapes = (
{
closed = 1;
nodes = (
(251,0,l),
(183,554,l),
(18,553,l),
(84,-1,l)
);
},
{
closed = 1;
nodes = (
(475,553,l),
(310,554,l),
(243,0,l),
(410,-1,l)
);
}
);
width = 493;
}
);
},
{
color = 11;
glyphname = W.ss01;
lastChange = "2023-12-12 21:58:21 +0000";
layers = (
{
layerId = m01;
shapes = (
{
closed = 1;
nodes = (
(653,0,l),
(698,43,o),
(712,76,o),
(719,202,cs),
(738,554,l),
(568,554,l),
(551,223,ls),
(545,109,o),
(522,55,o),
(414,0,c),
(442,0,l),
(482,34,o),
(486,78,o),
(483,199,cs),
(473,554,l),
(301,554,l),
(313,199,ls),
(317,93,o),
(289,28,o),
(223,0,c),
(274,0,l),
(200,554,l),
(27,554,l),
(101,0,l)
);
}
);
width = 766;
}
);
},
{
color = 11;
glyphname = X.ss01;
lastChange = "2023-12-12 21:58:21 +0000";
layers = (
{
layerId = m01;
shapes = (
{
closed = 1;
nodes = (
(480,147,o),
(434,234,o),
(332,312,cs),
(211,404,o),
(192,438,o),
(194,554,c),
(17,554,l),
(17,394,o),
(66,318,o),
(197,229,cs),
(277,175,o),
(304,111,o),
(305,0,c),
(482,-1,l)
);
},
{
closed = 1;
nodes = (
(237,260,l),
(65,261,l),
(18,0,l),
(190,-1,l)
);
},
{
closed = 1;
nodes = (
(410,315,l),
(457,554,l),
(289,554,l),
(242,314,l)
);
}
);
width = 484;
}
);
},
{
color = 11;
glyphname = Z.ss01;
lastChange = "2023-12-12 21:58:21 +0000";
layers = (
{
background = {
shapes = (
{
closed = 1;
nodes = (
(439,113,l),
(155,113,l),
(207,122,o),
(247,149,o),
(276,208,cs),
(439,554,l),
(29,554,l),
(29,437,l),
(286,441,l),
(236,426,o),
(191,396,o),
(169,347,cs),
(11,0,l),
(439,0,l)
);
}
);
};
layerId = m01;
shapes = (
{
closed = 1;
nodes = (
(198,0,l),
(436,553,l),
(262,553,l),
(24,0,l)
);
},
{
closed = 1;
nodes = (
(445,120,l),
(172,120,l),
(158,0,l),
(414,-1,l)
);
},
{
closed = 1;
nodes = (
(264,434,l),
(264,553,l),
(48,552,l),
(16,433,l)
);
}
);
width = 461;
}
);
},
{
color = 11;
glyphname = V.ss02;
lastChange = "2023-12-12 21:58:21 +0000";
layers = (
{
anchors = (
{
name = bottom;
pos = (257,0);
},
{
name = center;
pos = (263,277);
},
{
name = oconnect;
pos = (181,554);
},
{
name = ogonek;
pos = (472,544);
},
{
name = top;
pos = (257,554);
}
);
layerId = m01;
shapes = (
{
closed = 1;
nodes = (
(417,0,l),
(459,76,o),
(491,198,o),
(491,310,cs),
(491,377,o),
(483,483,o),
(464,554,c),
(293,554,l),
(316,487,o),
(324,406,o),
(324,329,cs),
(324,213,o),
(291,102,o),
(259,38,c),
(227,102,o),
(194,213,o),
(194,328,cs),
(194,405,o),
(202,487,o),
(225,554,c),
(54,553,l),
(35,483,o),
(27,376,o),
(27,309,cs),
(27,197,o),
(59,75,o),
(101,-1,c)
);
}
);
width = 518;
}
);
},
{
color = 11;
glyphname = W.ss03;
lastChange = "2023-12-12 21:58:21 +0000";
layers = (
{
layerId = m01;
shapes = (
{
closed = 1;
nodes = (
(667,0,l),
(699,39,o),
(717,105,o),
(722,202,cs),
(741,554,l),
(568,554,l),
(549,223,ls),
(543,115,o),
(500,56,o),
(386,0,c),
(414,0,l),
(459,38,o),
(475,92,o),
(472,199,cs),
(462,554,l),
(290,554,l),
(302,199,ls),
(305,104,o),
(274,37,o),
(201,0,c),
(252,0,l),
(189,554,l),
(16,554,l),
(79,0,l)
);
}
);
width = 778;
}
);
},
{
color = 11;
glyphname = F.ss10;
lastChange = "2023-12-12 21:58:21 +0000";
layers = (
{
anchors = (
{
name = bottom;
pos = (176,0);
},
{
name = connector;
pos = (24,400);
},
{
name = top;
pos = (176,554);
}
);
annotations = (
{
pos = (265.636,182.411);
text = "This is for setting the wordmark";
type = Text;
}
);
layerId = m01;
shapes = (
{
closed = 1;
nodes = (
(197,0,l),
(197,400,l),
(197,400,o),
(197,560,o),
(327,630,c),
(154,630,l),
(24,560,o),
(24,450,o),
(24,400,c),
(24,0,l)
);
},
{
closed = 1;
nodes = (
(327,280,l),
(327,400,l),
(24,400,l),
(24,280,l)
);
}
);
width = 351;
}
);
},
{
color = 11;
glyphname = a;
lastChange = "2023-12-12 21:58:21 +0000";
layers = (
{
anchors = (
{
name = bottom;
pos = (220,0);
},
{
name = ogonek;
pos = (421,0);
},
{
name = top;
pos = (214,400);
}
);
background = {
shapes = (
{
closed = 1;
nodes = (
(421,0,l),
(421,253,ls),
(421,301,o),
(404,370,o),
(385,400,c),
(178,400,l),
(203,364,o),
(223,322,o),
(235,280,c),
(68,280,l),
(22,244,o),
(7,192,o),
(7,131,cs),
(7,86,o),
(27,35,o),
(68,0,c)
);
},
{
closed = 1;
nodes = (
(203,44,o),
(178,86,o),
(178,139,cs),
(178,177,o),
(194,220,o),
(240,259,c),
(245,234,o),
(248,211,o),
(248,192,cs),
(248,22,l)
);
}
);
};
layerId = m01;
shapes = (
{
closed = 1;
nodes = (
(421,0,l),
(421,240,ls),
(421,302,o),
(405,371,o),
(386,400,c),
(186,400,l),
(222,351,o),
(250,294,o),
(250,205,cs),
(250,0,l)
);
},
{
closed = 1;
nodes = (
(258,0,l),
(258,30,l),
(204,46,o),
(176,96,o),
(176,142,cs),
(176,193,o),
(211,228,o),
(250,245,c),
(250,281,l),
(63,281,l),
(26,255,o),
(5,196,o),
(5,139,cs),
(5,92,o),
(19,36,o),
(63,0,c)
);
}
);
width = 456;
}
);
unicode = 97;
},
{
color = 7;
glyphname = "alpha-latin";
lastChange = "2023-12-13 16:11:50 +0000";
layers = (
{
layerId = m01;
shapes = (
{
closed = 1;
nodes = (
(493,0,l),
(451,56,o),
(432,113,o),
(432,183,cs),
(432,400,l),
(268,400,l),
(268,0,l)
);
},
{
closed = 1;
nodes = (
(275,0,l),
(275,30,l),
(227,37,o),
(187,110,o),
(187,192,cs),
(187,267,o),
(217,315,o),
(268,364,c),
(268,400,l),
(88,400,l),
(49,352,o),
(23,277,o),
(23,186,cs),
(23,107,o),
(46,41,o),
(88,0,c)
);
}
);
width = 498;
}
);
metricLeft = o;
metricRight = e;
unicode = 593;
},
{
color = 11;
glyphname = ae;
lastChange = "2023-12-12 21:58:21 +0000";
layers = (
{
anchors = (
{
name = bottom;
pos = (324,0);
},
{
name = top;
pos = (324,400);
}
);
layerId = m01;
shapes = (
{
closed = 1;
nodes = (
(275,0,l),
(213,28,o),
(178,77,o),
(178,133,cs),
(178,182,o),
(205,238,o),
(251,280,c),
(49,280,l),
(19,227,o),
(5,175,o),
(5,133,cs),
(5,78,o),
(29,30,o),
(61,0,c)
);
},
{
closed = 1;
nodes = (
(481,0,l),
(437,59,o),
(411,133,o),
(411,196,cs),
(411,250,l),
(238,250,l),
(238,167,ls),
(238,99,o),
(255,30,o),
(274,0,c)
);
},
{
closed = 1;
nodes = (
(411,170,l),
(411,253,ls),
(411,301,o),
(394,370,o),
(375,400,c),
(168,400,l),
(212,337,o),
(238,258,o),
(238,192,cs),
(238,170,l)
);
},
{
closed = 1;
nodes = (
(600,120,l),
(626,163,o),
(643,214,o),
(643,266,cs),
(643,323,o),
(623,367,o),
(588,400,c),
(374,400,l),
(435,373,o),
(471,322,o),
(471,267,cs),
(471,218,o),
(442,157,o),
(398,120,c)
);
}
);
width = 648;
}
);
metricLeft = a;
metricRight = e;
unicode = 230;
},
{
color = 9;
glyphname = b;
lastChange = "2023-12-12 22:00:30 +0000";
layers = (
{
anchors = (
{
name = bottom;
pos = (243,0);
},
{
name = center;
pos = (243,237);
},
{
name = stroke;
pos = (139,469);
},
{
name = top;
pos = (243,574);
}
);
background = {
shapes = (
{
closed = 1;
nodes = (
(392,0,l),
(433,34,o),
(468,123,o),
(468,218,cs),
(468,280,o),
(443,353,o),
(392,400,c),
(179,400,l),
(179,386,l),
(256,342,o),
(295,279,o),
(295,195,cs),
(295,114,o),
(244,37,o),
(170,12,c),
(170,0,l)
);
},
{
closed = 1;
nodes = (
(210,0,l),
(212,574,l),
(41,574,l),
(39,0,l)
);
}
);
};
guides = (
{
pos = (16,0);
}
);
layerId = m01;
shapes = (
{
closed = 1;
nodes = (
(392,0,l),
(446,51,o),
(468,137,o),
(468,186,cs),
(468,284,o),
(437,363,o),
(392,400,c),
(170,400,l),
(170,388,l),
(223,370,o),
(295,304,o),
(295,205,cs),
(295,122,o),
(260,60,o),
(179,14,c),
(179,0,l)
);
},
{
closed = 1;
nodes = (
(210,0,l),
(210,574,l),
(39,574,l),
(39,0,l)
);
}
);
width = 485;
}
);
unicode = 98;
},
{
color = 11;
glyphname = "beta-latin";
lastChange = "2023-12-12 21:58:21 +0000";
layers = (
{
background = {
shapes = (
{
closed = 1;
nodes = (
(213,-200,l),
(213,554,l),
(40,554,l),
(40,-200,l)
);
}
);
};
layerId = m01;
shapes = (
{
closed = 1;
nodes = (
(213,-200,l),
(213,400,ls),
(213,467,o),
(232,519,o),
(270,554,c),
(110,554,l),
(65,523,o),
(40,472,o),
(40,407,cs),
(40,-200,l)
);
},
{
closed = 1;
nodes = (
(420,0,l),
(455,44,o),
(477,108,o),
(475,160,cs),
(473,222,o),
(440,282,o),
(389,318,c),
(428,337,o),
(452,380,o),
(452,436,cs),
(452,487,o),
(432,529,o),
(396,554,c),
(192,554,l),
(192,531,l),
(255,517,o),
(280,475,o),
(280,431,cs),
(280,389,o),
(241,337,o),
(193,317,c),
(246,292,o),
(303,215,o),
(303,164,cs),
(303,117,o),
(256,51,o),
(202,25,c),
(202,0,l)
);
}
);
width = 496;
}
);
unicode = 42933;
},
{
color = 7;
glyphname = bilabialclick;
lastChange = "2023-12-13 16:12:12 +0000";
layers = (
{
layerId = m01;
shapes = (
{
ref = O;
},
{
closed = 1;
nodes = (
(288,229,o),
(309,250,o),
(309,277,cs),
(309,304,o),
(288,325,o),
(261,325,cs),
(234,325,o),
(213,304,o),
(213,277,cs),
(213,250,o),
(234,229,o),
(261,229,cs)
);
}
);
width = 521;
}
);
unicode = 664;
},
{
color = 11;
glyphname = c;
lastChange = "2023-12-12 21:58:21 +0000";
layers = (
{
anchors = (
{
name = bottom;
pos = (155,0);
},
{
name = top;
pos = (155,400);
}
);
layerId = m01;
shapes = (
{
closed = 1;
nodes = (
(299,0,l),
(235,58,o),
(197,123,o),
(195,200,cs),
(193,278,o),
(228,338,o),
(289,400,c),
(75,400,l),
(39,343,o),
(20,283,o),
(22,202,cs),
(24,116,o),
(49,49,o),
(85,0,c)
);
}
);
width = 288;
}
);
unicode = 99;
},
{
color = 11;
glyphname = d;
lastChange = "2023-12-13 14:37:30 +0000";
layers = (
{
anchors = (
{
name = bottom;
pos = (243,0);
},
{
name = center;
pos = (243,200);
},
{
name = tail;
pos = (446,0);
},
{
name = top;
pos = (243,574);
},
{
name = topright;
pos = (465,830);
}
);
background = {
shapes = (
{
closed = 1;
nodes = (
(446,0,l),
(446,574,l),
(275,574,l),
(275,400,l),
(93,400,l),
(51,359,o),
(21,284,o),
(21,210,cs),
(21,117,o),
(51,42,o),
(93,0,c)
);
},
{
closed = 1;
nodes = (
(221,80,o),
(195,129,o),
(195,210,cs),
(195,264,o),
(219,321,o),
(275,365,c),
(275,34,l)
);
}
);
};
guides = (
{
pos = (361,574);
}
);
layerId = m01;
shapes = (
{
closed = 1;
nodes = (
(306,0,l),
(306,14,l),
(225,60,o),
(190,122,o),
(190,205,cs),
(190,304,o),
(262,370,o),
(315,388,c),
(315,400,l),
(93,400,l),
(48,363,o),
(17,284,o),
(17,186,cs),
(17,137,o),
(39,51,o),
(93,0,c)
);
},
{
closed = 1;
nodes = (
(446,0,l),
(446,574,l),
(275,574,l),
(275,0,l)
);
}
);
width = 485;
}
);
unicode = 100;
},
{
color = 11;
glyphname = dhook;
lastChange = "2023-12-12 21:58:21 +0000";
layers = (
{
anchors = (
{
name = bottom;
pos = (258,0);
},
{
name = tail;
pos = (449,0);
}
);
layerId = m01;
shapes = (
{
closed = 1;
nodes = (
(449,0,l),
(449,366,ls),
(449,428,o),
(472,496,o),
(520,574,c),
(332,574,l),
(299,523,o),
(281,462,o),
(277,400,c),
(98,400,l),
(56,359,o),
(31,283,o),
(31,200,cs),
(31,117,o),
(56,42,o),
(98,0,c)
);
},
{
closed = 1;
nodes = (
(231,79,o),
(204,140,o),
(204,200,cs),
(204,260,o),
(231,320,o),
(276,365,c),
(276,34,l)
);
}
);
width = 552;
}
);
unicode = 599;
},
{
color = 11;
glyphname = e;
lastChange = "2023-12-12 21:58:21 +0000";
layers = (
{
anchors = (
{
name = bottom;
pos = (237,0);
},
{
name = ogonek;
pos = (270,0);
},
{
name = top;
pos = (237,400);
}
);
layerId = m01;
shapes = (
{
closed = 1;
nodes = (
(270,0,l),
(234,49,o),
(206,106,o),
(206,195,cs),
(206,400,l),
(35,400,l),
(35,160,ls),
(35,98,o),
(51,29,o),
(70,0,c)
);
},
{
closed = 1;
nodes = (
(393,119,l),
(430,145,o),
(451,206,o),
(451,256,cs),
(451,310,o),
(437,364,o),
(393,400,c),
(198,400,l),
(198,370,l),
(252,354,o),
(280,303,o),
(280,260,cs),
(280,206,o),
(252,169,o),
(206,149,c),
(206,119,l)
);
}
);
width = 456;
}
);
unicode = 101;
},
{
color = 8;
glyphname = eopen;
lastChange = "2023-12-13 14:37:55 +0000";
layers = (
{
layerId = m01;
shapes = (
{
closed = 1;
nodes = (
(-3,173,o),
(18,63,o),
(91,0,c),
(274,0,l),
(180,59,o),
(142,180,o),
(233,203,c),
(136,235,o),
(196,367,o),
(274,400,c),
(98,400,l),
(19,348,o),
(-1,235,o),
(101,203,c)
);
}
);
width = 294;
}
);
unicode = 603;
},
{
color = 11;
glyphname = esh;
lastChange = "2023-12-12 21:58:21 +0000";
layers = (
{
layerId = m01;
shapes = (
{
closed = 1;
nodes = (
(161,-270,l),
(177,-245,o),
(197,-179,o),
(197,-123,cs),
(197,366,ls),
(197,466,o),
(251,550,o),
(267,574,c),
(60,574,l),
(44,549,o),
(25,483,o),
(25,427,cs),
(25,-62,ls),
(25,-162,o),
(-30,-246,o),
(-46,-270,c)
);
}
);
width = 267;
}
);
unicode = 643;
},
{
color = 11;
glyphname = ezh;
lastChange = "2023-12-12 21:58:21 +0000";
layers = (
{
layerId = m01;
shapes = (
{
closed = 1;
nodes = (
(260,-154,l),
(380,-82,o),
(394,96,o),
(277,168,c),
(360,280,l),
(360,400,l),
(36,400,l),
(36,280,l),
(195,280,l),
(112,168,l),
(113,168,l),
(239,70,o),
(191,-87,o),
(26,-154,c)
);
}
);
width = 361;
}
);
metricRight = z;
unicode = 658;
},
{
color = 11;
glyphname = f;
lastChange = "2023-12-12 21:58:21 +0000";
layers = (
{
anchors = (
{
name = bottom;
pos = (155,0);
},
{
name = top;
pos = (155,574);
}
);
layerId = m01;
shapes = (
{
closed = 1;
nodes = (
(210,0,l),
(210,280,l),
(270,280,l),
(270,400,l),
(210,400,l),
(210,420,ls),
(210,487,o),
(229,539,o),
(267,574,c),
(113,574,l),
(65,543,o),
(39,492,o),
(39,427,cs),
(39,0,l)
);
}
);
width = 280;
}
);
unicode = 102;
},
{
color = 11;
glyphname = g;
lastChange = "2023-12-13 14:43:44 +0000";
layers = (
{
anchors = (
{
name = bottom;
pos = (252,-174);
},
{
name = hook;
pos = (446,400);
},
{
name = shortstroke;
pos = (360,193);
},
{
name = top;
pos = (265,400);
}
);
background = {
shapes = (
{
closed = 1;
nodes = (
(411,-154,l),
(430,-124,o),
(447,-55,o),
(447,-7,cs),
(447,400,l),
(96,400,l),
(55,359,o),
(22,283,o),
(22,202,cs),
(22,116,o),
(55,38,o),
(96,0,c),
(269,0,l),
(258,-55,o),
(235,-109,o),
(204,-154,c)
);
},
{
closed = 1;
nodes = (
(196,260,o),
(228,328,o),
(274,366,c),
(274,54,l),
(273,36,l),
(227,83,o),
(196,141,o),
(196,200,cs)
);
},
{
closed = 1;
nodes = (
(411,-154,l),
(430,-124,o),
(447,-55,o),
(447,-7,cs),
(447,400,l),
(96,400,l),
(55,359,o),
(22,283,o),
(22,202,cs),
(22,116,o),
(55,38,o),
(96,0,c),
(269,0,l),
(258,-55,o),
(235,-109,o),
(204,-154,c)
);
},
{
closed = 1;
nodes = (
(196,260,o),
(228,328,o),
(274,366,c),
(274,54,l),
(273,36,l),
(227,83,o),
(196,141,o),
(196,200,cs)
);
}
);
};
layerId = m01;
shapes = (
{
closed = 1;
nodes = (
(411,-174,l),
(430,-145,o),
(446,-76,o),
(446,-14,cs),
(446,400,l),
(275,400,l),
(275,21,ls),
(275,-68,o),
(247,-125,o),
(211,-174,c)
);
},
{
closed = 1;
nodes = (
(310,0,l),
(310,14,l),
(229,60,o),
(190,122,o),
(190,205,cs),
(190,304,o),
(266,370,o),
(319,388,c),
(319,400,l),
(97,400,l),
(52,363,o),
(17,284,o),
(17,186,cs),
(17,137,o),
(43,51,o),
(97,0,c)
);
}
);
width = 485;
}
);
unicode = 103;
},
{
color = 8;
glyphname = "gamma-latin";
lastChange = "2023-12-13 14:39:42 +0000";
layers = (
{
layerId = m01;
shapes = (
{
closed = 1;
nodes = (
(473,-115,o),
(480,-22,o),
(415,70,cs),
(181,400,l),
(10,400,l),
(279,34,ls),
(358,-74,o),
(344,-108,o),
(216,-174,c),
(396,-174,l)
);
},
{
closed = 1;
nodes = (
(360,-174,l),
(232,-108,o),
(218,-74,o),
(297,34,cs),
(566,400,l),
(395,400,l),
(161,70,ls),
(96,-22,o),
(103,-115,o),
(180,-174,c)
);
}
);
width = 576;
}
);
unicode = 611;
},
{
color = 11;
glyphname = h;
lastChange = "2023-12-12 22:16:56 +0000";
layers = (
{
anchors = (
{
name = bottom;
pos = (246,0);
},
{
name = center;
pos = (246,574);
},
{
name = engpart;
pos = (463,0);
},
{
name = jot;
pos = (125,400);
},
{
name = stroke;
pos = (126,474);
},
{
name = top;
pos = (246,574);
}
);
background = {
shapes = (
{
pos = (3,0);
ref = n;
}
);
};
layerId = m01;
shapes = (
{
closed = 1;
nodes = (
(210,0,l),
(210,366,l),
(262,333,o),
(292,279,o),
(292,189,cs),
(292,0,l),
(463,0,l),
(463,200,ls),
(463,282,o),
(441,358,o),
(405,400,c),
(210,400,l),
(210,574,l),
(39,574,l),
(39,0,l)
);
}
);
width = 494;
}
);
unicode = 104;
},
{
color = 11;
glyphname = hhook;
lastChange = "2023-12-12 21:58:21 +0000";
layers = (
{
anchors = (
{
name = bottom;
pos = (237,0);
},
{
name = center;
pos = (237,574);
},
{
name = engpart;
pos = (454,0);
},
{
name = hook;
pos = (202,324);
},
{
name = jot;
pos = (116,400);
},
{
name = leg;
pos = (176,400);
},
{
name = stroke;
pos = (117,474);
},
{
name = top;
pos = (237,574);
}
);
background = {
shapes = (
{
ref = h;
}
);
};
layerId = m01;
shapes = (
{
closed = 1;
nodes = (
(202,0,l),
(202,366,l),
(202,375,l),
(250,342,o),
(281,279,o),
(281,209,cs),
(281,0,l),
(454,0,l),
(454,200,ls),
(454,282,o),
(432,358,o),
(396,400,c),
(204,400,l),
(211,453,o),
(234,510,o),
(273,574,c),
(85,574,l),
(50,519,o),
(31,454,o),
(30,387,cs),
(30,385,l),
(29,385,l),
(29,0,l)
);
}
);
width = 484;
}
);
unicode = 614;
},
{
color = 11;
glyphname = i;
lastChange = "2023-12-12 21:58:21 +0000";
layers = (
{
guides = (
{
pos = (39,0);
}
);
layerId = m01;
shapes = (
{
closed = 1;
nodes = (
(197,433,l),
(197,503,l),
(24,503,l),
(24,433,l)
);
},
{
ref = idotless;
}
);
width = 221;
}
);
unicode = 105;
},
{
color = 11;
glyphname = idotless;
lastChange = "2023-12-13 14:46:21 +0000";
layers = (
{
anchors = (
{
name = bottom;
pos = (111,0);
},
{
name = ogonek;
pos = (197,0);
},
{
name = shortstroke;
pos = (111,234);
},
{
name = top;
pos = (111,400);
}
);
layerId = m01;
shapes = (
{
closed = 1;
nodes = (
(197,0,l),
(197,400,l),
(24,400,l),
(24,0,l)
);
}
);
width = 221;
}
);
unicode = 305;
},
{
color = 8;
glyphname = "iota-latin";
lastChange = "2023-12-13 14:44:28 +0000";
layers = (
{
layerId = m01;
shapes = (
{
closed = 1;
nodes = (
(273,0,l),
(237,49,o),
(209,106,o),
(209,195,cs),
(209,400,l),
(40,400,l),
(40,160,ls),
(40,98,o),
(56,29,o),
(75,0,c)
);
}
);
width = 303;
}
);
unicode = 617;
},
{
color = 11;
glyphname = j;
lastChange = "2023-12-12 21:58:21 +0000";
layers = (
{
anchors = (
{
name = bottom;
pos = (106,-270);
},
{
name = top;
pos = (141,400);
}
);
background = {
shapes = (
{
closed = 1;
nodes = (
(173,-154,l),
(173,400,l),
(0,400,l),
(0,-154,l)
);
},
{
alignment = -1;
pos = (-29,0);
ref = _part.tittle;
}
);
};
guides = (
{
pos = (-270,440);
}
);
layerId = m01;
shapes = (
{
closed = 1;
nodes = (
(213,433,l),
(213,503,l),
(40,503,l),
(40,433,l)
);
},
{
pos = (16,0);
ref = jdotless;
}
);
width = 237;
}
);
unicode = 106;
},
{
color = 7;
glyphname = jdotless;
lastChange = "2023-12-13 15:44:59 +0000";
layers = (
{
anchors = (
{
name = bottom;
pos = (75,-270);
},
{
name = shortstroke;
pos = (111,234);
},
{
name = top;
pos = (110,400);
}
);
layerId = m01;
shapes = (
{
closed = 1;
nodes = (
(161,-174,l),
(180,-146,o),
(196,-77,o),
(196,-27,cs),
(196,400,l),
(24,400,l),
(24,34,ls),
(24,-28,o),
(-4,-111,o),
(-46,-174,c)
);
}
);
width = 220;
}
);
metricRight = idotless;
unicode = 567;
},
{
color = 11;
glyphname = k;
lastChange = "2023-12-13 14:49:31 +0000";
layers = (
{
anchors = (
{
name = bottom;
pos = (240,0);
},
{
name = shortstroke;
pos = (124,487);
},
{
name = top;
pos = (240,574);
}
);
background = {
shapes = (
{
closed = 1;
nodes = (
(209,0,l),
(209,264,l),
(255,231,o),
(284,185,o),
(284,140,cs),
(284,0,l),
(457,0,l),
(457,140,ls),
(457,198,o),
(424,256,o),
(378,280,c),
(442,400,l),
(269,400,l),
(209,290,l),
(209,574,l),
(37,574,l),
(37,0,l)
);
}
);
};
layerId = m01;
shapes = (
{
closed = 1;
nodes = (
(210,0,l),
(210,222,l),
(258,205,o),
(293,151,o),
(293,87,cs),
(293,0,l),
(464,0,l),
(464,72,ls),
(464,164,o),
(431,221,o),
(377,249,c),
(447,400,l),
(279,400,l),
(210,259,l),
(210,574,l),
(39,574,l),
(39,0,l)
);
}
);
width = 479;
}
);
unicode = 107;
},
{
color = 11;
glyphname = khook;
lastChange = "2023-12-12 21:58:21 +0000";
layers = (
{
anchors = (
{
name = bottom;
pos = (241,0);
},
{
name = bowl;
pos = (175,0);
},
{
name = leg;
pos = (177,400);
},
{
name = top;
pos = (241,574);
}
);
background = {
shapes = (
{
closed = 1;
nodes = (
(203,0,l),
(203,264,l),
(249,231,o),
(278,185,o),
(278,140,cs),
(278,0,l),
(451,0,l),
(451,140,ls),
(451,198,o),
(418,256,o),
(372,280,c),
(436,400,l),
(263,400,l),
(203,290,l),
(203,574,l),
(30,574,l),
(30,0,l)
);
}
);
};
layerId = m01;
shapes = (
{
closed = 1;
nodes = (
(203,0,l),
(203,264,l),
(249,231,o),
(278,185,o),
(278,140,cs),
(278,0,l),
(451,0,l),
(451,140,ls),
(451,198,o),
(418,256,o),
(372,280,c),
(436,400,l),
(263,400,l),
(203,290,l),
(203,366,ls),
(203,428,o),
(226,496,o),
(274,574,c),
(86,574,l),
(51,519,o),
(32,454,o),
(31,387,cs),
(30,324,l),
(30,0,l)
);
}
);
width = 474;
}
);
unicode = 409;
},
{
color = 11;
glyphname = l;
lastChange = "2023-12-13 15:04:32 +0000";
layers = (
{
anchors = (
{
name = belt;
pos = (116,349);
},
{
name = bottom;
pos = (152,0);
},
{
name = bottomshortstroke;
pos = (118,275);
},
{
name = center;
pos = (116,336);
},
{
name = shortstroke;
pos = (3785,257);
},
{
name = top;
pos = (115,574);
},
{
name = topright;
pos = (265,574);
},
{
name = topshortstroke;
pos = (120,382);
}
);
layerId = m01;
shapes = (
{
closed = 1;
nodes = (
(268,0,l),
(232,49,o),
(204,106,o),
(204,195,cs),
(204,573,l),
(35,573,l),
(35,160,ls),
(35,98,o),
(51,29,o),
(70,0,c)
);
}
);
width = 257;
}
);
unicode = 108;
},
{
color = 11;
glyphname = m;
lastChange = "2023-12-12 21:58:21 +0000";
layers = (
{
anchors = (
{
name = bottom;
pos = (355,0);
},
{
name = top;
pos = (355,400);
}
);
background = {
shapes = (
{
closed = 1;
nodes = (
(210,0,l),
(210,366,l),
(237,339,o),
(292,298,o),
(292,185,cs),
(292,0,l),
(458,0,l),
(458,209,ls),
(458,261,o),
(456,299,o),
(427,366,c),
(483,341,o),
(540,299,o),
(540,189,cs),
(540,0,l),
(711,0,l),
(711,216,ls),
(711,299,o),
(673,372,o),
(639,400,c),
(39,400,l),
(39,0,l)
);
}
);
};
layerId = m01;
shapes = (
{
closed = 1;
nodes = (
(210,0,l),
(210,366,l),
(267,317,o),
(292,263,o),
(292,185,cs),
(292,0,l),
(458,0,l),
(458,209,ls),
(458,275,o),
(451,311,o),
(427,366,c),
(504,333,o),
(540,277,o),
(540,189,cs),
(540,0,l),
(711,0,l),
(711,216,ls),
(711,287,o),
(680,366,o),
(639,400,c),
(39,400,l),
(39,0,l)
);
}
);
width = 741;
}
);
unicode = 109;
},
{
color = 11;
glyphname = n;
lastChange = "2023-12-12 21:58:21 +0000";
layers = (
{
anchors = (
{
name = bottom;
pos = (249,0);
},
{
name = engpart;
pos = (463,0);
},
{
name = jot;
pos = (123,400);
},
{
name = top;
pos = (246,400);
}
);
layerId = m01;
shapes = (
{
closed = 1;
nodes = (
(210,0,l),
(210,366,l),
(262,333,o),
(292,279,o),
(292,189,cs),
(292,0,l),
(463,0,l),
(463,200,ls),
(463,282,o),
(441,358,o),
(405,400,c),
(39,400,l),
(39,0,l)
);
}
);
width = 494;
}
);
unicode = 110;
},
{
color = 11;
glyphname = nhookleft;
lastChange = "2023-12-12 21:58:21 +0000";
layers = (
{
anchors = (
{
name = bottom;
pos = (241,0);
},
{
name = engpart;
pos = (456,0);
},
{
name = jot;
pos = (118,400);
},
{
name = leg;
pos = (178,400);
},
{
name = top;
pos = (241,400);
}
);
layerId = m01;
shapes = (
{
closed = 1;
nodes = (
(149,-174,l),
(184,-119,o),
(205,-60,o),
(205,13,cs),
(205,366,l),
(253,333,o),
(283,279,o),
(283,189,cs),
(283,0,l),
(456,0,l),
(456,200,ls),
(456,282,o),
(434,358,o),
(398,400,c),
(32,400,l),
(32,55,ls),
(32,-23,o),
(1,-113,o),
(-39,-174,c)
);
}
);
width = 484;
}
);
unicode = 626;
},
{
color = 11;
glyphname = nlongrightleg;
lastChange = "2023-12-12 21:58:21 +0000";
layers = (
{
anchors = (
{
name = bottom;
pos = (241,0);
},
{
name = engpart;
pos = (456,0);
},
{
name = jot;
pos = (118,400);
},
{
name = leg;
pos = (178,400);
},
{
name = top;
pos = (241,400);
}
);
layerId = m01;
shapes = (
{
closed = 1;
nodes = (
(456,-154,l),
(456,200,ls),
(456,282,o),
(434,358,o),
(398,400,c),
(32,400,l),
(32,0,l),
(205,0,l),
(205,366,l),
(253,333,o),
(283,279,o),
(283,189,cs),
(283,-154,l)
);
}
);
width = 484;
}
);
unicode = 414;
},
{
color = 9;
glyphname = o;
lastChange = "2023-12-13 15:06:05 +0000";
layers = (
{
anchors = (
{
name = bottom;
pos = (259,0);
},
{
name = midstroke;
pos = (245,200);
},
{
name = ogonek;
pos = (440,0);
},
{
name = top;
pos = (257,400);
},
{
name = topright;
pos = (411,400);
}
);
layerId = m01;
shapes = (
{
closed = 1;
nodes = (
(414,0,l),
(458,61,o),
(467,141,o),
(467,200,cs),
(467,257,o),
(458,330,o),
(411,400,c),
(75,400,l),
(33,341,o),
(23,259,o),
(23,200,cs),
(23,145,o),
(32,76,o),
(77,0,c)
);
},
{
closed = 1;
nodes = (
(211,90,o),
(196,140,o),
(196,200,cs),
(196,263,o),
(210,317,o),
(244,366,c),
(277,316,o),
(294,263,o),
(294,200,cs),
(294,138,o),
(279,82,o),
(244,34,c)
);
}
);
width = 490;
}
);
unicode = 111;
},
{
color = 11;
glyphname = oslash;
lastChange = "2023-12-12 21:58:21 +0000";
layers = (
{
anchors = (
{
name = top;
pos = (247,400);
}
);
layerId = m01;
shapes = (
{
closed = 1;
nodes = (
(203,-20,l),
(339,420,l),
(293,420,l),
(157,-20,l)
);
},
{
ref = o;
}
);
width = 494;
}
);
unicode = 248;
},
{
color = 8;
glyphname = ou;
lastChange = "2023-12-13 15:07:04 +0000";
layers = (
{
layerId = m01;
shapes = (
{
closed = 1;
nodes = (
(435,0,l),
(477,46,o),
(496,113,o),
(496,187,cs),
(496,256,o),
(480,313,o),
(434,372,c),
(89,372,l),
(46,323,o),
(26,250,o),
(26,185,cs),
(26,124,o),
(44,60,o),
(90,0,c)
);
},
{
closed = 1;
nodes = (
(221,77,o),
(202,128,o),
(202,184,cs),
(202,242,o),
(222,291,o),
(261,334,c),
(307,289,o),
(321,239,o),
(321,184,cs),
(321,124,o),
(304,75,o),
(267,32,c)
);
},
{
closed = 1;
nodes = (
(435,372,l),
(477,417,o),
(496,484,o),
(496,554,c),
(321,554,l),
(321,496,o),
(304,447,o),
(267,404,c),
(221,449,o),
(202,498,o),
(202,554,c),
(27,554,l),
(27,488,o),
(44,431,o),
(90,372,c)
);
}
);
width = 522;
}
);
unicode = 547;
},
{
color = 11;
glyphname = p;
lastChange = "2023-12-13 15:11:24 +0000";
layers = (
{
anchors = (
{
name = bottom;
pos = (243,0);
},
{
name = stroke;
pos = (245,200);
},
{
name = top;
pos = (243,400);
}
);
background = {
shapes = (
{
closed = 1;
nodes = (
(210,-174,l),
(210,400,l),
(39,400,l),
(39,-174,l)
);
},
{
closed = 1;
nodes = (
(392,0,l),
(437,37,o),
(468,122,o),
(468,213,cs),
(468,269,o),
(446,349,o),
(392,400,c),
(179,400,l),
(179,386,l),
(260,340,o),
(295,281,o),
(295,194,cs),
(295,94,o),
(223,30,o),
(170,12,c),
(170,0,l)
);
}
);
};
layerId = m01;
shapes = (
{
closed = 1;
nodes = (
(392,0,l),
(434,33,o),
(468,122,o),
(468,206,cs),
(468,269,o),
(449,345,o),
(392,400,c),
(179,400,l),
(179,386,l),
(256,343,o),
(295,281,o),
(295,200,cs),
(295,94,o),
(229,34,o),
(170,12,c),
(170,0,l)
);
},
{
closed = 1;
nodes = (
(210,-174,l),
(210,400,l),
(39,400,l),
(39,-174,l)
);
}
);
width = 485;
}
);
unicode = 112;
},
{
color = 11;
glyphname = phook;
lastChange = "2023-12-12 21:58:21 +0000";
layers = (
{
anchors = (
{
name = bottom;
pos = (236,0);
},
{
name = hook;
pos = (203,324);
},
{
name = leg;
pos = (176,0);
},
{
name = top;
pos = (236,400);
}
);
background = {
shapes = (
{
closed = 1;
nodes = (
(30,-154,l),
(203,-154,l),
(203,0,l),
(381,0,l),
(423,41,o),
(448,117,o),
(448,200,cs),
(448,283,o),
(423,358,o),
(381,400,c),
(30,400,l)
);
},
{
closed = 1;
nodes = (
(248,321,o),
(275,260,o),
(275,200,cs),
(275,140,o),
(248,80,o),
(203,35,c),
(203,366,l)
);
}
);
};
layerId = m01;
shapes = (
{
closed = 1;
nodes = (
(203,-154,l),
(203,0,l),
(381,0,l),
(423,41,o),
(448,117,o),
(448,200,cs),
(448,283,o),
(423,358,o),
(381,400,c),
(205,400,l),
(212,453,o),
(235,510,o),
(274,574,c),
(86,574,l),
(51,519,o),
(32,454,o),
(31,387,cs),
(30,-154,l)
);
},
{
closed = 1;
nodes = (
(203,366,l),
(248,321,o),
(275,260,o),
(275,200,cs),
(275,140,o),
(248,80,o),
(203,35,c)
);
}
);
width = 480;
}
);
unicode = 421;
},
{
color = 9;
glyphname = thorn;
lastChange = "2023-12-12 22:17:12 +0000";
layers = (
{
anchors = (
{
name = bottom;
pos = (243,0);
},
{
name = top;
pos = (243,574);
}
);
layerId = m01;
shapes = (
{
closed = 1;
nodes = (
(392,0,l),
(434,33,o),
(468,122,o),
(468,206,cs),
(468,269,o),
(449,345,o),
(392,400,c),
(179,400,l),
(179,386,l),
(256,343,o),
(295,281,o),
(295,200,cs),
(295,94,o),
(229,34,o),
(170,12,c),
(170,0,l)
);
},
{
closed = 1;
nodes = (
(210,-174,l),
(210,574,l),
(39,574,l),
(39,-174,l)
);
}
);
width = 485;
}
);
unicode = 254;
},
{
color = 11;
glyphname = q;
lastChange = "2023-12-12 21:58:21 +0000";
layers = (
{
anchors = (
{
name = bottom;
pos = (240,0);
},
{
name = top;
pos = (240,400);
}
);
background = {
shapes = (
{
closed = 1;
nodes = (
(315,0,l),
(315,12,l),
(262,30,o),
(190,94,o),
(190,194,cs),
(190,281,o),
(225,340,o),
(306,386,c),
(306,400,l),
(93,400,l),
(39,349,o),
(17,269,o),
(17,213,cs),
(17,122,o),
(48,37,o),
(93,0,c)
);
},
{
closed = 1;
nodes = (
(446,-174,l),
(446,400,l),
(275,400,l),
(275,-174,l)
);
}
);
};
layerId = m01;
shapes = (
{
closed = 1;
nodes = (
(315,0,l),
(315,12,l),
(256,34,o),
(190,94,o),
(190,200,cs),
(190,281,o),
(229,343,o),
(306,386,c),
(306,400,l),
(93,400,l),
(36,345,o),
(17,269,o),
(17,206,cs),
(17,122,o),
(51,33,o),
(93,0,c)
);
},
{
closed = 1;
nodes = (
(446,-174,l),
(446,400,l),
(275,400,l),
(275,-174,l)
);
}
);
width = 485;
}
);
unicode = 113;
},
{
color = 11;
glyphname = r;
lastChange = "2023-12-13 15:14:58 +0000";
layers = (
{
anchors = (
{
name = bottom;
pos = (122,0);
},
{
name = shortstroke;
pos = (120,132);
},
{
name = top;
pos = (182,400);
}
);
background = {
shapes = (
{
closed = 1;
nodes = (
(205,0,l),
(205,205,ls),
(205,294,o),
(228,344,o),
(295,400,c),
(91,400,l),
(43,351,o),
(33,302,o),
(33,240,cs),
(33,0,l)
);
}
);
};
layerId = m01;
shapes = (
{
closed = 1;
nodes = (
(205,0,l),
(205,205,ls),
(205,294,o),
(228,344,o),
(295,400,c),
(91,400,l),
(49,357,o),
(33,313,o),
(33,240,cs),
(33,0,l)
);
}
);
width = 279;
}
);
unicode = 114;
},
{
color = 11;
glyphname = rtail;
lastChange = "2023-12-12 21:58:21 +0000";
layers = (
{
anchors = (
{
name = bottom;
pos = (119,0);
},
{
name = tail;
pos = (207,0);
},
{
name = top;
pos = (179,400);
}
);
layerId = m01;
shapes = (
{
closed = 1;
nodes = (
(257,-154,l),
(219,-116,o),
(207,-80,o),
(207,0,cs),
(207,246,ls),
(207,313,o),
(226,365,o),
(264,400,c),
(104,400,l),
(56,369,o),
(30,318,o),
(30,253,cs),
(30,0,ls),
(30,-73,o),
(40,-115,o),
(65,-154,c)
);
}
);
width = 284;
}
);
unicode = 637;
},
{
color = 11;
glyphname = s;
lastChange = "2023-12-12 21:58:21 +0000";
layers = (
{
anchors = (
{
name = bottom;
pos = (133,0);
},
{
name = top;
pos = (133,400);
}
);
background = {
shapes = (
{
closed = 1;
nodes = (
(210,0,l),
(239,38,o),
(248,72,o),
(247,115,cs),
(246,153,o),
(235,178,o),
(215,217,cs),
(200,245,o),
(190,268,o),
(189,297,cs),
(189,337,o),
(206,368,o),
(231,398,c),
(229,400,l),
(55,400,l),
(28,368,o),
(11,325,o),
(13,281,cs),
(14,245,o),
(24,222,o),
(34,201,cs),
(50,171,o),
(69,137,o),
(70,103,cs),
(70,65,o),
(48,27,o),
(26,0,c)
);
}
);
};
layerId = m01;
shapes = (
{
closed = 1;
nodes = (
(210,0,l),
(235,33,o),
(248,72,o),
(248,112,cs),
(248,161,o),
(229,191,o),
(215,217,cs),
(200,244,o),
(188,271,o),
(188,297,cs),
(188,326,o),
(202,364,o),
(231,398,c),
(229,400,l),
(55,400,l),
(26,366,o),
(12,325,o),
(13,281,cs),
(14,245,o),
(24,219,o),
(37,195,cs),
(50,171,o),
(70,143,o),
(70,105,cs),
(70,71,o),
(54,35,o),
(27,2,c),
(29,0,l)
);
}
);
width = 259;
}
);
unicode = 115;
},
{
color = 4;
glyphname = germandbls;
lastChange = "2023-12-12 22:14:17 +0000";
layers = (
{
anchors = (
{
name = bottom;
pos = (330,0);
},
{
name = top;
pos = (330,574);
}
);
layerId = m01;
shapes = (
{
closed = 1;
nodes = (
(450,0,l),
(475,33,o),
(491,86,o),
(491,138,cs),
(491,214,o),
(457,278,o),
(399,309,c),
(440,353,o),
(462,401,o),
(462,447,cs),
(462,500,o),
(432,545,o),
(379,574,c),
(217,574,l),
(278,537,o),
(306,496,o),
(306,444,cs),
(306,395,o),
(281,337,o),
(247,306,c),
(247,300,l),
(284,271,o),
(308,208,o),
(308,141,cs),
(308,91,o),
(295,45,o),
(266,0,c)
);
},
{
closed = 1;
nodes = (
(210,0,l),
(210,420,ls),
(210,496,o),
(224,532,o),
(271,574,c),
(103,574,l),
(62,538,o),
(39,485,o),
(39,427,cs),
(39,0,l)
);
}
);
width = 502;
}
);
metricLeft = f;
metricRight = s;
unicode = 223;
},
{
color = 11;
glyphname = t;
lastChange = "2023-12-12 21:58:21 +0000";
layers = (
{
anchors = (
{
name = bottom;
pos = (169,0);
},
{
name = center;
pos = (126,255);
},
{
name = top;
pos = (122,500);
},
{
name = topright;
pos = (279,502);
}
);
background = {
shapes = (
{
closed = 1;
nodes = (
(280,0,l),
(233,65,o),
(210,156,o),
(210,280,cs),
(210,500,l),
(37,500,l),
(37,200,ls),
(37,118,o),
(53,28,o),
(73,0,c)
);
},
{
closed = 1;
nodes = (
(275,280,l),
(275,400,l),
(-28,400,l),
(-28,280,l)
);
}
);
};
layerId = m01;
shapes = (
{
closed = 1;
nodes = (
(270,0,l),
(234,49,o),
(206,106,o),
(206,195,cs),
(206,280,l),
(266,280,l),
(266,400,l),
(206,400,l),
(206,500,l),
(35,500,l),
(35,160,ls),
(35,98,o),
(51,29,o),
(70,0,c)
);
}
);
width = 280;
}
);
unicode = 116;
},
{
color = 11;
glyphname = thook;
lastChange = "2023-12-12 21:58:21 +0000";
layers = (
{
anchors = (
{
name = bottom;
pos = (164,0);
},
{
name = center;
pos = (164,200);
},
{
name = hook;
pos = (238,324);
},
{
name = top;
pos = (164,400);
},
{
name = topright;
pos = (307,574);
}
);
background = {
shapes = (
{
closed = 1;
nodes = (
(305,0,l),
(259,59,o),
(235,154,o),
(235,270,cs),
(235,280,l),
(314,280,l),
(314,400,l),
(235,400,l),
(235,500,l),
(62,500,l),
(62,400,l),
(11,400,l),
(11,280,l),
(62,280,l),
(62,200,ls),
(62,117,o),
(78,29,o),
(98,0,c)
);
}
);
};
layerId = m01;
shapes = (
{
closed = 1;
nodes = (
(305,0,l),
(259,59,o),
(235,154,o),
(235,270,cs),
(235,280,l),
(314,280,l),
(314,400,l),
(235,400,l),
(62,400,l),
(11,400,l),
(11,280,l),
(62,280,l),
(62,200,ls),
(62,117,o),
(78,29,o),
(98,0,c)
);
},
{
closed = 1;
nodes = (
(235,324,l),
(235,366,ls),
(235,428,o),
(258,496,o),
(306,574,c),
(118,574,l),
(83,519,o),
(64,454,o),
(63,387,cs),
(62,324,l)
);
}
);
width = 327;
}
);
unicode = 429;
},
{
color = 11;
glyphname = u;
lastChange = "2023-12-12 21:58:21 +0000";
layers = (
{
anchors = (
{
name = bottom;
pos = (241,0);
},
{
name = ogonek;
pos = (455,0);
},
{
name = top;
pos = (241,400);
},
{
name = topright;
pos = (455,400);
}
);
background = {
shapes = (
{
closed = 1;
nodes = (
(300,0,l),
(300,26,l),
(248,51,o),
(202,99,o),
(202,211,cs),
(202,400,l),
(31,400,l),
(31,200,ls),
(31,118,o),
(53,42,o),
(89,0,c)
);
},
{
closed = 1;
nodes = (
(455,0,l),
(455,400,l),
(284,400,l),
(284,0,l)
);
}
);
};
layerId = m01;
shapes = (
{
closed = 1;
nodes = (
(300,0,l),
(300,26,l),
(248,51,o),
(202,99,o),
(202,211,cs),
(202,400,l),
(31,400,l),
(31,200,ls),
(31,118,o),
(53,42,o),
(89,0,c)
);
},
{
closed = 1;
nodes = (
(455,0,l),
(455,400,l),
(284,400,l),
(284,0,l)
);
}
);
width = 494;
}
);
unicode = 117;
},
{
color = 11;
glyphname = v;
lastChange = "2023-12-12 21:58:21 +0000";
layers = (
{
anchors = (
{
name = bottom;
pos = (243,0);
},
{
name = top;
pos = (243,400);
}
);
background = {
shapes = (
{
closed = 1;
nodes = (
(405,0,l),
(437,56,o),
(452,102,o),
(452,200,cs),
(452,400,l),
(281,400,l),
(281,200,ls),
(281,119,o),
(256,76,o),
(220,30,c),
(194,400,l),
(23,400,l),
(51,0,l)
);
}
);
};
layerId = m01;
shapes = (
{
closed = 1;
nodes = (
(405,0,l),
(441,62,o),
(452,111,o),
(452,200,cs),
(452,400,l),
(281,400,l),
(281,200,ls),
(281,132,o),
(265,87,o),
(220,30,c),
(194,400,l),
(23,400,l),
(51,0,l)
);
}
);
width = 485;
}
);
unicode = 118;
},
{
color = 11;
glyphname = vhook;
lastChange = "2023-12-12 21:58:21 +0000";
layers = (
{
anchors = (
{
name = bottom;
pos = (238,0);
},
{
name = leg;
pos = (194,0);
}
);
layerId = m01;
shapes = (
{
closed = 1;
nodes = (
(405,0,l),
(440,61,o),
(462,149,o),
(462,230,cs),
(462,294,o),
(444,356,o),
(412,400,c),
(224,400,l),
(265,362,o),
(289,299,o),
(289,230,cs),
(289,156,o),
(266,91,o),
(218,30,c),
(187,400,l),
(14,400,l),
(47,0,l)
);
}
);
width = 476;
}
);
unicode = 651;
},
{
color = 11;
glyphname = w;
lastChange = "2023-12-12 21:58:21 +0000";
layers = (
{
anchors = (
{
name = bottom;
pos = (357,0);
},
{
name = top;
pos = (357,400);
}
);
background = {
shapes = (
{
closed = 1;
nodes = (
(634,0,l),
(667,56,o),
(688,85,o),
(690,200,cs),
(694,400,l),
(523,400,l),
(519,200,ls),
(517,100,o),
(477,55,o),
(420,32,c),
(435,80,o),
(442,115,o),
(442,200,cs),
(442,400,l),
(277,400,l),
(277,200,ls),
(279,129,o),
(255,63,o),
(218,32,c),
(188,400,l),
(17,400,l),
(47,0,l)
);
}
);
};
layerId = m01;
shapes = (
{
closed = 1;
nodes = (
(675,59,o),
(688,110,o),
(690,200,cs),
(694,400,l),
(523,400,l),
(519,200,ls),
(517,112,o),
(486,59,o),
(420,32,c),
(437,87,o),
(442,124,o),
(442,200,cs),
(442,400,l),
(277,400,l),
(277,200,ls),
(279,130,o),
(256,63,o),
(218,32,c),
(188,400,l),
(17,400,l),
(47,0,l),
(624,-1,l)
);
}
);
width = 725;
}
);
unicode = 119;
},
{
color = 11;
glyphname = x;
lastChange = "2023-12-12 21:58:21 +0000";
layers = (
{
background = {
shapes = (
{
closed = 1;
nodes = (
(444,0,l),
(439,100,o),
(400,164,o),
(308,222,cs),
(208,285,o),
(190,312,o),
(186,400,c),
(12,400,l),
(17,281,o),
(54,224,o),
(163,164,cs),
(236,124,o),
(266,77,o),
(268,0,c)
);
},
{
closed = 1;
nodes = (
(169,0,l),
(238,185,l),
(72,184,l),
(3,-1,l)
);
},
{
closed = 1;
nodes = (
(374,222,l),
(430,399,l),
(266,400,l),
(210,222,l)
);
}
);
};
layerId = m01;
shapes = (
{
closed = 1;
nodes = (
(444,0,l),
(432,120,o),
(397,168,o),
(283,231,cs),
(219,266,o),
(190,309,o),
(186,400,c),
(12,400,l),
(17,283,o),
(56,229,o),
(167,168,cs),
(238,129,o),
(266,79,o),
(268,0,c)
);
},
{
closed = 1;
nodes = (
(165,0,l),
(234,185,l),
(68,184,l),
(-1,-1,l)
);
},
{
closed = 1;
nodes = (
(378,222,l),
(434,399,l),
(270,400,l),
(214,222,l)
);
}
);
width = 446;
}
);
unicode = 120;
},
{
color = 11;
glyphname = y;
lastChange = "2023-12-12 21:58:21 +0000";
layers = (
{
anchors = (
{
name = bottom;
pos = (334,-270);
},
{
name = top;
pos = (369,400);
}
);
background = {
shapes = (
{
closed = 1;
nodes = (
(35,400,l),
(35,200,ls),
(35,118,o),
(57,42,o),
(93,0,c),
(307,0,l),
(247,45,o),
(208,123,o),
(208,200,cs),
(208,400,l)
);
},
{
closed = 1;
nodes = (
(418,-154,l),
(434,-129,o),
(454,-63,o),
(454,-7,c),
(454,400,l),
(281,400,l),
(281,54,l),
(281,-46,o),
(227,-130,o),
(211,-154,c)
);
}
);
};
layerId = m01;
shapes = (
{
closed = 1;
nodes = (
(419,-174,l),
(438,-145,o),
(454,-76,o),
(454,-14,cs),
(454,400,l),
(283,400,l),
(283,21,ls),
(283,-68,o),
(255,-125,o),
(219,-174,c)
);
},
{
closed = 1;
nodes = (
(304,0,l),
(304,26,l),
(252,51,o),
(202,99,o),
(202,211,cs),
(202,400,l),
(31,400,l),
(31,200,ls),
(31,118,o),
(53,42,o),
(89,0,c)
);
}
);
width = 493;
}
);
unicode = 121;
},
{
color = 11;
glyphname = z;
lastChange = "2023-12-12 21:58:21 +0000";
layers = (
{
anchors = (
{
name = bottom;
pos = (189,0);
},
{
name = center;
pos = (189,200);
},
{
name = top;
pos = (189,400);
}
);
background = {
shapes = (
{
closed = 1;
nodes = (
(350,0,l),
(382,120,l),
(218,120,l),
(218,0,l)
);
},
{
closed = 1;
nodes = (
(248,280,l),
(248,400,l),
(27,400,l),
(-5,280,l)
);
},
{
closed = 1;
nodes = (
(-4,0,l),
(177,0,l),
(365,400,l),
(184,400,l)
);
}
);
};
layerId = m01;
shapes = (
{
closed = 1;
nodes = (
(182,0,l),
(370,399,l),
(197,399,l),
(1,0,l)
);
},
{
closed = 1;
nodes = (
(343,0,l),
(387,120,l),
(123,120,l),
(123,0,l)
);
},
{
closed = 1;
nodes = (
(253,279,l),
(253,399,l),
(52,399,l),
(8,279,l)
);
}
);
width = 388;
}
);
unicode = 122;
},
{
color = 11;
glyphname = a.ss01;
lastChange = "2023-12-12 21:58:21 +0000";
layers = (
{
anchors = (
{
name = bottom;
pos = (254,0);
},
{
name = center;
pos = (348,251);
},
{
name = hook;
pos = (445,324);
},
{
name = stroke;
pos = (359,485);
},
{
name = tail;
pos = (445,0);
},
{
name = top;
pos = (241,574);
},
{
name = topright;
pos = (444,574);
}
);
layerId = m01;
shapes = (
{
closed = 1;
nodes = (
(445,0,l),
(445,400,l),
(90,400,l),
(48,359,o),
(23,284,o),
(23,200,cs),
(23,117,o),
(48,42,o),
(90,0,c)
);
},
{
closed = 1;
nodes = (
(218,80,o),
(195,129,o),
(195,200,cs),
(195,264,o),
(216,309,o),
(272,365,c),
(272,34,l)
);
}
);
width = 476;
}
);
metricLeft = o;
metricRight = h;
},
{
color = 11;
glyphname = f.ss01;
lastChange = "2023-12-12 21:58:21 +0000";
layers = (
{
layerId = m01;
shapes = (
{
closed = 1;
nodes = (
(210,0,l),
(210,420,ls),
(210,487,o),
(229,539,o),
(267,574,c),
(113,574,l),
(65,543,o),
(39,492,o),
(39,427,cs),
(39,0,l)
);
},
{
closed = 1;
nodes = (
(258,280,l),
(291,400,l),
(193,400,l),
(193,280,l)
);
}
);
width = 280;
}
);
},
{
color = 11;
glyphname = g.ss01;
lastChange = "2023-12-12 21:58:21 +0000";
layers = (
{
layerId = m01;
shapes = (
{
closed = 1;
nodes = (
(408,-174,l),
(427,-145,o),
(443,-76,o),
(443,-14,cs),
(443,400,l),
(271,400,l),
(271,21,ls),
(271,-68,o),
(243,-125,o),
(207,-174,c)
);
},
{
closed = 1;
nodes = (
(306,0,l),
(306,14,l),
(225,60,o),
(190,122,o),
(190,205,cs),
(190,304,o),
(262,370,o),
(315,388,c),
(315,400,l),
(93,400,l),
(48,363,o),
(17,284,o),
(17,186,cs),
(17,137,o),
(39,51,o),
(93,0,c)
);
}
);
width = 482;
}
);
},
{
color = 11;
glyphname = r.ss01;
lastChange = "2023-12-12 21:58:21 +0000";
layers = (
{
layerId = m01;
shapes = (
{
closed = 1;
nodes = (
(203,0,l),
(203,231,l),
(203,301,o),
(223,356,o),
(290,400,c),
(94,400,l),
(42,367,o),
(30,320,o),
(30,224,cs),
(30,0,l)
);
}
);
width = 290;
}
);
},
{
color = 11;
glyphname = t.ss01;
kernRight = t;
lastChange = "2023-12-12 21:58:21 +0000";
layers = (
{
anchors = (
{
name = bottom;
pos = (143,0);
},
{
name = center;
pos = (143,200);
},
{
name = top;
pos = (143,400);
},
{
name = topright;
pos = (266,574);
}
);
layerId = m01;
shapes = (
{
closed = 1;
nodes = (
(270,0,l),
(234,49,o),
(206,106,o),
(206,195,cs),
(206,500,l),
(35,500,l),
(35,160,ls),
(35,98,o),
(51,29,o),
(70,0,c)
);
},
{
closed = 1;
nodes = (
(254,280,l),
(287,400,l),
(189,400,l),
(189,280,l)
);
}
);
width = 276;
}
);
},
{
color = 11;
glyphname = v.ss01;
lastChange = "2023-12-12 21:58:21 +0000";
layers = (
{
anchors = (
{
name = bottom;
pos = (238,0);
},
{
name = top;
pos = (238,400);
}
);
background = {
shapes = (
{
closed = 1;
nodes = (
(220,0,l),
(187,400,l),
(14,400,l),
(47,0,l)
);
},
{
closed = 1;
nodes = (
(279,200,ls),
(279,122,o),
(249,51,o),
(194,0,c),
(405,0,l),
(436,48,o),
(452,116,o),
(452,200,cs),
(452,400,l),
(279,400,l)
);
}
);
};
layerId = m01;
shapes = (
{
closed = 1;
nodes = (
(405,0,l),
(436,48,o),
(452,116,o),
(452,200,cs),
(452,400,l),
(279,400,l),
(279,200,ls),
(279,118,o),
(245,38,o),
(194,0,c)
);
},
{
closed = 1;
nodes = (
(220,0,l),
(187,400,l),
(14,400,l),
(47,0,l)
);
}
);
width = 476;
}
);
},
{
color = 11;
glyphname = w.ss01;
lastChange = "2023-12-12 21:58:21 +0000";
layers = (
{
anchors = (
{
name = bottom;
pos = (342,0);
},
{
name = top;
pos = (342,400);
}
);
background = {
shapes = (
{
closed = 1;
nodes = (
(255,400,o),
(255,330,o),
(255,200,cs),
(255,70,o),
(170,0,o),
(170,0,c),
(381,0,l),
(381,0,o),
(428,60,o),
(428,200,c),
(428,400,l),
(255,400,l)
);
},
{
closed = 1;
nodes = (
(197,0,l),
(197,400,l),
(24,400,l),
(24,0,l)
);
},
{
closed = 1;
nodes = (
(486,400,o),
(486,330,o),
(486,200,cs),
(486,70,o),
(363,0,o),
(363,0,c),
(588,0,l),
(588,0,o),
(659,60,o),
(659,200,c),
(659,400,l),
(486,400,l)
);
}
);
};
layerId = m01;
shapes = (
{
closed = 1;
nodes = (
(588,0,l),
(588,0,o),
(659,60,o),
(659,200,c),
(659,400,l),
(486,400,l),
(486,400,o),
(486,330,o),
(486,200,cs),
(486,125,o),
(436,44,o),
(363,0,c)
);
},
{
closed = 1;
nodes = (
(197,0,l),
(197,400,l),
(24,400,l),
(24,0,l)
);
},
{
closed = 1;
nodes = (
(381,0,l),
(410,42,o),
(428,118,o),
(428,200,c),
(428,400,l),
(255,400,l),
(255,400,o),
(255,330,o),
(255,200,cs),
(255,110,o),
(221,29,o),
(170,0,c)
);
}
);
width = 683;
}
);
},
{
color = 11;
glyphname = x.ss01;
lastChange = "2023-12-12 21:58:21 +0000";
layers = (
{
layerId = m01;
shapes = (
{
closed = 1;
nodes = (
(170,0,l),
(231,139,l),
(256,107,o),
(272,68,o),
(272,20,cs),
(272,8,o),
(271,0,o),
(271,0,c),
(447,0,l),
(447,102,o),
(405,165,o),
(352,209,c),
(422,400,l),
(252,400,l),
(211,267,l),
(189,291,o),
(179,328,o),
(179,363,cs),
(179,374,o),
(180,387,o),
(182,400,c),
(10,399,l),
(5,324,o),
(33,240,o),
(85,193,c),
(-4,-1,l)
);
}
);
width = 441;
}
);
},
{
color = 11;
glyphname = z.ss01;
lastChange = "2023-12-12 21:58:21 +0000";
layers = (
{
anchors = (
{
name = bottom;
pos = (197,0);
},
{
name = top;
pos = (197,400);
}
);
background = {
anchors = (
{
name = bottom;
pos = (197,0);
},
{
name = top;
pos = (197,400);
}
);
};
layerId = m01;
shapes = (
{
closed = 1;
nodes = (
(357,1,l),
(284,88,o),
(249,130,o),
(229,158,c),
(364,258,l),
(341,292,o),
(293,349,o),
(249,400,c),
(30,400,l),
(84,328,o),
(124,282,o),
(152,246,c),
(8,140,l),
(41,91,o),
(73,52,o),
(119,0,c)
);
}
);
width = 374;
}
);
},
{
color = 11;
glyphname = r.ss02;
lastChange = "2023-12-12 21:58:21 +0000";
layers = (
{
layerId = m01;
shapes = (
{
closed = 1;
nodes = (
(205,0,l),
(205,400,l),
(32,400,l),
(32,0,l)
);
},
{
closed = 1;
nodes = (
(426,185,l),
(426,224,ls),
(426,314,o),
(409,360,o),
(361,400,c),
(166,400,l),
(233,347,o),
(255,303,o),
(255,225,cs),
(255,185,l)
);
}
);
width = 452;
}
);
},
{
color = 11;
glyphname = b.ss03;
lastChange = "2023-12-12 21:58:21 +0000";
layers = (
{
layerId = m01;
shapes = (
{
closed = 1;
nodes = (
(392,0,l),
(446,51,o),
(468,137,o),
(468,186,cs),
(468,284,o),
(437,363,o),
(392,400,c),
(170,400,l),
(170,388,l),
(223,370,o),
(295,304,o),
(295,205,cs),
(295,122,o),
(260,60,o),
(179,14,c),
(179,0,l)
);
},
{
closed = 1;
nodes = (
(210,0,l),
(210,574,l),
(39,574,l),
(39,0,l)
);
}
);
width = 485;
}
);
},
{
color = 11;
glyphname = g.ss03;
lastChange = "2023-12-12 21:58:21 +0000";
layers = (
{
layerId = m01;
shapes = (
{
closed = 1;
nodes = (
(407,-174,l),
(426,-145,o),
(442,-76,o),
(442,-14,cs),
(442,400,l),
(271,400,l),
(271,21,ls),
(271,-68,o),
(243,-125,o),
(207,-174,c)
);
},
{
closed = 1;
nodes = (
(306,0,l),
(306,14,l),
(225,60,o),
(186,122,o),
(186,205,cs),
(186,304,o),
(262,370,o),
(315,388,c),
(315,400,l),
(93,400,l),
(48,363,o),
(13,284,o),
(13,186,cs),
(13,137,o),
(39,51,o),
(93,0,c)
);
}
);
width = 481;
}
);
},
{
color = 11;
glyphname = q.ss03;
lastChange = "2023-12-12 21:58:21 +0000";
layers = (
{
layerId = m01;
shapes = (
{
closed = 1;
nodes = (
(315,0,l),
(315,12,l),
(262,30,o),
(190,94,o),
(190,194,cs),
(190,281,o),
(225,340,o),
(306,386,c),
(306,400,l),
(93,400,l),
(39,349,o),
(17,269,o),
(17,213,cs),
(17,122,o),
(48,37,o),
(93,0,c)
);
},
{
closed = 1;
nodes = (
(446,-174,l),
(446,400,l),
(275,400,l),
(275,-174,l)
);
}
);
width = 485;
}
);
},
{
color = 11;
glyphname = o.ss10;
lastChange = "2023-12-12 21:58:21 +0000";
layers = (
{
layerId = m01;
shapes = (
{
closed = 1;
nodes = (
(414,0,l),
(458,61,o),
(467,141,o),
(467,200,cs),
(467,257,o),
(458,330,o),
(411,400,c),
(75,400,l),
(33,341,o),
(23,259,o),
(23,200,cs),
(23,145,o),
(32,76,o),
(77,0,c)
);
},
{
closed = 1;
nodes = (
(211,91,o),
(196,141,o),
(196,200,cs),
(196,262,o),
(209,315,o),
(242,363,c),
(246,363,l),
(278,314,o),
(294,262,o),
(294,200,cs),
(294,139,o),
(279,84,o),
(245,36,c),
(243,36,l)
);
}
);
width = 490;
}
);
metricLeft = o;
metricRight = o;
},
{
color = 9;
glyphname = lambda;
lastChange = "2023-12-13 14:52:46 +0000";
layers = (
{
anchors = (
{
name = center;
pos = (259,483);
}
);
layerId = m01;
shapes = (
{
closed = 1;
nodes = (
(343,515,o),
(319,550,o),
(281,574,c),
(75,574,l),
(143,533,o),
(166,509,o),
(197,430,cs),
(296,174,ls),
(323,104,o),
(366,24,o),
(404,0,c),
(610,0,l),
(542,41,o),
(495,128,o),
(446,254,cs),
(380,421,ls)
);
},
{
closed = 1;
nodes = (
(205,0,l),
(383,400,l),
(208,400,l),
(30,0,l)
);
}
);
width = 600;
}
);
unicode = 955;
},
{
color = 8;
glyphname = pi;
lastChange = "2023-12-13 15:17:17 +0000";
layers = (
{
layerId = m01;
shapes = (
{
closed = 1;
nodes = (
(10,300,l),
(484,300,l),
(484,400,l),
(10,400,l)
);
},
{
closed = 1;
nodes = (
(90,400,l),
(90,0,l),
(210,0,l),
(210,400,l)
);
},
{
closed = 1;
nodes = (
(456,0,l),
(424,43,o),
(410,86,o),
(410,139,cs),
(410,400,l),
(290,400,l),
(290,114,ls),
(290,71,o),
(301,21,o),
(315,0,c)
);
}
);
width = 494;
}
);
unicode = 960;
},
{
color = 11;
glyphname = zero;
lastChange = "2023-12-12 21:58:21 +0000";
layers = (
{
background = {
shapes = (
{
closed = 1;
nodes = (
(452,41,o),
(471,179,o),
(471,275,cs),
(471,371,o),
(452,508,o),
(423,552,c),
(228,554,l),
(272,515,o),
(298,384,o),
(298,277,cs),
(298,170,o),
(272,38,o),
(228,0,c),
(423,-2,l)
);
},
{
closed = 1;
nodes = (
(264,0,l),
(220,38,o),
(194,170,o),
(194,277,cs),
(194,384,o),
(220,515,o),
(264,554,c),
(69,553,l),
(40,509,o),
(21,372,o),
(21,276,cs),
(21,180,o),
(40,42,o),
(69,-1,c)
);
}
);
};
layerId = m01;
shapes = (
{
closed = 1;
nodes = (
(419,0,l),
(445,36,o),
(467,164,o),
(467,275,cs),
(467,385,o),
(445,514,o),
(419,554,c),
(73,554,l),
(47,515,o),
(25,386,o),
(25,276,cs),
(25,166,o),
(47,37,o),
(73,0,c)
);
},
{
closed = 1;
nodes = (
(215,86,o),
(194,181,o),
(194,277,cs),
(194,373,o),
(215,470,o),
(246,522,c),
(277,470,o),
(298,373,o),
(298,277,cs),
(298,181,o),
(277,86,o),
(246,34,c)
);
}
);
width = 492;
}
);
unicode = 48;
},
{
color = 11;
glyphname = one;
lastChange = "2023-12-12 21:58:21 +0000";
layers = (
{
layerId = m01;
shapes = (
{
closed = 1;
nodes = (
(211,0,l),
(211,554,l),
(77,554,l),
(52,506,o),
(40,448,o),
(40,367,cs),
(40,0,l)
);
}
);
width = 262;
}
);
unicode = 49;
},
{
color = 11;
glyphname = two;
lastChange = "2023-12-12 21:58:21 +0000";
layers = (
{
background = {
shapes = (
{
closed = 1;
nodes = (
(202,378,l),
(202,554,l),
(31,554,l),
(31,378,l)
);
},
{
closed = 1;
nodes = (
(204,-1,l),
(378,277,ls),
(465,416,o),
(415,510,o),
(364,553,c),
(171,554,l),
(171,522,l),
(246,522,o),
(282,441,o),
(227,351,cs),
(12,-2,l)
);
},
{
closed = 1;
nodes = (
(434,-4,l),
(434,116,l),
(192,120,l),
(192,0,l)
);
}
);
};
layerId = m01;
shapes = (
{
closed = 1;
nodes = (
(438,0,l),
(438,120,l),
(276,120,l),
(311,168,o),
(331,195,o),
(355,232,cs),
(386,277,o),
(431,361,o),
(431,420,cs),
(431,481,o),
(410,525,o),
(367,553,c),
(169,554,l),
(169,533,l),
(229,525,o),
(257,497,o),
(260,442,cs),
(263,397,o),
(246,359,o),
(203,293,cs),
(13,0,l)
);
},
{
closed = 1;
nodes = (
(186,376,l),
(186,411,ls),
(186,485,o),
(208,524,o),
(253,526,c),
(253,554,l),
(87,554,l),
(45,525,o),
(24,477,o),
(24,409,cs),
(24,376,l)
);
}
);
width = 463;
}
);
unicode = 50;
},
{
color = 11;
glyphname = three;
lastChange = "2023-12-12 21:58:21 +0000";
layers = (
{
background = {
shapes = (
{
pos = (-12,0);
ref = two;
}
);
};
layerId = m01;
shapes = (
{
closed = 1;
nodes = (
(302,0,l),
(375,68,o),
(414,145,o),
(414,223,cs),
(414,269,o),
(402,301,o),
(372,336,c),
(157,336,l),
(216,295,o),
(229,276,o),
(229,233,cs),
(229,166,o),
(161,73,o),
(58,0,c)
);
},
{
closed = 1;
nodes = (
(244,434,l),
(247,554,l),
(5,554,l),
(5,434,l)
);
},
{
closed = 1;
nodes = (
(249,299,l),
(408,554,l),
(214,554,l),
(66,299,l)
);
}
);
width = 431;
}
);
unicode = 51;
},
{
color = 11;
glyphname = four;
lastChange = "2023-12-12 21:58:21 +0000";
layers = (
{
background = {
shapes = (
{
closed = 1;
nodes = (
(247,434,l),
(247,0,l),
(418,0,l),
(418,434,l)
);
},
{
closed = 1;
nodes = (
(284,165,l),
(214,196,o),
(179,279,o),
(179,347,cs),
(179,427,o),
(206,498,o),
(257,554,c),
(55,554,l),
(28,511,o),
(9,435,o),
(9,366,cs),
(9,288,o),
(33,196,o),
(65,153,c),
(284,153,l)
);
}
);
};
layerId = m01;
shapes = (
{
closed = 1;
nodes = (
(293,154,l),
(293,168,l),
(236,194,o),
(184,279,o),
(184,347,cs),
(184,429,o),
(209,496,o),
(283,554,c),
(81,554,l),
(43,509,o),
(18,429,o),
(18,355,cs),
(18,278,o),
(47,194,o),
(87,154,c)
);
},
{
closed = 1;
nodes = (
(428,0,l),
(428,434,l),
(260,434,l),
(260,0,l)
);
}
);
width = 469;
}
);
unicode = 52;
},
{
color = 11;
glyphname = five;
lastChange = "2023-12-12 21:58:21 +0000";
layers = (
{
layerId = m01;
shapes = (
{
closed = 1;
nodes = (
(310,0,l),
(379,54,o),
(428,139,o),
(428,207,cs),
(428,254,o),
(404,315,o),
(372,346,c),
(153,346,l),
(153,326,l),
(208,304,o),
(238,272,o),
(238,228,cs),
(238,167,o),
(181,90,o),
(64,2,c),
(65,0,l)
);
},
{
closed = 1;
nodes = (
(191,309,l),
(191,554,l),
(20,554,l),
(20,309,l)
);
},
{
closed = 1;
nodes = (
(391,434,l),
(391,554,l),
(107,554,l),
(107,434,l)
);
}
);
width = 445;
}
);
unicode = 53;
},
{
color = 11;
glyphname = six;
lastChange = "2023-12-12 21:58:21 +0000";
layers = (
{
layerId = m01;
shapes = (
{
closed = 1;
nodes = (
(283,0,l),
(249,31,o),
(205,106,o),
(205,209,cs),
(205,351,o),
(289,492,o),
(349,553,c),
(130,553,l),
(88,488,o),
(35,365,o),
(27,231,cs),
(20,115,o),
(49,31,o),
(75,0,c)
);
},
{
closed = 1;
nodes = (
(411,0,l),
(430,22,o),
(456,86,o),
(456,169,cs),
(456,251,o),
(431,316,o),
(412,346,c),
(198,346,l),
(199,325,l),
(256,300,o),
(283,222,o),
(283,157,cs),
(283,77,o),
(243,25,o),
(207,0,c)
);
}
);
width = 466;
}
);
unicode = 54;
},
{
color = 11;
glyphname = seven;
lastChange = "2023-12-12 21:58:21 +0000";
layers = (
{
background = {
shapes = (
{
closed = 1;
nodes = (
(256,0,l),
(282,40,o),
(375,247,o),
(375,434,cs),
(375,554,l),
(202,554,l),
(203,434,ls),
(205,235,o),
(76,40,o),
(49,0,c)
);
},
{
closed = 1;
nodes = (
(375,434,l),
(375,554,l),
(-10,554,l),
(-10,434,l)
);
}
);
};
layerId = m01;
shapes = (
{
closed = 1;
nodes = (
(278,0,l),
(324,83,o),
(384,261,o),
(384,447,cs),
(384,476,o),
(383,523,o),
(381,554,c),
(0,554,l),
(0,434,l),
(210,434,l),
(206,238,o),
(126,71,o),
(66,0,c)
);
}
);
width = 411;
}
);
unicode = 55;
},
{
color = 11;
glyphname = eight;
lastChange = "2023-12-12 21:58:21 +0000";
layers = (
{
anchors = (
{
name = oconnect;
pos = (212,0);
}
);
background = {
shapes = (
{
closed = 1;
nodes = (
(450,-1,l),
(483,44,o),
(489,88,o),
(489,118,cs),
(488,184,o),
(456,237,o),
(390,287,cs),
(375,298,o),
(341,315,o),
(307,337,cs),
(263,365,o),
(220,402,o),
(219,443,cs),
(218,523,o),
(308,548,o),
(315,554,c),
(76,554,l),
(76,554,o),
(40,517,o),
(41,444,cs),
(42,373,o),
(92,316,o),
(165,268,cs),
(205,241,o),
(294,198,o),
(295,123,cs),
(296,57,o),
(254,20,o),
(231,-1,c)
);
},
{
closed = 1;
nodes = (
(275,20,o),
(214,41,o),
(213,134,cs),
(212,179,o),
(226,230,o),
(239,254,c),
(54,254,l),
(45,234,o),
(31,176,o),
(32,134,cs),
(33,67,o),
(51,28,o),
(72,0,c),
(310,-1,l)
);
},
{
closed = 1;
nodes = (
(426,326,l),
(442,357,o),
(447,400,o),
(447,432,cs),
(446,521,o),
(403,554,o),
(403,554,c),
(192,554,l),
(220,554,o),
(289,521,o),
(290,435,cs),
(290,392,o),
(275,364,o),
(245,326,c)
);
}
);
};
layerId = m01;
shapes = (
{
closed = 1;
nodes = (
(433,-1,l),
(466,44,o),
(473,88,o),
(473,118,cs),
(473,184,o),
(445,242,o),
(389,278,cs),
(337,312,o),
(210,370,o),
(210,443,cs),
(210,523,o),
(300,548,o),
(307,554,c),
(78,554,l),
(78,554,o),
(42,517,o),
(42,444,cs),
(42,373,o),
(85,313,o),
(161,268,cs),
(203,243,o),
(289,198,o),
(289,123,cs),
(289,57,o),
(247,20,o),
(224,-1,c)
);
},
{
closed = 1;
nodes = (
(263,20,o),
(202,41,o),
(202,134,cs),
(202,179,o),
(217,230,o),
(230,254,c),
(50,254,l),
(41,234,o),
(26,176,o),
(26,134,cs),
(26,67,o),
(44,28,o),
(65,0,c),
(298,-1,l)
);
},
{
closed = 1;
nodes = (
(415,326,l),
(431,357,o),
(438,400,o),
(438,432,cs),
(438,521,o),
(395,554,o),
(395,554,c),
(184,554,l),
(212,554,o),
(281,521,o),
(281,435,cs),
(281,392,o),
(265,364,o),
(234,326,c)
);
}
);
width = 496;
}
);
unicode = 56;
},
{
color = 11;
glyphname = nine;
lastChange = "2023-12-12 21:58:21 +0000";
layers = (
{
background = {
shapes = (
{
closed = 1;
nodes = (
(357,0,l),
(357,0,o),
(415,169,o),
(422,330,cs),
(428,472,o),
(392,554,o),
(392,554,c),
(193,554,l),
(193,554,o),
(251,460,o),
(251,338,cs),
(251,175,o),
(147,0,o),
(147,0,c)
);
},
{
closed = 1;
nodes = (
(246,154,l),
(246,154,o),
(173,220,o),
(173,359,cs),
(173,481,o),
(229,554,o),
(229,554,c),
(30,554,l),
(30,554,o),
(5,487,o),
(5,365,cs),
(5,207,o),
(47,154,o),
(47,154,c)
);
}
);
};
layerId = m01;
shapes = (
{
closed = 1;
nodes = (
(326,0,l),
(368,65,o),
(421,188,o),
(429,322,cs),
(436,442,o),
(405,525,o),
(381,554,c),
(178,554,l),
(212,522,o),
(256,447,o),
(256,344,cs),
(256,201,o),
(172,61,o),
(112,0,c)
);
},
{
closed = 1;
nodes = (
(263,206,l),
(262,227,l),
(205,252,o),
(178,330,o),
(178,395,cs),
(178,475,o),
(218,529,o),
(254,554,c),
(55,554,l),
(36,532,o),
(10,466,o),
(10,383,cs),
(10,301,o),
(35,236,o),
(54,206,c)
);
}
);
width = 452;
}
);
unicode = 57;
},
{
color = 11;
glyphname = zero.osf;
lastChange = "2023-12-12 21:58:21 +0000";
layers = (
{
anchors = (
{
name = bottom;
pos = (265,0);
},
{
name = center;
pos = (265,200);
},
{
name = ogonek;
pos = (433,0);
},
{
name = top;
pos = (263,400);
},
{
name = topright;
pos = (432,400);
}
);
layerId = m01;
shapes = (
{
closed = 1;
nodes = (
(429,0,l),
(473,61,o),
(481,141,o),
(481,200,cs),
(481,257,o),
(473,330,o),
(426,400,c),
(75,400,l),
(33,341,o),
(23,259,o),
(23,200,cs),
(23,145,o),
(32,76,o),
(76,0,c)
);
},
{
closed = 1;
nodes = (
(219,90,o),
(204,140,o),
(204,200,cs),
(204,263,o),
(218,317,o),
(251,366,c),
(284,316,o),
(301,263,o),
(301,200,cs),
(301,138,o),
(286,82,o),
(251,34,c)
);
}
);
width = 504;
}
);
},
{
color = 11;
glyphname = one.osf;
lastChange = "2023-12-12 21:58:21 +0000";
layers = (
{
layerId = m01;
shapes = (
{
closed = 1;
nodes = (
(211,0,l),
(211,400,l),
(77,400,l),
(52,365,o),
(40,323,o),
(40,265,cs),
(40,0,l)
);
}
);
width = 262;
}
);
},
{
color = 11;
glyphname = two.osf;
lastChange = "2023-12-12 21:58:21 +0000";
layers = (
{
layerId = m01;
shapes = (
{
closed = 1;
nodes = (
(438,0,l),
(438,122,l),
(342,122,l),
(357,133,o),
(425,209,o),
(425,281,cs),
(425,341,o),
(390,380,o),
(361,400,c),
(73,400,l),
(36,375,o),
(10,322,o),
(10,288,cs),
(10,255,l),
(180,255,l),
(180,290,ls),
(180,317,o),
(196,349,o),
(217,366,c),
(242,348,o),
(254,320,o),
(254,282,cs),
(254,241,o),
(207,186,o),
(193,172,cs),
(167,147,o),
(24,9,o),
(13,0,c)
);
}
);
width = 451;
}
);
},
{
color = 11;
glyphname = three.osf;
lastChange = "2023-12-12 21:58:21 +0000";
layers = (
{
layerId = m01;
shapes = (
{
closed = 1;
nodes = (
(302,-154,l),
(375,-86,o),
(414,-9,o),
(414,69,cs),
(414,115,o),
(402,147,o),
(372,182,c),
(157,182,l),
(216,141,o),
(229,122,o),
(229,79,cs),
(229,12,o),
(161,-81,o),
(58,-154,c)
);
},
{
closed = 1;
nodes = (
(244,280,l),
(247,400,l),
(5,400,l),
(5,280,l)
);
},
{
closed = 1;
nodes = (
(249,145,l),
(408,400,l),
(214,400,l),
(66,145,l)
);
}
);
width = 431;
}
);
},
{
color = 11;
glyphname = four.osf;
lastChange = "2023-12-12 21:58:21 +0000";
layers = (
{
layerId = m01;
shapes = (
{
closed = 1;
nodes = (
(293,0,l),
(293,14,l),
(236,40,o),
(184,125,o),
(184,193,cs),
(184,275,o),
(216,342,o),
(283,400,c),
(81,400,l),
(43,355,o),
(18,275,o),
(18,201,cs),
(18,124,o),
(47,40,o),
(87,0,c)
);
},
{
closed = 1;
nodes = (
(428,-154,l),
(428,280,l),
(260,280,l),
(260,-154,l)
);
}
);
width = 469;
}
);
},
{
color = 11;
glyphname = five.osf;
lastChange = "2023-12-12 21:58:21 +0000";
layers = (
{
layerId = m01;
shapes = (
{
closed = 1;
nodes = (
(310,-154,l),
(379,-100,o),
(428,-15,o),
(428,53,cs),
(428,100,o),
(404,161,o),
(372,192,c),
(153,192,l),
(153,172,l),
(208,150,o),
(238,118,o),
(238,74,cs),
(238,13,o),
(181,-64,o),
(64,-152,c),
(65,-154,l)
);
},
{
closed = 1;
nodes = (
(191,155,l),
(191,400,l),
(20,400,l),
(20,155,l)
);
},
{
closed = 1;
nodes = (
(391,280,l),
(391,400,l),
(107,400,l),
(107,280,l)
);
}
);
width = 445;
}
);
},
{
color = 11;
glyphname = six.osf;
lastChange = "2023-12-12 21:58:21 +0000";
layers = (
{
layerId = m01;
shapes = (
{
closed = 1;
nodes = (
(283,0,l),
(249,31,o),
(205,106,o),
(205,209,cs),
(205,351,o),
(289,492,o),
(349,553,c),
(130,553,l),
(88,488,o),
(35,365,o),
(27,231,cs),
(20,115,o),
(49,31,o),
(75,0,c)
);
},
{
closed = 1;
nodes = (
(414,0,l),
(433,22,o),
(459,86,o),
(459,169,cs),
(459,251,o),
(434,316,o),
(415,346,c),
(198,346,l),
(199,325,l),
(256,300,o),
(283,222,o),
(283,157,cs),
(283,77,o),
(243,25,o),
(207,0,c)
);
}
);
width = 469;
}
);
},
{
color = 11;
glyphname = seven.osf;
lastChange = "2023-12-12 21:58:21 +0000";
layers = (
{
layerId = m01;
shapes = (
{
closed = 1;
nodes = (
(278,-154,l),
(324,-71,o),
(384,107,o),
(384,293,cs),
(384,322,o),
(383,369,o),
(381,400,c),
(0,400,l),
(0,280,l),
(210,280,l),
(206,84,o),
(126,-83,o),
(66,-154,c)
);
}
);
width = 411;
}
);
},
{
color = 11;
glyphname = eight.osf;
lastChange = "2023-12-12 21:58:21 +0000";
layers = (
{
layerId = m01;
shapes = (
{
closed = 1;
nodes = (
(433,-1,l),
(466,44,o),
(473,88,o),
(473,118,cs),
(473,184,o),
(445,242,o),
(389,278,cs),
(337,312,o),
(210,370,o),
(210,443,cs),
(210,523,o),
(300,548,o),
(307,554,c),
(78,554,l),
(78,554,o),
(42,517,o),
(42,444,cs),
(42,373,o),
(85,313,o),
(161,268,cs),
(203,243,o),
(289,198,o),
(289,123,cs),
(289,57,o),
(247,20,o),
(224,-1,c)
);
},
{
closed = 1;
nodes = (
(263,20,o),
(202,41,o),
(202,134,cs),
(202,179,o),
(217,230,o),
(230,254,c),
(50,254,l),
(41,234,o),
(26,176,o),
(26,134,cs),
(26,67,o),
(44,28,o),
(65,0,c),
(298,-1,l)
);
},
{
closed = 1;
nodes = (
(415,326,l),
(431,357,o),
(438,400,o),
(438,432,cs),
(438,521,o),
(395,554,o),
(395,554,c),
(184,554,l),
(212,554,o),
(281,521,o),
(281,435,cs),
(281,392,o),
(265,364,o),
(234,326,c)
);
}
);
width = 496;
}
);
},
{
color = 11;
glyphname = nine.osf;
lastChange = "2023-12-12 21:58:21 +0000";
layers = (
{
layerId = m01;
shapes = (
{
closed = 1;
nodes = (
(326,0,l),
(368,65,o),
(421,188,o),
(429,322,cs),
(436,442,o),
(405,525,o),
(381,554,c),
(178,554,l),
(212,522,o),
(256,447,o),
(256,344,cs),
(256,201,o),
(172,61,o),
(112,0,c)
);
},
{
closed = 1;
nodes = (
(263,206,l),
(262,227,l),
(205,252,o),
(178,330,o),
(178,395,cs),
(178,475,o),
(218,529,o),
(254,554,c),
(55,554,l),
(36,532,o),
(10,466,o),
(10,383,cs),
(10,301,o),
(35,236,o),
(54,206,c)
);
}
);
width = 452;
}
);
},
{
color = 11;
glyphname = .notdef;
lastChange = "2023-12-12 21:58:21 +0000";
layers = (
{
layerId = m01;
shapes = (
{
closed = 1;
nodes = (
(537,-70,l),
(537,566,l),
(64,566,l),
(64,-70,l)
);
},
{
closed = 1;
nodes = (
(167,496,l),
(433,496,l),
(433,0,l),
(167,0,l)
);
}
);
width = 600;
}
);
},
{
color = 11;
glyphname = asterisk_node;
lastChange = "2023-12-12 21:58:21 +0000";
layers = (
{
layerId = m01;
shapes = (
{
closed = 1;
nodes = (
(418,337,l),
(408,413,o),
(379,463,o),
(328,519,c),
(160,519,l),
(197,470,o),
(224,407,o),
(236,337,c)
);
}
);
width = 600;
}
);
},
{
color = 11;
glyphname = slash_part;
lastChange = "2023-12-12 21:58:21 +0000";
layers = (
{
anchors = (
{
name = _center;
pos = (186,278);
}
);
layerId = m01;
shapes = (
{
closed = 1;
nodes = (
(144,-71,l),
(273,623,l),
(227,623,l),
(98,-71,l)
);
}
);
width = 371;
}
);
},
{
color = 11;
glyphname = period;
lastChange = "2023-12-12 21:58:21 +0000";
layers = (
{
layerId = m01;
shapes = (
{
closed = 1;
nodes = (
(177,0,l),
(190,15,o),
(196,41,o),
(196,71,cs),
(196,103,o),
(190,129,o),
(177,144,c),
(38,144,l),
(26,128,o),
(19,103,o),
(19,72,cs),
(19,41,o),
(26,15,o),
(38,0,c)
);
}
);
width = 215;
}
);
unicode = 46;
},
{
color = 11;
glyphname = comma;
lastChange = "2023-12-12 21:58:21 +0000";
layers = (
{
background = {
shapes = (
{
closed = 1;
nodes = (
(152,-85,l),
(184,-42,o),
(203,11,o),
(203,64,cs),
(203,100,o),
(194,119,o),
(182,130,c),
(24,130,l),
(24,0,l),
(64,0,l),
(64,-85,l)
);
}
);
};
layerId = m01;
shapes = (
{
closed = 1;
nodes = (
(142,-85,l),
(182,-33,o),
(196,14,o),
(196,90,cs),
(196,144,l),
(37,144,l),
(37,83,ls),
(37,13,o),
(25,-41,o),
(0,-85,c)
);
}
);
width = 196;
}
);
unicode = 44;
},
{
color = 11;
glyphname = colon;
lastChange = "2023-12-12 12:12:08 +0000";
layers = (
{
background = {
shapes = (
{
closed = 1;
nodes = (
(195,13,o),
(203,32,o),
(203,66,cs),
(203,87,o),
(200,108,o),
(194,130,c),
(40,130,l),
(27,117,o),
(19,97,o),
(19,64,cs),
(19,43,o),
(22,22,o),
(28,0,c),
(182,0,l)
);
},
{
closed = 1;
nodes = (
(195,347,o),
(203,366,o),
(203,400,cs),
(203,421,o),
(200,442,o),
(194,464,c),
(40,464,l),
(27,451,o),
(19,431,o),
(19,398,cs),
(19,377,o),
(22,356,o),
(28,334,c),
(182,334,l)
);
}
);
};
layerId = m01;
shapes = (
{
pos = (0,256);
ref = period;
},
{
ref = period;
}
);
width = 215;
}
);
unicode = 58;
},
{
color = 11;
glyphname = semicolon;
lastChange = "2023-12-12 12:12:08 +0000";
layers = (
{
background = {
shapes = (
{
closed = 1;
nodes = (
(195,13,o),
(203,32,o),
(203,66,cs),
(203,87,o),
(200,108,o),
(194,130,c),
(40,130,l),
(27,117,o),
(19,97,o),
(19,64,cs),
(19,43,o),
(22,22,o),
(28,0,c),
(182,0,l)
);
},
{
closed = 1;
nodes = (
(195,347,o),
(203,366,o),
(203,400,cs),
(203,421,o),
(200,442,o),
(194,464,c),
(40,464,l),
(27,451,o),
(19,431,o),
(19,398,cs),
(19,377,o),
(22,356,o),
(28,334,c),
(182,334,l)
);
}
);
};
layerId = m01;
shapes = (
{
pos = (0,256);
ref = period;
},
{
ref = comma;
}
);
width = 227;
}
);
unicode = 59;
},
{
color = 11;
glyphname = exclam;
lastChange = "2023-12-12 21:58:21 +0000";
layers = (
{
layerId = m01;
shapes = (
{
closed = 1;
nodes = (
(190,180,l),
(204,574,l),
(31,574,l),
(49,180,l)
);
},
{
pos = (12,0);
ref = period;
}
);
width = 234;
}
);
unicode = 33;
},
{
color = 11;
glyphname = question;
lastChange = "2023-12-12 21:58:21 +0000";
layers = (
{
background = {
shapes = (
{
closed = 1;
nodes = (
(247,180,l),
(235,203,o),
(207,244,o),
(207,261,cs),
(206,304,o),
(346,287,o),
(345,373,cs),
(344,430,o),
(295,508,o),
(241,554,c),
(15,554,l),
(55,524,o),
(147,428,o),
(147,388,cs),
(148,344,o),
(14,345,o),
(15,296,cs),
(15,273,o),
(66,211,o),
(91,180,c)
);
}
);
};
layerId = m01;
shapes = (
{
closed = 1;
nodes = (
(247,180,l),
(230,203,o),
(207,235,o),
(207,252,cs),
(206,295,o),
(314,328,o),
(314,414,cs),
(314,454,o),
(281,508,o),
(227,554,c),
(12,554,l),
(52,524,o),
(144,452,o),
(144,412,cs),
(145,368,o),
(48,320,o),
(49,271,cs),
(49,248,o),
(66,211,o),
(91,180,c)
);
},
{
pos = (61,0);
ref = period;
}
);
width = 360;
}
);
unicode = 63;
},
{
color = 11;
glyphname = bullet;
lastChange = "2023-12-12 21:58:21 +0000";
layers = (
{
layerId = m01;
shapes = (
{
closed = 1;
nodes = (
(235,204,l),
(251,222,o),
(260,247,o),
(260,295,cs),
(260,323,o),
(257,352,o),
(249,382,c),
(65,382,l),
(49,364,o),
(40,338,o),
(40,291,cs),
(40,264,o),
(43,234,o),
(51,204,c)
);
}
);
width = 300;
}
);
unicode = 8226;
},
{
color = 11;
glyphname = dblverticalbar;
lastChange = "2023-12-12 21:58:21 +0000";
layers = (
{
layerId = m01;
shapes = (
{
closed = 1;
nodes = (
(358,-127,l),
(358,681,l),
(238,681,l),
(238,-127,l)
);
},
{
closed = 1;
nodes = (
(168,-127,l),
(168,681,l),
(48,681,l),
(48,-127,l)
);
}
);
width = 406;
}
);
unicode = 8214;
},
{
color = 11;
glyphname = numbersign;
lastChange = "2023-12-12 21:58:21 +0000";
layers = (
{
background = {
shapes = (
{
closed = 1;
nodes = (
(542,0,l),
(542,554,l),
(369,554,l),
(369,0,l)
);
},
{
closed = 1;
nodes = (
(253,0,l),
(253,554,l),
(80,554,l),
(80,0,l)
);
},
{
closed = 1;
nodes = (
(513,234,l),
(513,354,l),
(102,354,l),
(102,234,l)
);
}
);
};
layerId = m01;
shapes = (
{
closed = 1;
nodes = (
(439,0,l),
(580,566,l),
(454,566,l),
(313,0,l)
);
},
{
closed = 1;
nodes = (
(222,0,l),
(363,566,l),
(237,566,l),
(96,0,l)
);
},
{
closed = 1;
nodes = (
(222,0,l),
(363,566,l),
(237,566,l),
(96,0,l)
);
},
{
closed = 1;
nodes = (
(583,150,l),
(596,247,l),
(61,247,l),
(48,150,l)
);
},
{
closed = 1;
nodes = (
(611,320,l),
(625,417,l),
(92,417,l),
(79,320,l)
);
},
{
closed = 1;
nodes = (
(513,566,l),
(580,566,l),
(439,0,l),
(372,0,l)
);
}
);
width = 673;
}
);
unicode = 35;
},
{
color = 11;
glyphname = slash;
lastChange = "2023-12-12 21:58:21 +0000";
layers = (
{
layerId = m01;
shapes = (
{
closed = 1;
nodes = (
(198,-20,l),
(339,574,l),
(195,574,l),
(54,-20,l)
);
}
);
width = 414;
}
);
unicode = 47;
},
{
color = 11;
glyphname = question.ss01;
lastChange = "2023-12-12 21:58:21 +0000";
layers = (
{
background = {
shapes = (
{
closed = 1;
nodes = (
(425,0,l),
(425,120,l),
(263,120,l),
(298,168,o),
(318,195,o),
(342,232,cs),
(373,277,o),
(418,361,o),
(418,420,cs),
(418,481,o),
(397,525,o),
(354,553,c),
(156,554,l),
(156,533,l),
(216,525,o),
(244,497,o),
(247,442,cs),
(250,397,o),
(233,359,o),
(190,293,cs),
(0,0,l)
);
},
{
closed = 1;
nodes = (
(173,376,l),
(173,411,ls),
(173,485,o),
(195,524,o),
(240,526,c),
(240,554,l),
(66,554,l),
(24,525,o),
(3,477,o),
(3,409,cs),
(3,376,l)
);
}
);
};
layerId = m01;
shapes = (
{
closed = 1;
nodes = (
(306,180,l),
(359,280,ls),
(394,347,o),
(413,389,o),
(413,430,cs),
(413,487,o),
(394,523,o),
(349,553,c),
(156,554,l),
(156,533,l),
(221,524,o),
(254,493,o),
(252,431,cs),
(251,394,o),
(226,357,o),
(201,308,cs),
(136,180,l)
);
},
{
pos = (107,-1);
ref = period;
},
{
closed = 1;
nodes = (
(173,376,l),
(173,411,ls),
(173,485,o),
(195,524,o),
(240,526,c),
(240,554,l),
(76,554,l),
(34,525,o),
(13,477,o),
(13,409,cs),
(13,376,l)
);
}
);
width = 421;
}
);
metricLeft = two;
},
{
color = 11;
glyphname = hyphen;
lastChange = "2023-12-12 21:58:21 +0000";
layers = (
{
layerId = m01;
shapes = (
{
closed = 1;
nodes = (
(316,169,l),
(316,289,l),
(48,289,l),
(48,169,l)
);
}
);
width = 364;
}
);
unicode = 45;
},
{
color = 11;
glyphname = endash;
lastChange = "2023-12-12 21:58:21 +0000";
layers = (
{
layerId = m01;
shapes = (
{
closed = 1;
nodes = (
(559,169,l),
(559,289,l),
(0,289,l),
(0,169,l)
);
}
);
width = 559;
}
);
unicode = 8211;
},
{
color = 11;
glyphname = emdash;
lastChange = "2023-12-12 21:58:21 +0000";
layers = (
{
layerId = m01;
shapes = (
{
closed = 1;
nodes = (
(1118,169,l),
(1118,289,l),
(0,289,l),
(0,169,l)
);
}
);
width = 1118;
}
);
unicode = 8212;
},
{
color = 11;
glyphname = underscore;
lastChange = "2023-12-12 21:58:21 +0000";
layers = (
{
layerId = m01;
shapes = (
{
closed = 1;
nodes = (
(497,-116,l),
(497,-36,l),
(-5,-36,l),
(-5,-116,l)
);
}
);
width = 492;
}
);
unicode = 95;
},
{
color = 11;
glyphname = parenleft;
lastChange = "2023-12-12 21:58:21 +0000";
layers = (
{
layerId = m01;
shapes = (
{
closed = 1;
nodes = (
(275,-39,l),
(208,70,o),
(182,166,o),
(182,278,cs),
(182,390,o),
(208,486,o),
(275,595,c),
(102,595,l),
(53,499,o),
(32,382,o),
(32,278,cs),
(32,174,o),
(53,57,o),
(102,-39,c)
);
}
);
width = 275;
}
);
unicode = 40;
},
{
color = 11;
glyphname = braceleft;
lastChange = "2023-12-12 21:58:21 +0000";
layers = (
{
layerId = m01;
shapes = (
{
closed = 1;
nodes = (
(309,-39,l),
(275,-23,o),
(251,27,o),
(251,59,cs),
(251,105,o),
(258,111,o),
(258,173,cs),
(258,221,o),
(223,262,o),
(173,277,c),
(223,292,o),
(258,333,o),
(258,381,cs),
(258,443,o),
(251,449,o),
(251,495,cs),
(251,527,o),
(275,579,o),
(309,595,c),
(150,595,l),
(116,567,o),
(101,521,o),
(101,483,cs),
(101,451,o),
(105,436,o),
(105,390,cs),
(105,338,o),
(49,292,o),
(8,277,c),
(49,262,o),
(105,216,o),
(105,164,cs),
(105,118,o),
(101,103,o),
(101,71,cs),
(101,33,o),
(116,-11,o),
(150,-39,c)
);
}
);
width = 317;
}
);
unicode = 123;
},
{
color = 11;
glyphname = bracketleft;
lastChange = "2023-12-12 21:58:21 +0000";
layers = (
{
layerId = m01;
shapes = (
{
closed = 1;
nodes = (
(194,-38,l),
(194,592,l),
(60,592,l),
(60,-38,l)
);
},
{
closed = 1;
nodes = (
(304,-38,l),
(304,82,l),
(60,82,l),
(60,-38,l)
);
},
{
closed = 1;
nodes = (
(304,472,l),
(304,592,l),
(60,592,l),
(60,472,l)
);
}
);
width = 364;
}
);
unicode = 91;
},
{
color = 11;
glyphname = quoteleft;
lastChange = "2023-12-12 21:58:21 +0000";
layers = (
{
layerId = m01;
shapes = (
{
closed = 1;
nodes = (
(203,342,l),
(203,472,l),
(163,472,l),
(163,574,l),
(75,574,l),
(43,531,o),
(24,461,o),
(24,408,cs),
(24,372,o),
(33,353,o),
(45,342,c)
);
}
);
width = 227;
}
);
unicode = 8216;
},
{
color = 11;
glyphname = guilsinglright;
lastChange = "2023-12-12 21:58:21 +0000";
layers = (
{
layerId = m01;
shapes = (
{
closed = 1;
nodes = (
(238,318,l),
(48,403,l),
(48,262,l),
(238,176,l)
);
},
{
closed = 1;
nodes = (
(238,85,l),
(238,227,l),
(48,141,l),
(48,0,l)
);
}
);
width = 286;
}
);
unicode = 8250;
},
{
color = 11;
glyphname = quotedbl;
lastChange = "2023-12-12 21:58:21 +0000";
layers = (
{
layerId = m01;
shapes = (
{
closed = 1;
nodes = (
(344,349,l),
(363,574,l),
(212,574,l),
(231,349,l)
);
},
{
closed = 1;
nodes = (
(156,349,l),
(175,574,l),
(24,574,l),
(43,349,l)
);
}
);
width = 387;
}
);
unicode = 34;
},
{
color = 11;
glyphname = quotesingle;
lastChange = "2023-12-12 21:58:21 +0000";
layers = (
{
layerId = m01;
shapes = (
{
closed = 1;
nodes = (
(152,349,l),
(184,392,o),
(203,447,o),
(203,493,cs),
(203,524,o),
(195,542,o),
(182,554,c),
(24,554,l),
(24,434,l),
(64,434,l),
(64,349,l)
);
}
);
width = 221;
}
);
unicode = 39;
},
{
color = 11;
glyphname = florin;
lastChange = "2023-12-12 21:58:21 +0000";
layers = (
{
anchors = (
{
name = bottom;
pos = (248,0);
},
{
name = top;
pos = (248,574);
}
);
layerId = m01;
shapes = (
{
closed = 1;
nodes = (
(210,-144,l),
(257,-99,o),
(274,-60,o),
(280,0,cs),
(310,280,l),
(370,280,l),
(382,400,l),
(322,400,l),
(324,420,ls),
(332,487,o),
(356,539,o),
(398,574,c),
(244,574,l),
(192,543,o),
(161,492,o),
(154,427,cs),
(109,0,l),
(108,0,l),
(102,-65,o),
(83,-99,o),
(23,-144,c)
);
}
);
width = 421;
}
);
unicode = 402;
},
{
color = 11;
glyphname = baht;
lastChange = "2023-12-12 21:58:21 +0000";
layers = (
{
layerId = m01;
shapes = (
{
closed = 1;
nodes = (
(282,554,l),
(282,634,l),
(222,634,l),
(222,554,l)
);
},
{
closed = 1;
nodes = (
(282,-80,l),
(282,0,l),
(222,0,l),
(222,-80,l)
);
},
{
ref = B;
}
);
width = 507;
}
);
unicode = 3647;
},
{
color = 11;
glyphname = at;
lastChange = "2023-12-12 21:58:21 +0000";
layers = (
{
anchors = (
{
name = bottom;
pos = (460,0);
},
{
name = engpart;
pos = (683,0);
},
{
name = jot;
pos = (343,400);
},
{
name = top;
pos = (460,400);
}
);
background = {
shapes = (
{
closed = 1;
nodes = (
(585,0,l),
(585,22,l),
(491,36,o),
(417,112,o),
(410,200,cs),
(404,273,o),
(440,328,o),
(526,376,c),
(526,400,l),
(313,400,l),
(265,353,o),
(237,282,o),
(237,206,cs),
(237,124,o),
(270,34,o),
(313,0,c)
);
},
{
closed = 1;
nodes = (
(524,400,l),
(524,200,l),
(524,118,o),
(546,42,o),
(582,0,c),
(796,0,l),
(736,45,o),
(697,123,o),
(697,200,cs),
(697,400,l)
);
},
{
closed = 1;
nodes = (
(823,153,o),
(794,71,o),
(724,0,c),
(908,0,l),
(959,60,o),
(996,189,o),
(996,307,cs),
(996,433,o),
(905,537,o),
(754,590,c),
(340,590,l),
(340,544,l),
(687,544,o),
(823,428,o),
(823,277,cs)
);
},
{
closed = 1;
nodes = (
(138,425,o),
(300,544,o),
(633,544,c),
(633,590,l),
(229,590,l),
(82,526,o),
(-35,381,o),
(-35,237,cs),
(-35,36,o),
(61,-128,o),
(204,-173,c),
(488,-173,l),
(252,-99,o),
(138,25,o),
(138,207,cs)
);
}
);
};
layerId = m01;
shapes = (
{
closed = 1;
nodes = (
(510,-173,l),
(295,-102,o),
(170,30,o),
(170,187,cs),
(170,385,o),
(317,513,o),
(577,543,c),
(577,569,l),
(258,569,l),
(105,478,o),
(30,356,o),
(30,197,cs),
(30,40,o),
(117,-106,o),
(251,-173,c)
);
},
{
closed = 1;
nodes = (
(530,0,l),
(530,20,l),
(438,33,o),
(373,101,o),
(373,185,cs),
(373,257,o),
(407,306,o),
(488,347,c),
(488,369,l),
(308,369,l),
(260,326,o),
(232,260,o),
(232,190,cs),
(232,114,o),
(265,31,o),
(308,0,c)
);
},
{
closed = 1;
nodes = (
(626,0,l),
(626,185,l),
(626,369,l),
(486,369,l),
(486,185,l),
(486,0,l)
);
},
{
closed = 1;
nodes = (
(767,0,l),
(821,85,o),
(848,177,o),
(848,277,cs),
(848,385,o),
(741,524,o),
(625,569,c),
(315,569,l),
(315,543,l),
(561,517,o),
(708,410,o),
(708,257,cs),
(708,153,o),
(681,91,o),
(596,0,c)
);
}
);
width = 875;
}
);
unicode = 64;
},
{
color = 11;
glyphname = ampersand;
lastChange = "2023-12-12 21:58:21 +0000";
layers = (
{
anchors = (
{
name = oconnect;
pos = (212,0);
}
);
layerId = m01;
shapes = (
{
closed = 1;
nodes = (
(553,0,l),
(269,295,o),
(210,370,o),
(210,443,cs),
(210,523,o),
(300,548,o),
(307,554,c),
(106,554,l),
(106,554,o),
(70,517,o),
(70,444,cs),
(70,344,o),
(129,260,o),
(372,0,c)
);
},
{
closed = 1;
nodes = (
(268,0,l),
(221,37,o),
(202,76,o),
(202,134,cs),
(202,172,o),
(214,225,o),
(230,254,c),
(86,254,l),
(74,227,o),
(62,168,o),
(62,134,cs),
(62,78,o),
(75,35,o),
(101,0,c)
);
},
{
closed = 1;
nodes = (
(496,114,l),
(552,281,l),
(405,282,l),
(349,114,l)
);
},
{
closed = 1;
nodes = (
(398,326,l),
(412,353,o),
(421,395,o),
(421,432,cs),
(421,521,o),
(378,554,o),
(378,554,c),
(184,554,l),
(212,554,o),
(281,521,o),
(281,435,cs),
(281,392,o),
(265,364,o),
(234,326,c)
);
}
);
width = 596;
}
);
unicode = 38;
},
{
color = 11;
glyphname = paragraph;
lastChange = "2023-12-12 21:58:21 +0000";
layers = (
{
anchors = (
{
name = bottom;
pos = (80,299);
},
{
name = top;
pos = (80,638);
}
);
layerId = m01;
shapes = (
{
closed = 1;
nodes = (
(246,299,l),
(246,638,l),
(93,638,l),
(44,590,o),
(28,539,o),
(30,470,cs),
(31,397,o),
(63,341,o),
(93,299,c)
);
},
{
closed = 1;
nodes = (
(262,0,l),
(262,638,l),
(202,638,l),
(202,0,l)
);
},
{
closed = 1;
nodes = (
(364,0,l),
(364,638,l),
(304,638,l),
(304,0,l)
);
}
);
width = 418;
}
);
unicode = 182;
},
{
color = 11;
glyphname = section;
lastChange = "2023-12-12 21:58:21 +0000";
layers = (
{
anchors = (
{
name = bottom;
pos = (285,0);
},
{
name = top;
pos = (285,400);
}
);
layerId = m01;
shapes = (
{
closed = 1;
nodes = (
(393,176,l),
(424,211,o),
(443,258,o),
(441,294,cs),
(438,335,o),
(418,371,o),
(377,412,cs),
(330,459,o),
(309,489,o),
(304,516,cs),
(298,552,o),
(319,594,o),
(358,623,c),
(184,623,l),
(143,590,o),
(124,548,o),
(132,505,cs),
(138,470,o),
(156,441,o),
(201,394,cs),
(241,352,o),
(256,327,o),
(263,291,cs),
(270,249,o),
(246,206,o),
(199,176,c)
);
},
{
closed = 1;
nodes = (
(281,-69,l),
(312,-34,o),
(331,13,o),
(329,49,cs),
(326,90,o),
(306,126,o),
(265,167,cs),
(218,214,o),
(197,244,o),
(192,271,cs),
(186,307,o),
(207,349,o),
(246,378,c),
(72,378,l),
(31,345,o),
(12,303,o),
(20,260,cs),
(26,225,o),
(44,196,o),
(89,149,cs),
(129,107,o),
(144,82,o),
(151,46,cs),
(158,4,o),
(134,-39,o),
(87,-69,c)
);
}
);
width = 474;
}
);
unicode = 167;
},
{
color = 11;
glyphname = copyright;
lastChange = "2023-12-12 21:58:21 +0000";
layers = (
{
anchors = (
{
name = bottom;
pos = (355,227);
},
{
name = top;
pos = (355,566);
}
);
layerId = m01;
shapes = (
{
closed = 1;
nodes = (
(587,121,l),
(683,190,o),
(725,286,o),
(725,395,cs),
(725,493,o),
(683,591,o),
(587,648,c),
(369,648,l),
(369,632,l),
(502,614,o),
(613,533,o),
(613,395,cs),
(613,268,o),
(520,180,o),
(369,135,c),
(369,121,l)
);
},
{
closed = 1;
nodes = (
(396,121,l),
(396,135,l),
(245,180,o),
(152,268,o),
(152,395,cs),
(152,533,o),
(263,614,o),
(396,632,c),
(396,648,l),
(178,648,l),
(82,591,o),
(40,493,o),
(40,395,cs),
(40,286,o),
(82,190,o),
(178,121,c)
);
},
{
closed = 1;
nodes = (
(481,219,l),
(427,268,o),
(395,323,o),
(393,388,cs),
(391,454,o),
(421,505,o),
(473,558,c),
(298,558,l),
(267,510,o),
(251,459,o),
(253,390,cs),
(254,317,o),
(276,261,o),
(306,219,c)
);
}
);
width = 765;
}
);
unicode = 169;
},
{
color = 11;
glyphname = registered;
lastChange = "2023-12-12 21:58:21 +0000";
layers = (
{
layerId = m01;
shapes = (
{
closed = 1;
nodes = (
(588,120,l),
(685,189,o),
(726,286,o),
(726,395,cs),
(726,493,o),
(685,591,o),
(588,648,c),
(369,648,l),
(369,632,l),
(503,614,o),
(614,533,o),
(614,395,cs),
(614,267,o),
(521,179,o),
(369,134,c),
(369,120,l)
);
},
{
closed = 1;
nodes = (
(397,120,l),
(397,134,l),
(245,179,o),
(152,267,o),
(152,395,cs),
(152,533,o),
(263,614,o),
(397,632,c),
(397,648,l),
(178,648,l),
(82,591,o),
(40,493,o),
(40,395,cs),
(40,286,o),
(82,189,o),
(178,120,c)
);
},
{
closed = 1;
nodes = (
(354,227,l),
(354,377,l),
(386,377,o),
(408,352,o),
(410,310,cs),
(414,227,l),
(522,227,l),
(515,310,ls),
(511,357,o),
(497,390,o),
(468,403,c),
(491,418,o),
(507,451,o),
(507,487,cs),
(507,513,o),
(494,544,o),
(474,562,c),
(251,562,l),
(251,227,l)
);
},
{
closed = 1;
nodes = (
(354,539,l),
(383,536,o),
(406,507,o),
(406,474,cs),
(406,445,o),
(383,417,o),
(354,408,c)
);
}
);
width = 766;
}
);
unicode = 174;
},
{
color = 11;
glyphname = trademark;
lastChange = "2023-12-12 21:58:21 +0000";
layers = (
{
anchors = (
{
name = bottom;
pos = (1,0);
},
{
name = center;
pos = (1,217);
},
{
name = top;
pos = (1,434);
}
);
layerId = m01;
shapes = (
{
closed = 1;
nodes = (
(367,215,l),
(367,541,l),
(404,523,o),
(416,466,o),
(416,412,cs),
(416,215,l),
(509,215,l),
(509,438,ls),
(509,472,o),
(506,511,o),
(490,541,c),
(540,521,o),
(558,486,o),
(558,411,cs),
(558,215,l),
(650,215,l),
(650,438,ls),
(650,491,o),
(636,532,o),
(607,564,c),
(274,564,l),
(274,215,l)
);
},
{
closed = 1;
nodes = (
(192,215,l),
(192,485,l),
(254,485,l),
(254,564,l),
(40,564,l),
(40,485,l),
(101,485,l),
(101,215,l)
);
}
);
width = 690;
}
);
unicode = 8482;
},
{
color = 11;
glyphname = degree;
lastChange = "2023-12-12 21:58:21 +0000";
layers = (
{
layerId = m01;
shapes = (
{
closed = 1;
nodes = (
(260,365,l),
(287,399,o),
(292,443,o),
(292,477,cs),
(292,508,o),
(287,548,o),
(258,588,c),
(64,588,l),
(41,554,o),
(36,509,o),
(36,477,cs),
(36,446,o),
(41,408,o),
(67,365,c)
);
},
{
closed = 1;
nodes = (
(143,415,o),
(135,442,o),
(135,477,cs),
(135,511,o),
(143,541,o),
(162,569,c),
(181,541,o),
(193,511,o),
(193,477,cs),
(193,442,o),
(182,411,o),
(162,383,c)
);
}
);
width = 328;
}
);
unicode = 176;
},
{
color = 9;
glyphname = bar;
lastChange = "2023-12-12 22:04:28 +0000";
layers = (
{
layerId = m01;
shapes = (
{
closed = 1;
nodes = (
(188,-132,l),
(188,686,l),
(48,686,l),
(48,-132,l)
);
}
);
width = 236;
}
);
unicode = 124;
},
{
color = 11;
glyphname = brokenbar;
lastChange = "2023-12-12 21:58:21 +0000";
layers = (
{
layerId = m01;
shapes = (
{
closed = 1;
nodes = (
(188,341,l),
(188,686,l),
(48,686,l),
(48,341,l)
);
},
{
closed = 1;
nodes = (
(188,-132,l),
(188,213,l),
(48,213,l),
(48,-132,l)
);
}
);
width = 236;
}
);
unicode = 166;
},
{
color = 11;
glyphname = dagger;
lastChange = "2023-12-12 21:58:21 +0000";
layers = (
{
layerId = m01;
shapes = (
{
closed = 1;
nodes = (
(287,79,l),
(287,626,l),
(147,626,l),
(147,79,l)
);
},
{
closed = 1;
nodes = (
(404,386,l),
(404,506,l),
(30,506,l),
(30,386,l)
);
}
);
width = 434;
}
);
unicode = 8224;
},
{
color = 5;
glyphname = literSign;
lastChange = "2023-12-12 22:04:35 +0000";
layers = (
{
anchors = (
{
name = bottom;
pos = (171,0);
},
{
name = center;
pos = (135,336);
},
{
name = top;
pos = (134,574);
},
{
name = topright;
pos = (284,574);
}
);
background = {
shapes = (
{
closed = 1;
nodes = (
(251,532,o),
(273,493,o),
(273,444,cs),
(273,349,o),
(199,296,o),
(1,248,c),
(1,128,l),
(254,181,o),
(406,293,o),
(406,409,cs),
(406,470,o),
(396,516,o),
(350,573,c),
(202,573,l)
);
},
{
closed = 1;
nodes = (
(287,0,l),
(243,60,o),
(223,120,o),
(223,195,cs),
(223,573,l),
(54,573,l),
(54,160,ls),
(54,99,o),
(69,30,o),
(89,0,c)
);
}
);
};
layerId = m01;
shapes = (
{
closed = 1;
nodes = (
(278,178,o),
(405,270,o),
(405,399,cs),
(405,457,o),
(381,522,o),
(340,573,c),
(172,573,l),
(241,532,o),
(274,486,o),
(274,434,cs),
(274,362,o),
(229,293,o),
(30,248,c),
(30,128,l)
);
},
{
closed = 1;
nodes = (
(287,0,l),
(243,60,o),
(223,120,o),
(223,195,cs),
(223,573,l),
(83,573,l),
(83,160,ls),
(83,99,o),
(98,30,o),
(118,0,c)
);
}
);
width = 435;
}
);
unicode = 8467;
},
{
color = 11;
glyphname = daggerdbl;
lastChange = "2023-12-12 21:58:21 +0000";
layers = (
{
layerId = m01;
shapes = (
{
closed = 1;
nodes = (
(287,79,l),
(287,626,l),
(147,626,l),
(147,79,l)
);
},
{
closed = 1;
nodes = (
(404,199,l),
(404,319,l),
(30,319,l),
(30,199,l)
);
},
{
closed = 1;
nodes = (
(404,386,l),
(404,506,l),
(30,506,l),
(30,386,l)
);
}
);
width = 434;
}
);
unicode = 8225;
},
{
color = 5;
glyphname = estimated;
lastChange = "2023-12-12 22:04:38 +0000";
layers = (
{
layerId = m01;
shapes = (
{
closed = 1;
nodes = (
(449,-5,o),
(513,26,o),
(585,106,c),
(520,106,l),
(485,57,o),
(412,17,o),
(345,17,cs),
(220,17,o),
(196,57,o),
(170,117,c),
(170,268,l),
(640,268,l),
(632,455,o),
(525,558,o),
(345,558,cs),
(167,558,o),
(30,444,o),
(30,275,cs),
(30,104,o),
(157,-5,o),
(345,-5,cs)
);
},
{
closed = 1;
nodes = (
(170,440,l),
(178,467,o),
(235,538,o),
(345,538,cs),
(431,538,o),
(512,467,o),
(520,434,c),
(520,287,l),
(170,287,l)
);
}
);
width = 670;
}
);
unicode = 8494;
},
{
color = 11;
glyphname = numero;
lastChange = "2023-12-12 21:58:21 +0000";
layers = (
{
anchors = (
{
name = bottom;
pos = (276,0);
},
{
name = center;
pos = (783,200);
},
{
name = ogonek;
pos = (964,0);
},
{
name = top;
pos = (262,554);
},
{
name = topright;
pos = (963,400);
}
);
background = {
shapes = (
{
closed = 1;
nodes = (
(488,-1,l),
(488,316,ls),
(488,438,o),
(462,519,o),
(410,554,c),
(44,554,l),
(44,0,l),
(217,0,l),
(217,516,l),
(285,490,o),
(315,419,o),
(315,286,cs),
(315,-1,l)
);
},
{
closed = 1;
nodes = (
(938,120,l),
(982,181,o),
(991,261,o),
(991,320,cs),
(991,377,o),
(982,450,o),
(935,520,c),
(599,520,l),
(557,461,o),
(547,379,o),
(547,320,cs),
(547,265,o),
(556,196,o),
(601,120,c)
);
},
{
closed = 1;
nodes = (
(735,210,o),
(720,260,o),
(720,320,cs),
(720,383,o),
(734,437,o),
(768,486,c),
(801,436,o),
(818,383,o),
(818,320,cs),
(818,258,o),
(803,202,o),
(768,154,c)
);
},
{
closed = 1;
nodes = (
(601,0,l),
(938,0,l),
(938,80,l),
(601,80,l)
);
}
);
};
layerId = m01;
shapes = (
{
closed = 1;
nodes = (
(488,-1,l),
(488,316,ls),
(488,438,o),
(462,519,o),
(410,554,c),
(44,554,l),
(44,0,l),
(217,0,l),
(217,516,l),
(285,490,o),
(315,419,o),
(315,286,cs),
(315,-1,l)
);
},
{
closed = 1;
nodes = (
(887,0,l),
(887,60,l),
(583,60,l),
(583,0,l)
);
},
{
closed = 1;
nodes = (
(887,170,l),
(926,225,o),
(934,297,o),
(934,350,cs),
(934,402,o),
(926,467,o),
(884,530,c),
(582,530,l),
(544,477,o),
(535,403,o),
(535,350,cs),
(535,300,o),
(543,239,o),
(583,170,c)
);
},
{
closed = 1;
nodes = (
(704,251,o),
(691,296,o),
(691,350,cs),
(691,407,o),
(703,455,o),
(734,499,c),
(764,454,o),
(779,407,o),
(779,350,cs),
(779,294,o),
(765,244,o),
(734,201,c)
);
}
);
width = 964;
}
);
unicode = 8470;
},
{
color = 11;
glyphname = ampersand.001;
lastChange = "2023-12-12 21:58:21 +0000";
layers = (
{
anchors = (
{
name = oconnect;
pos = (212,0);
}
);
background = {
shapes = (
{
closed = 1;
nodes = (
(553,0,l),
(269,295,o),
(210,370,o),
(210,443,cs),
(210,523,o),
(300,548,o),
(307,554,c),
(78,554,l),
(78,554,o),
(42,517,o),
(42,444,cs),
(42,373,o),
(75,314,o),
(344,0,c)
);
},
{
closed = 1;
nodes = (
(305,20,o),
(220,61,o),
(197,134,cs),
(183,179,o),
(182,230,o),
(188,254,c),
(8,254,l),
(5,234,o),
(8,176,o),
(21,134,cs),
(43,67,o),
(73,28,o),
(103,0,c),
(336,-1,l)
);
},
{
closed = 1;
nodes = (
(415,326,l),
(431,357,o),
(438,400,o),
(438,432,cs),
(438,521,o),
(395,554,o),
(395,554,c),
(184,554,l),
(212,554,o),
(281,521,o),
(281,435,cs),
(281,392,o),
(265,364,o),
(234,326,c)
);
}
);
};
layerId = m01;
shapes = (
{
closed = 1;
nodes = (
(553,0,l),
(269,295,o),
(210,370,o),
(210,443,cs),
(210,523,o),
(300,548,o),
(307,554,c),
(78,554,l),
(78,554,o),
(42,517,o),
(42,444,cs),
(42,357,o),
(75,314,o),
(344,0,c)
);
},
{
closed = 1;
nodes = (
(268,0,l),
(239,21,o),
(202,61,o),
(202,134,cs),
(202,179,o),
(217,230,o),
(230,254,c),
(50,254,l),
(41,234,o),
(26,176,o),
(26,134,cs),
(26,67,o),
(44,28,o),
(65,0,c)
);
},
{
closed = 1;
nodes = (
(494,110,l),
(550,277,l),
(386,278,l),
(330,110,l)
);
},
{
closed = 1;
nodes = (
(415,326,l),
(431,357,o),
(438,400,o),
(438,432,cs),
(438,521,o),
(395,554,o),
(395,554,c),
(184,554,l),
(212,554,o),
(281,521,o),
(281,435,cs),
(281,392,o),
(265,364,o),
(234,326,c)
);
}
);
width = 596;
}
);
},
{
color = 11;
glyphname = bitcoin;
lastChange = "2023-12-12 21:58:21 +0000";
layers = (
{
layerId = m01;
shapes = (
{
closed = 1;
nodes = (
(333,539,l),
(333,637,l),
(273,637,l),
(273,539,l)
);
},
{
closed = 1;
nodes = (
(213,-91,l),
(213,7,l),
(153,7,l),
(153,-91,l)
);
},
{
closed = 1;
nodes = (
(333,-91,l),
(333,7,l),
(273,7,l),
(273,-91,l)
);
},
{
ref = B;
},
{
closed = 1;
nodes = (
(213,539,l),
(213,637,l),
(153,637,l),
(153,539,l)
);
}
);
width = 507;
}
);
unicode = 8383;
},
{
color = 11;
glyphname = cedi;
lastChange = "2023-12-12 21:58:21 +0000";
layers = (
{
layerId = m01;
shapes = (
{
closed = 1;
nodes = (
(186,-70,l),
(197,32,l),
(137,32,l),
(126,-70,l)
);
},
{
ref = C;
},
{
closed = 1;
nodes = (
(250,539,l),
(260,637,l),
(200,637,l),
(190,539,l)
);
}
);
width = 326;
}
);
unicode = 8373;
},
{
color = 11;
glyphname = colonsign;
lastChange = "2023-12-12 21:58:21 +0000";
layers = (
{
layerId = m01;
shapes = (
{
closed = 1;
nodes = (
(251,-71,l),
(258,1,l),
(201,0,l),
(195,-71,l)
);
},
{
closed = 1;
nodes = (
(171,-71,l),
(177,0,l),
(121,0,l),
(115,-71,l)
);
},
{
ref = C;
},
{
closed = 1;
nodes = (
(228,554,l),
(234,623,l),
(178,623,l),
(172,554,l)
);
},
{
closed = 1;
nodes = (
(308,554,l),
(314,623,l),
(258,623,l),
(252,554,l)
);
}
);
width = 326;
}
);
unicode = 8353;
},
{
color = 11;
glyphname = currency;
lastChange = "2023-12-12 21:58:21 +0000";
layers = (
{
layerId = m01;
shapes = (
{
closed = 1;
nodes = (
(334,136,l),
(376,171,o),
(393,218,o),
(393,278,cs),
(394,335,o),
(374,377,o),
(334,417,c),
(213,417,l),
(266,375,o),
(294,332,o),
(293,277,cs),
(291,223,o),
(270,186,o),
(222,136,c)
);
},
{
closed = 1;
nodes = (
(90,46,l),
(174,158,l),
(114,158,l),
(30,46,l)
);
},
{
closed = 1;
nodes = (
(242,136,l),
(194,186,o),
(173,223,o),
(171,277,cs),
(170,332,o),
(198,375,o),
(251,417,c),
(130,417,l),
(90,377,o),
(70,335,o),
(71,278,cs),
(71,218,o),
(88,171,o),
(130,136,c)
);
},
{
closed = 1;
nodes = (
(434,46,l),
(350,158,l),
(290,158,l),
(374,46,l)
);
},
{
closed = 1;
nodes = (
(202,396,l),
(118,508,l),
(38,508,l),
(122,396,l)
);
},
{
closed = 1;
nodes = (
(341,396,l),
(425,508,l),
(365,508,l),
(281,396,l)
);
}
);
width = 464;
}
);
unicode = 164;
},
{
color = 11;
glyphname = dollar;
lastChange = "2023-12-12 21:58:21 +0000";
layers = (
{
anchors = (
{
name = bottom;
pos = (163,0);
},
{
name = top;
pos = (158,554);
}
);
layerId = m01;
shapes = (
{
closed = 1;
nodes = (
(183,-70,l),
(183,637,l),
(123,637,l),
(123,-70,l)
);
},
{
ref = S;
}
);
width = 307;
}
);
unicode = 36;
},
{
color = 11;
glyphname = dong;
lastChange = "2023-12-12 21:58:21 +0000";
layers = (
{
anchors = (
{
name = bottom;
pos = (249,0);
},
{
name = center;
pos = (249,200);
},
{
name = top;
pos = (249,574);
},
{
name = topright;
pos = (471,830);
}
);
layerId = m01;
shapes = (
{
closed = 1;
nodes = (
(301,100,l),
(301,110,l),
(238,146,o),
(210,196,o),
(210,262,cs),
(210,340,o),
(268,392,o),
(310,406,c),
(310,416,l),
(134,416,l),
(98,387,o),
(73,325,o),
(73,247,cs),
(73,208,o),
(91,139,o),
(134,100,c)
);
},
{
closed = 1;
nodes = (
(413,0,l),
(413,60,l),
(134,60,l),
(134,0,l)
);
},
{
closed = 1;
nodes = (
(413,100,l),
(413,554,l),
(278,554,l),
(278,100,l)
);
},
{
closed = 1;
nodes = (
(447,460,l),
(447,506,l),
(242,506,l),
(242,460,l)
);
}
);
width = 526;
}
);
unicode = 8363;
},
{
color = 11;
glyphname = euro;
lastChange = "2023-12-12 21:58:21 +0000";
layers = (
{
layerId = m01;
shapes = (
{
closed = 1;
nodes = (
(384,321,l),
(406,381,l),
(62,381,l),
(40,321,l)
);
},
{
closed = 1;
nodes = (
(374,211,l),
(396,271,l),
(52,271,l),
(30,211,l)
);
},
{
pos = (70,0);
ref = C;
}
);
width = 440;
}
);
unicode = 8364;
},
{
color = 11;
glyphname = guarani;
lastChange = "2023-12-12 21:58:21 +0000";
layers = (
{
layerId = m01;
shapes = (
{
closed = 1;
nodes = (
(287,539,l),
(287,637,l),
(227,637,l),
(227,539,l)
);
},
{
closed = 1;
nodes = (
(287,-61,l),
(287,37,l),
(227,37,l),
(227,-61,l)
);
},
{
ref = G;
}
);
width = 500;
}
);
unicode = 8370;
},
{
color = 11;
glyphname = hryvnia;
lastChange = "2023-12-12 21:58:21 +0000";
layers = (
{
layerId = m01;
shapes = (
{
closed = 1;
nodes = (
(394,321,l),
(416,381,l),
(82,381,l),
(60,321,l)
);
},
{
closed = 1;
nodes = (
(364,211,l),
(386,271,l),
(52,271,l),
(30,211,l)
);
},
{
pos = (373,0);
ref = S;
scale = (-1,1);
}
);
width = 436;
}
);
unicode = 8372;
},
{
color = 11;
glyphname = kip;
lastChange = "2023-12-12 21:58:21 +0000";
layers = (
{
layerId = m01;
shapes = (
{
closed = 1;
nodes = (
(604,276,l),
(604,336,l),
(30,336,l),
(30,276,l)
);
},
{
pos = (68,0);
ref = K;
}
);
width = 644;
}
);
unicode = 8365;
},
{
color = 11;
glyphname = lari;
lastChange = "2023-12-12 21:58:21 +0000";
layers = (
{
anchors = (
{
name = top;
pos = (261,554);
}
);
layerId = m01;
shapes = (
{
closed = 1;
nodes = (
(320,0,l),
(307,25,l),
(234,73,o),
(191,179,o),
(192,309,cs),
(192,397,o),
(231,495,o),
(290,554,c),
(95,554,l),
(46,491,o),
(20,397,o),
(20,288,cs),
(19,180,o),
(53,70,o),
(109,0,c)
);
},
{
closed = 1;
nodes = (
(431,0,l),
(431,60,l),
(12,60,l),
(12,0,l)
);
},
{
closed = 1;
nodes = (
(253,552,l),
(253,637,l),
(193,637,l),
(193,552,l)
);
},
{
closed = 1;
nodes = (
(471,400,l),
(465,458,o),
(439,525,o),
(411,554,c),
(227,554,l),
(272,504,o),
(286,476,o),
(302,400,c)
);
},
{
closed = 1;
nodes = (
(340,552,l),
(340,637,l),
(280,637,l),
(280,552,l)
);
}
);
width = 500;
}
);
unicode = 8382;
},
{
color = 11;
glyphname = liraTurkish;
lastChange = "2023-12-12 21:58:21 +0000";
layers = (
{
anchors = (
{
name = bottom;
pos = (253,0);
},
{
name = center;
pos = (253,277);
},
{
name = top;
pos = (253,554);
},
{
name = topright;
pos = (428,554);
}
);
layerId = m01;
shapes = (
{
closed = 1;
nodes = (
(270,0,l),
(270,554,l),
(99,554,l),
(99,0,l)
);
},
{
closed = 1;
nodes = (
(414,0,l),
(466,31,o),
(497,93,o),
(497,166,c),
(328,166,l),
(328,98,o),
(294,40,o),
(230,0,c)
);
},
{
closed = 1;
nodes = (
(344,300,l),
(344,360,l),
(30,270,l),
(30,210,l)
);
},
{
closed = 1;
nodes = (
(344,410,l),
(344,470,l),
(30,380,l),
(30,320,l)
);
}
);
width = 527;
}
);
unicode = 8378;
},
{
color = 11;
glyphname = manat;
lastChange = "2023-12-12 21:58:21 +0000";
layers = (
{
anchors = (
{
name = bottom;
pos = (337,0);
},
{
name = top;
pos = (323,554);
}
);
background = {
shapes = (
{
ref = H;
}
);
};
layerId = m01;
shapes = (
{
closed = 1;
nodes = (
(535,-1,l),
(535,316,ls),
(535,439,o),
(509,519,o),
(457,554,c),
(218,554,l),
(340,480,o),
(362,439,o),
(362,286,cs),
(362,-1,l)
);
},
{
closed = 1;
nodes = (
(184,-1,l),
(184,286,ls),
(184,439,o),
(206,480,o),
(328,554,c),
(89,554,l),
(37,519,o),
(11,439,o),
(11,316,cs),
(11,-1,l)
);
},
{
closed = 1;
nodes = (
(303,0,l),
(303,637,l),
(243,637,l),
(243,0,l)
);
}
);
width = 582;
}
);
unicode = 8380;
},
{
color = 11;
glyphname = naira;
lastChange = "2023-12-12 21:58:21 +0000";
layers = (
{
layerId = m01;
shapes = (
{
closed = 1;
nodes = (
(616,311,l),
(616,371,l),
(30,371,l),
(30,311,l)
);
},
{
closed = 1;
nodes = (
(616,199,l),
(616,259,l),
(30,259,l),
(30,199,l)
);
},
{
pos = (57,0);
ref = N;
}
);
width = 654;
}
);
unicode = 8358;
},
{
color = 11;
glyphname = peso;
lastChange = "2023-12-12 21:58:21 +0000";
layers = (
{
layerId = m01;
shapes = (
{
closed = 1;
nodes = (
(566,391,l),
(566,451,l),
(20,451,l),
(20,391,l)
);
},
{
pos = (30,0);
ref = P;
},
{
closed = 1;
nodes = (
(566,279,l),
(566,339,l),
(20,339,l),
(20,279,l)
);
}
);
width = 596;
}
);
unicode = 8369;
},
{
color = 11;
glyphname = ruble;
lastChange = "2023-12-12 21:58:21 +0000";
layers = (
{
anchors = (
{
name = bottom;
pos = (287,0);
},
{
name = stroke;
pos = (163,359);
},
{
name = top;
pos = (287,554);
}
);
layerId = m01;
shapes = (
{
closed = 1;
nodes = (
(247,0,l),
(247,171,l),
(438,171,l),
(484,223,o),
(512,298,o),
(512,377,cs),
(512,445,o),
(477,528,o),
(438,554,c),
(74,554,l),
(74,0,l)
);
},
{
closed = 1;
nodes = (
(306,60,l),
(306,120,l),
(20,120,l),
(20,60,l)
);
},
{
closed = 1;
nodes = (
(247,171,l),
(247,231,l),
(20,231,l),
(20,171,l)
);
},
{
closed = 1;
nodes = (
(247,516,l),
(302,503,o),
(339,454,o),
(339,392,cs),
(339,312,o),
(309,267,o),
(247,231,c)
);
}
);
width = 525;
}
);
unicode = 8381;
},
{
color = 11;
glyphname = rupeeIndian;
lastChange = "2023-12-12 21:58:21 +0000";
layers = (
{
layerId = m01;
shapes = (
{
closed = 1;
nodes = (
(431,0,l),
(208,249,l),
(30,249,l),
(261,0,l)
);
},
{
closed = 1;
nodes = (
(210,249,l),
(295,301,o),
(330,373,o),
(330,442,cs),
(330,478,o),
(320,517,o),
(288,554,c),
(118,554,l),
(170,529,o),
(192,489,o),
(192,448,cs),
(192,386,o),
(153,309,o),
(30,249,c)
);
},
{
closed = 1;
nodes = (
(457,364,l),
(457,424,l),
(30,424,l),
(30,364,l)
);
},
{
closed = 1;
nodes = (
(457,494,l),
(457,554,l),
(30,554,l),
(30,494,l)
);
}
);
width = 487;
}
);
unicode = 8377;
},
{
color = 11;
glyphname = sheqel;
lastChange = "2023-12-12 21:58:21 +0000";
layers = (
{
anchors = (
{
name = bottom;
pos = (272,0);
},
{
name = top;
pos = (258,554);
}
);
background = {
shapes = (
{
pos = (-4,0);
ref = N;
}
);
};
layerId = m01;
shapes = (
{
closed = 1;
nodes = (
(524,224,l),
(524,316,ls),
(524,446,o),
(500,511,o),
(436,554,c),
(154,554,l),
(154,516,l),
(371,516,o),
(394,442,o),
(394,286,cs),
(394,224,l)
);
},
{
closed = 1;
nodes = (
(183,0,l),
(183,554,l),
(40,554,l),
(40,0,l)
);
},
{
closed = 1;
nodes = (
(595,0,l),
(595,38,l),
(378,38,o),
(355,112,o),
(355,268,cs),
(355,330,l),
(225,330,l),
(225,238,ls),
(225,108,o),
(249,43,o),
(313,0,c)
);
},
{
closed = 1;
nodes = (
(709,0,l),
(709,554,l),
(566,554,l),
(566,0,l)
);
}
);
width = 749;
}
);
unicode = 8362;
},
{
color = 11;
glyphname = sterling;
lastChange = "2023-12-12 21:58:21 +0000";
layers = (
{
layerId = m01;
shapes = (
{
closed = 1;
nodes = (
(237,0,l),
(237,280,ls),
(237,430,o),
(277,506,o),
(381,553,c),
(174,554,l),
(90,505,o),
(65,441,o),
(65,277,cs),
(65,0,l)
);
},
{
closed = 1;
nodes = (
(379,0,l),
(411,120,l),
(209,120,l),
(65,0,l)
);
},
{
closed = 1;
nodes = (
(363,223,l),
(395,342,l),
(20,342,l),
(20,223,l)
);
}
);
width = 431;
}
);
unicode = 163;
},
{
color = 11;
glyphname = tenge;
lastChange = "2023-12-12 21:58:21 +0000";
layers = (
{
anchors = (
{
name = bottom;
pos = (227,0);
},
{
name = center;
pos = (227,277);
},
{
name = top;
pos = (227,554);
}
);
layerId = m01;
shapes = (
{
closed = 1;
nodes = (
(311,0,l),
(311,309,l),
(423,309,l),
(423,434,l),
(30,434,l),
(30,309,l),
(142,309,l),
(142,0,l)
);
},
{
closed = 1;
nodes = (
(423,494,l),
(423,554,l),
(30,554,l),
(30,494,l)
);
}
);
width = 453;
}
);
unicode = 8376;
},
{
color = 11;
glyphname = tugrik;
lastChange = "2023-12-12 21:58:21 +0000";
layers = (
{
layerId = m01;
shapes = (
{
closed = 1;
nodes = (
(385,330,l),
(385,390,l),
(71,300,l),
(71,240,l)
);
},
{
pos = (36,0);
ref = T;
},
{
closed = 1;
nodes = (
(385,220,l),
(385,280,l),
(71,190,l),
(71,130,l)
);
}
);
width = 453;
}
);
unicode = 8366;
},
{
color = 11;
glyphname = won;
lastChange = "2023-12-12 21:58:21 +0000";
layers = (
{
layerId = m01;
shapes = (
{
closed = 1;
nodes = (
(776,274,l),
(776,334,l),
(3,334,l),
(3,274,l)
);
},
{
pos = (2,0);
ref = W;
}
);
width = 779;
}
);
unicode = 8361;
},
{
color = 11;
glyphname = yen;
lastChange = "2023-12-12 21:58:21 +0000";
layers = (
{
layerId = m01;
shapes = (
{
closed = 1;
nodes = (
(524,171,l),
(524,231,l),
(48,231,l),
(48,171,l)
);
},
{
closed = 1;
nodes = (
(524,70,l),
(524,130,l),
(48,130,l),
(48,70,l)
);
},
{
pos = (44,0);
ref = Y;
}
);
width = 572;
}
);
unicode = 165;
},
{
color = 1;
glyphname = plus;
lastChange = "2023-12-12 21:59:04 +0000";
layers = (
{
layerId = m01;
shapes = (
{
closed = 1;
nodes = (
(259,81,l),
(259,411,l),
(119,411,l),
(119,81,l)
);
},
{
closed = 1;
nodes = (
(350,187,l),
(350,307,l),
(30,307,l),
(30,187,l)
);
}
);
width = 380;
}
);
unicode = 43;
},
{
color = 1;
glyphname = minus;
lastChange = "2023-12-12 21:59:04 +0000";
layers = (
{
layerId = m01;
shapes = (
{
closed = 1;
nodes = (
(366,187,l),
(366,307,l),
(48,307,l),
(48,187,l)
);
}
);
width = 414;
}
);
unicode = 8722;
},
{
color = 1;
glyphname = multiply;
lastChange = "2023-12-12 21:59:04 +0000";
layers = (
{
layerId = m01;
shapes = (
{
closed = 1;
nodes = (
(212,162,l),
(283,83,l),
(373,163,l),
(293,251,l),
(373,339,l),
(283,419,l),
(212,340,l),
(140,419,l),
(50,339,l),
(130,251,l),
(50,163,l),
(140,83,l)
);
}
);
width = 403;
}
);
unicode = 215;
},
{
color = 1;
glyphname = divide;
lastChange = "2023-12-12 21:59:04 +0000";
layers = (
{
layerId = m01;
shapes = (
{
closed = 1;
nodes = (
(376,187,l),
(376,307,l),
(48,307,l),
(48,187,l)
);
},
{
pos = (103,17);
ref = period;
},
{
pos = (103,347);
ref = period;
}
);
width = 424;
}
);
unicode = 247;
},
{
color = 1;
glyphname = notequal;
lastChange = "2023-12-12 21:59:04 +0000";
layers = (
{
layerId = m01;
shapes = (
{
closed = 1;
nodes = (
(195,57,l),
(345,443,l),
(216,443,l),
(66,57,l)
);
},
{
pos = (0,-83);
ref = minus;
},
{
pos = (0,86);
ref = minus;
}
);
width = 414;
}
);
unicode = 8800;
},
{
color = 1;
glyphname = greaterequal;
lastChange = "2023-12-12 21:59:04 +0000";
layers = (
{
layerId = m01;
shapes = (
{
closed = 1;
nodes = (
(229,0,l),
(229,60,l),
(44,60,l),
(44,0,l)
);
},
{
pos = (284,103);
ref = guilsinglleft;
scale = (-1,1);
}
);
width = 278;
}
);
unicode = 8805;
},
{
color = 1;
glyphname = plusminus;
lastChange = "2023-12-12 21:59:04 +0000";
layers = (
{
layerId = m01;
shapes = (
{
closed = 1;
nodes = (
(259,121,l),
(259,421,l),
(119,421,l),
(119,121,l)
);
},
{
closed = 1;
nodes = (
(350,1,l),
(350,61,l),
(30,61,l),
(30,1,l)
);
},
{
closed = 1;
nodes = (
(350,197,l),
(350,317,l),
(30,317,l),
(30,197,l)
);
}
);
width = 380;
}
);
unicode = 177;
},
{
color = 11;
glyphname = logicalnot;
lastChange = "2023-12-12 21:58:21 +0000";
layers = (
{
layerId = m01;
shapes = (
{
closed = 1;
nodes = (
(466,187,l),
(466,307,l),
(88,307,l),
(88,187,l)
);
},
{
closed = 1;
nodes = (
(466,69,l),
(466,307,l),
(326,307,l),
(326,69,l)
);
}
);
width = 514;
}
);
unicode = 172;
},
{
color = 11;
glyphname = asciicircum;
lastChange = "2023-12-12 21:58:21 +0000";
layers = (
{
anchors = (
{
name = top;
pos = (211,554);
}
);
layerId = m01;
shapes = (
{
closed = 1;
nodes = (
(392,342,l),
(337,554,l),
(202,554,l),
(252,342,l)
);
},
{
closed = 1;
nodes = (
(170,342,l),
(220,554,l),
(85,554,l),
(30,342,l)
);
}
);
width = 422;
}
);
unicode = 94;
},
{
color = 11;
glyphname = infinity;
lastChange = "2023-12-12 21:58:21 +0000";
layers = (
{
background = {
shapes = (
{
closed = 1;
nodes = (
(258,117,o),
(312,77,o),
(340,77,cs),
(413,77,o),
(440,112,o),
(440,112,c),
(440,284,ls),
(440,307,o),
(413,205,o),
(341,205,cs),
(306,205,o),
(274,219,o),
(242,243,c),
(215,403,o),
(172,409,o),
(144,409,cs),
(71,409,o),
(44,374,o),
(44,374,c),
(44,202,ls),
(44,179,o),
(71,281,o),
(143,281,cs),
(193,281,o),
(226,175,o),
(242,146,cs)
);
}
);
};
layerId = m01;
shapes = (
{
closed = 1;
nodes = (
(192,89,o),
(242,106,o),
(274,144,cs),
(337,219,o),
(379,273,o),
(413,273,cs),
(481,273,o),
(511,199,o),
(516,195,c),
(516,381,l),
(516,381,o),
(475,410,o),
(414,410,cs),
(355,410,o),
(314,374,o),
(266,296,cs),
(249,269,o),
(206,226,o),
(145,226,cs),
(79,226,o),
(48,332,o),
(44,338,c),
(44,150,l),
(44,150,o),
(84,89,o),
(145,89,cs)
);
},
{
closed = 1;
nodes = (
(44,225,o),
(71,281,o),
(143,281,cs),
(178,281,o),
(210,267,o),
(242,243,c),
(242,391,l),
(215,403,o),
(172,409,o),
(144,409,cs),
(71,409,o),
(44,374,o),
(44,374,c),
(44,202,l)
);
},
{
closed = 1;
nodes = (
(489,88,o),
(516,121,o),
(516,121,c),
(516,294,l),
(516,273,o),
(489,215,o),
(417,215,cs),
(382,215,o),
(350,229,o),
(318,253,c),
(318,106,l),
(343,93,o),
(388,88,o),
(414,88,cs)
);
}
);
width = 560;
}
);
unicode = 8734;
},
{
color = 11;
glyphname = emptyset;
lastChange = "2023-12-12 21:58:21 +0000";
layers = (
{
layerId = m01;
shapes = (
{
closed = 1;
nodes = (
(80,-24,l),
(420,516,l),
(360,516,l),
(20,-24,l)
);
},
{
closed = 1;
nodes = (
(238,52,l),
(171,122,o),
(141,172,o),
(139,247,cs),
(138,323,o),
(176,382,o),
(249,441,c),
(82,441,l),
(27,386,o),
(-1,328,o),
(1,248,cs),
(2,165,o),
(25,100,o),
(70,52,c)
);
},
{
closed = 1;
nodes = (
(376,52,l),
(421,100,o),
(444,165,o),
(445,248,cs),
(447,328,o),
(419,386,o),
(364,441,c),
(197,441,l),
(270,382,o),
(308,323,o),
(307,247,cs),
(305,172,o),
(275,122,o),
(208,52,c)
);
}
);
width = 446;
}
);
unicode = 8709;
},
{
color = 11;
glyphname = integral;
lastChange = "2023-12-12 21:58:21 +0000";
layers = (
{
layerId = m01;
shapes = (
{
closed = 1;
nodes = (
(244,0,l),
(244,554,l),
(104,554,l),
(104,0,l)
);
},
{
closed = 1;
nodes = (
(205,-127,l),
(233,-103,o),
(244,-68,o),
(244,0,c),
(104,0,l),
(104,-62,o),
(92,-86,o),
(40,-127,c)
);
},
{
closed = 1;
nodes = (
(244,554,l),
(244,616,o),
(256,640,o),
(308,681,c),
(143,681,l),
(115,657,o),
(104,622,o),
(104,554,c)
);
}
);
width = 348;
}
);
unicode = 8747;
},
{
color = 11;
glyphname = Ohm;
lastChange = "2023-12-12 21:58:21 +0000";
layers = (
{
anchors = (
{
name = bottom;
pos = (339,0);
},
{
name = center;
pos = (345,277);
},
{
name = oconnect;
pos = (263,0);
},
{
name = ogonek;
pos = (554,10);
},
{
name = top;
pos = (339,554);
}
);
layerId = m01;
shapes = (
{
closed = 1;
nodes = (
(307,0,l),
(284,67,o),
(276,158,o),
(276,253,cs),
(276,340,o),
(309,452,o),
(341,516,c),
(373,452,o),
(406,340,o),
(406,252,cs),
(406,157,o),
(398,67,o),
(375,0,c),
(545,0,l),
(564,71,o),
(572,186,o),
(572,249,cs),
(572,355,o),
(540,478,o),
(498,554,c),
(185,554,l),
(143,478,o),
(111,355,o),
(111,249,cs),
(111,186,o),
(119,70,o),
(138,0,c)
);
},
{
closed = 1;
nodes = (
(262,0,l),
(262,120,l),
(20,120,l),
(64,0,l)
);
},
{
closed = 1;
nodes = (
(618,0,l),
(662,120,l),
(420,120,l),
(420,0,l)
);
}
);
width = 682;
}
);
unicode = 8486;
},
{
color = 11;
glyphname = increment;
lastChange = "2023-12-12 21:58:21 +0000";
layers = (
{
layerId = m01;
shapes = (
{
closed = 1;
nodes = (
(554,120,l),
(366,617,l),
(238,617,l),
(426,120,l)
);
},
{
closed = 1;
nodes = (
(552,0,l),
(552,120,l),
(50,120,l),
(50,0,l)
);
},
{
closed = 1;
nodes = (
(178,120,l),
(366,617,l),
(238,617,l),
(50,120,l)
);
}
);
width = 600;
}
);
unicode = 8710;
},
{
color = 11;
glyphname = product;
lastChange = "2023-12-12 21:58:21 +0000";
layers = (
{
layerId = m01;
shapes = (
{
closed = 1;
nodes = (
(486,-76,l),
(486,554,l),
(346,554,l),
(346,-76,l)
);
},
{
closed = 1;
nodes = (
(244,-76,l),
(244,554,l),
(104,554,l),
(104,-76,l)
);
},
{
closed = 1;
nodes = (
(560,434,l),
(560,554,l),
(30,554,l),
(30,434,l)
);
}
);
width = 590;
}
);
unicode = 8719;
},
{
color = 11;
glyphname = summation;
lastChange = "2023-12-12 21:58:21 +0000";
layers = (
{
layerId = m01;
shapes = (
{
closed = 1;
nodes = (
(456,0,l),
(456,120,l),
(233,120,l),
(388,277,l),
(233,434,l),
(456,434,l),
(456,554,l),
(71,554,l),
(71,434,l),
(228,277,l),
(71,120,l),
(71,0,l)
);
}
);
width = 600;
}
);
unicode = 8721;
},
{
color = 11;
glyphname = radical;
lastChange = "2023-12-12 21:58:21 +0000";
layers = (
{
layerId = m01;
shapes = (
{
closed = 1;
nodes = (
(286,-120,l),
(526,677,l),
(386,677,l),
(146,-120,l)
);
},
{
closed = 1;
nodes = (
(285,-120,l),
(135,134,l),
(-4,134,l),
(146,-120,l)
);
},
{
closed = 1;
nodes = (
(600,557,l),
(600,677,l),
(400,677,l),
(400,557,l)
);
}
);
width = 580;
}
);
unicode = 8730;
},
{
color = 11;
glyphname = partialdiff;
lastChange = "2023-12-12 21:58:21 +0000";
layers = (
{
layerId = m01;
shapes = (
{
closed = 1;
nodes = (
(411,0,l),
(437,31,o),
(466,115,o),
(459,231,cs),
(451,365,o),
(398,488,o),
(356,553,c),
(137,553,l),
(197,492,o),
(281,351,o),
(281,209,cs),
(281,106,o),
(237,31,o),
(203,0,c)
);
},
{
closed = 1;
nodes = (
(279,0,l),
(243,25,o),
(203,77,o),
(203,157,cs),
(203,222,o),
(230,300,o),
(287,325,c),
(288,346,l),
(74,346,l),
(55,316,o),
(30,251,o),
(30,169,cs),
(30,86,o),
(56,22,o),
(75,0,c)
);
}
);
width = 490;
}
);
unicode = 8706;
},
{
color = 11;
glyphname = micro;
lastChange = "2023-12-12 21:58:21 +0000";
layers = (
{
anchors = (
{
name = bottom;
pos = (241,0);
},
{
name = ogonek;
pos = (455,0);
},
{
name = top;
pos = (241,400);
},
{
name = topright;
pos = (455,400);
}
);
layerId = m01;
shapes = (
{
closed = 1;
nodes = (
(300,0,l),
(300,26,l),
(248,51,o),
(202,99,o),
(202,211,cs),
(202,400,l),
(31,400,l),
(31,200,ls),
(31,118,o),
(53,42,o),
(89,0,c)
);
},
{
closed = 1;
nodes = (
(202,-128,l),
(202,400,l),
(31,400,l),
(31,-128,l)
);
},
{
closed = 1;
nodes = (
(455,0,l),
(455,400,l),
(284,400,l),
(284,0,l)
);
}
);
width = 494;
}
);
unicode = 181;
},
{
color = 11;
glyphname = percent;
lastChange = "2023-12-12 21:58:21 +0000";
layers = (
{
layerId = m01;
shapes = (
{
closed = 1;
nodes = (
(350,-12,l),
(620,566,l),
(480,566,l),
(210,-12,l)
);
},
{
closed = 1;
nodes = (
(302,283,l),
(334,325,o),
(339,378,o),
(339,419,cs),
(339,457,o),
(334,506,o),
(299,554,c),
(65,554,l),
(36,512,o),
(30,458,o),
(30,419,cs),
(30,382,o),
(36,336,o),
(67,283,c)
);
},
{
closed = 1;
nodes = (
(161,344,o),
(150,377,o),
(150,419,cs),
(150,461,o),
(160,498,o),
(183,532,c),
(206,497,o),
(219,461,o),
(219,419,cs),
(219,376,o),
(207,340,o),
(183,307,c)
);
},
{
closed = 1;
nodes = (
(762,0,l),
(794,42,o),
(799,95,o),
(799,136,cs),
(799,174,o),
(794,223,o),
(759,271,c),
(525,271,l),
(496,229,o),
(490,175,o),
(490,136,cs),
(490,99,o),
(496,53,o),
(527,0,c)
);
},
{
closed = 1;
nodes = (
(621,61,o),
(610,94,o),
(610,136,cs),
(610,178,o),
(620,215,o),
(643,249,c),
(666,214,o),
(679,178,o),
(679,136,cs),
(679,93,o),
(667,57,o),
(643,24,c)
);
}
);
width = 829;
}
);
unicode = 37;
},
{
color = 11;
glyphname = perthousand;
lastChange = "2023-12-12 21:58:21 +0000";
layers = (
{
layerId = m01;
shapes = (
{
closed = 1;
nodes = (
(350,-12,l),
(620,566,l),
(480,566,l),
(210,-12,l)
);
},
{
closed = 1;
nodes = (
(302,283,l),
(334,325,o),
(339,378,o),
(339,419,cs),
(339,457,o),
(334,506,o),
(299,554,c),
(65,554,l),
(36,512,o),
(30,458,o),
(30,419,cs),
(30,382,o),
(36,336,o),
(67,283,c)
);
},
{
closed = 1;
nodes = (
(161,344,o),
(150,377,o),
(150,419,cs),
(150,461,o),
(160,498,o),
(183,532,c),
(206,497,o),
(219,461,o),
(219,419,cs),
(219,376,o),
(207,340,o),
(183,307,c)
);
},
{
closed = 1;
nodes = (
(762,0,l),
(794,42,o),
(799,95,o),
(799,136,cs),
(799,174,o),
(794,223,o),
(759,271,c),
(525,271,l),
(496,229,o),
(490,175,o),
(490,136,cs),
(490,99,o),
(496,53,o),
(527,0,c)
);
},
{
closed = 1;
nodes = (
(621,61,o),
(610,94,o),
(610,136,cs),
(610,178,o),
(620,215,o),
(643,249,c),
(666,214,o),
(679,178,o),
(679,136,cs),
(679,93,o),
(667,57,o),
(643,24,c)
);
},
{
closed = 1;
nodes = (
(1112,0,l),
(1144,42,o),
(1149,95,o),
(1149,136,cs),
(1149,174,o),
(1144,223,o),
(1109,271,c),
(875,271,l),
(846,229,o),
(840,175,o),
(840,136,cs),
(840,99,o),
(846,53,o),
(877,0,c)
);
},
{
closed = 1;
nodes = (
(971,61,o),
(960,94,o),
(960,136,cs),
(960,178,o),
(970,215,o),
(993,249,c),
(1016,214,o),
(1029,178,o),
(1029,136,cs),
(1029,93,o),
(1017,57,o),
(993,24,c)
);
}
);
width = 1189;
}
);
unicode = 8240;
},
{
color = 11;
glyphname = infinity.001;
lastChange = "2023-12-12 21:58:21 +0000";
layers = (
{
anchors = (
{
name = oconnect;
pos = (201,0);
}
);
layerId = m01;
shapes = (
{
closed = 1;
nodes = (
(192,89,o),
(242,106,o),
(274,144,cs),
(337,219,o),
(379,273,o),
(413,273,cs),
(481,273,o),
(511,199,o),
(516,195,c),
(516,381,l),
(516,381,o),
(475,410,o),
(414,410,cs),
(355,410,o),
(314,374,o),
(266,296,cs),
(249,269,o),
(206,226,o),
(145,226,cs),
(79,226,o),
(48,332,o),
(44,338,c),
(44,150,l),
(44,150,o),
(84,89,o),
(145,89,cs)
);
},
{
closed = 1;
nodes = (
(44,225,o),
(71,281,o),
(143,281,cs),
(178,281,o),
(210,267,o),
(242,243,c),
(242,391,l),
(215,403,o),
(172,409,o),
(144,409,cs),
(71,409,o),
(44,374,o),
(44,374,c),
(44,202,l)
);
},
{
closed = 1;
nodes = (
(489,88,o),
(516,121,o),
(516,121,c),
(516,294,l),
(516,273,o),
(489,215,o),
(417,215,cs),
(382,215,o),
(350,229,o),
(318,253,c),
(318,106,l),
(343,93,o),
(388,88,o),
(414,88,cs)
);
}
);
width = 560;
}
);
},
{
color = 11;
glyphname = upArrow;
lastChange = "2023-12-12 21:58:21 +0000";
layers = (
{
layerId = m01;
shapes = (
{
closed = 1;
nodes = (
(309,353,l),
(469,194,l),
(553,279,l),
(309,523,l),
(64,279,l),
(149,194,l)
);
},
{
closed = 1;
nodes = (
(380,56,l),
(379,404,l),
(239,404,l),
(240,56,l)
);
}
);
width = 600;
}
);
unicode = 8593;
},
{
color = 11;
glyphname = northEastArrow;
lastChange = "2023-12-12 21:58:21 +0000";
layers = (
{
layerId = m01;
shapes = (
{
closed = 1;
nodes = (
(419,138,l),
(419,484,l),
(73,484,l),
(73,364,l),
(299,364,l),
(299,138,l)
);
},
{
closed = 1;
nodes = (
(384,350,l),
(285,449,l),
(40,202,l),
(139,103,l)
);
}
);
width = 459;
}
);
unicode = 8599;
},
{
color = 11;
glyphname = leftRightArrow;
lastChange = "2023-12-12 21:58:21 +0000";
layers = (
{
layerId = m01;
shapes = (
{
closed = 1;
nodes = (
(771,293,l),
(527,538,l),
(442,453,l),
(601,293,l),
(442,133,l),
(527,49,l)
);
},
{
closed = 1;
nodes = (
(369,131,l),
(210,291,l),
(369,451,l),
(284,535,l),
(40,291,l),
(284,46,l)
);
},
{
closed = 1;
nodes = (
(507,222,l),
(662,223,l),
(662,363,l),
(334,362,l),
(159,361,l),
(159,221,l)
);
}
);
width = 811;
}
);
unicode = 8596;
},
{
color = 11;
glyphname = blackCircle;
lastChange = "2023-12-12 21:58:21 +0000";
layers = (
{
anchors = (
{
name = bottom;
pos = (362,0);
},
{
name = center;
pos = (362,277);
},
{
name = ogonek;
pos = (362,0);
},
{
name = top;
pos = (362,554);
},
{
name = topleft;
pos = (362,554);
},
{
name = topright;
pos = (362,554);
}
);
layerId = m01;
shapes = (
{
closed = 1;
nodes = (
(558,6,o),
(710,158,o),
(710,346,cs),
(710,534,o),
(558,686,o),
(370,686,cs),
(182,686,o),
(30,534,o),
(30,346,cs),
(30,158,o),
(182,6,o),
(370,6,cs)
);
}
);
width = 740;
}
);
unicode = 9679;
},
{
color = 11;
glyphname = whiteCircle;
lastChange = "2023-12-12 21:58:21 +0000";
layers = (
{
layerId = m01;
shapes = (
{
closed = 1;
nodes = (
(558,6,o),
(710,158,o),
(710,346,cs),
(710,534,o),
(558,686,o),
(370,686,cs),
(182,686,o),
(30,534,o),
(30,346,cs),
(30,158,o),
(182,6,o),
(370,6,cs)
);
},
{
closed = 1;
nodes = (
(221,77,o),
(101,197,o),
(101,346,cs),
(101,495,o),
(221,615,o),
(370,615,cs),
(519,615,o),
(639,495,o),
(639,346,cs),
(639,197,o),
(519,77,o),
(370,77,cs)
);
}
);
width = 740;
}
);
unicode = 9675;
},
{
color = 11;
glyphname = whiteBullet;
lastChange = "2023-12-12 21:58:21 +0000";
layers = (
{
layerId = m01;
shapes = (
{
closed = 1;
nodes = (
(422,5,o),
(512,95,o),
(512,205,cs),
(512,314,o),
(422,404,o),
(313,404,cs),
(203,404,o),
(113,314,o),
(113,205,cs),
(113,95,o),
(203,5,o),
(313,5,cs)
);
},
{
closed = 1;
nodes = (
(225,47,o),
(155,117,o),
(155,205,cs),
(155,292,o),
(225,362,o),
(313,362,cs),
(400,362,o),
(470,292,o),
(470,205,cs),
(470,117,o),
(400,47,o),
(313,47,cs)
);
}
);
width = 600;
}
);
unicode = 9702;
},
{
color = 11;
glyphname = blackDiamond;
lastChange = "2023-12-12 21:58:21 +0000";
layers = (
{
layerId = m01;
shapes = (
{
closed = 1;
nodes = (
(457,205,l),
(249,413,l),
(40,205,l),
(249,-4,l)
);
}
);
width = 497;
}
);
unicode = 9670;
},
{
color = 11;
glyphname = whiteDiamond;
lastChange = "2023-12-12 21:58:21 +0000";
layers = (
{
layerId = m01;
shapes = (
{
closed = 1;
nodes = (
(457,205,l),
(249,413,l),
(40,205,l),
(249,-4,l)
);
},
{
closed = 1;
nodes = (
(130,205,l),
(249,323,l),
(367,205,l),
(249,86,l)
);
}
);
width = 497;
}
);
unicode = 9671;
},
{
color = 11;
glyphname = lozenge;
lastChange = "2023-12-12 21:58:21 +0000";
layers = (
{
layerId = m01;
shapes = (
{
closed = 1;
nodes = (
(457,206,l),
(249,566,l),
(40,206,l),
(249,-156,l)
);
},
{
closed = 1;
nodes = (
(101,206,l),
(249,460,l),
(396,206,l),
(249,-50,l)
);
}
);
width = 600;
}
);
unicode = 9674;
},
{
color = 11;
glyphname = blackSquare;
lastChange = "2023-12-12 21:58:21 +0000";
layers = (
{
layerId = m01;
shapes = (
{
closed = 1;
nodes = (
(572,65,l),
(570,619,l),
(18,619,l),
(20,65,l)
);
}
);
width = 600;
}
);
unicode = 9632;
},
{
color = 11;
glyphname = whiteSquare;
lastChange = "2023-12-12 21:58:21 +0000";
layers = (
{
layerId = m01;
shapes = (
{
closed = 1;
nodes = (
(572,65,l),
(570,619,l),
(18,619,l),
(20,65,l)
);
},
{
closed = 1;
nodes = (
(79,558,l),
(510,558,l),
(511,126,l),
(80,126,l)
);
}
);
width = 600;
}
);
unicode = 9633;
},
{
color = 11;
glyphname = blackSmallSquare;
lastChange = "2023-12-12 21:58:21 +0000";
layers = (
{
layerId = m01;
shapes = (
{
closed = 1;
nodes = (
(341,65,l),
(340,366,l),
(40,366,l),
(41,65,l)
);
}
);
width = 381;
}
);
unicode = 9642;
},
{
color = 11;
glyphname = whiteSmallSquare;
lastChange = "2023-12-12 21:58:21 +0000";
layers = (
{
layerId = m01;
shapes = (
{
closed = 1;
nodes = (
(363,65,l),
(362,388,l),
(40,388,l),
(41,65,l)
);
},
{
closed = 1;
nodes = (
(76,352,l),
(327,352,l),
(327,101,l),
(76,101,l)
);
}
);
width = 403;
}
);
unicode = 9643;
},
{
color = 11;
glyphname = upBlackTriangle;
lastChange = "2023-12-12 21:58:21 +0000";
layers = (
{
layerId = m01;
shapes = (
{
closed = 1;
nodes = (
(582,65,l),
(304,619,l),
(30,65,l)
);
}
);
width = 612;
}
);
unicode = 9650;
},
{
color = 11;
glyphname = upWhiteTriangle;
lastChange = "2023-12-12 21:58:21 +0000";
layers = (
{
layerId = m01;
shapes = (
{
closed = 1;
nodes = (
(582,65,l),
(305,619,l),
(30,65,l)
);
},
{
closed = 1;
nodes = (
(305,481,l),
(482,125,l),
(127,125,l)
);
}
);
width = 612;
}
);
unicode = 9651;
},
{
color = 11;
glyphname = upBlackSmallTriangle;
lastChange = "2023-12-12 21:58:21 +0000";
layers = (
{
layerId = m01;
shapes = (
{
closed = 1;
nodes = (
(330,65,l),
(179,366,l),
(30,65,l)
);
}
);
width = 360;
}
);
unicode = 9652;
},
{
color = 3;
glyphname = rbelowcomb;
lastChange = "2023-12-12 21:58:21 +0000";
layers = (
{
anchors = (
{
name = _bottom;
pos = (102,0);
},
{
name = bottom;
pos = (102,-280);
}
);
layerId = m01;
shapes = (
{
closed = 1;
nodes = (
(126,-280,l),
(126,-142,ls),
(126,-100,o),
(146,-64,o),
(185,-32,c),
(54,-32,l),
(32,-55,o),
(19,-102,o),
(19,-156,cs),
(19,-280,l)
);
}
);
width = 204;
}
);
metricLeft = period;
metricRight = period;
unicode = 7626;
},
{
color = 3;
glyphname = gravecomb;
lastChange = "2023-12-12 21:58:21 +0000";
layers = (
{
anchors = (
{
name = _top;
pos = (153,400);
},
{
name = top;
pos = (159,542);
}
);
layerId = m01;
shapes = (
{
closed = 1;
nodes = (
(227,440,l),
(159,542,l),
(19,542,l),
(87,440,l)
);
}
);
width = 246;
}
);
metricLeft = period;
metricRight = period;
unicode = 768;
},
{
color = 3;
glyphname = acutecomb;
lastChange = "2023-12-12 21:58:21 +0000";
layers = (
{
anchors = (
{
name = _top;
pos = (91,400);
},
{
name = top;
pos = (148,554);
}
);
layerId = m01;
shapes = (
{
closed = 1;
nodes = (
(159,440,l),
(227,542,l),
(87,542,l),
(19,440,l)
);
}
);
width = 246;
}
);
metricLeft = period;
metricRight = period;
unicode = 769;
},
{
color = 3;
glyphname = hungarumlautcomb;
lastChange = "2023-12-12 21:58:21 +0000";
layers = (
{
anchors = (
{
name = _top;
pos = (176,400);
},
{
name = top;
pos = (176,554);
}
);
layerId = m01;
shapes = (
{
closed = 1;
nodes = (
(315,432,l),
(392,554,l),
(265,554,l),
(188,432,l)
);
},
{
closed = 1;
nodes = (
(146,432,l),
(223,554,l),
(96,554,l),
(19,432,l)
);
}
);
width = 411;
}
);
metricLeft = period;
metricRight = period;
unicode = 779;
},
{
color = 3;
glyphname = caroncomb.alt;
lastChange = "2023-12-12 21:58:21 +0000";
layers = (
{
anchors = (
{
name = _topright;
pos = (0,400);
}
);
layerId = m01;
shapes = (
{
closed = 1;
nodes = (
(127,368,l),
(192,554,l),
(84,554,l),
(19,368,l)
);
}
);
width = 211;
}
);
metricLeft = period;
metricRight = period;
},
{
color = 3;
glyphname = circumflexcomb;
lastChange = "2023-12-12 21:58:21 +0000";
layers = (
{
anchors = (
{
name = _top;
pos = (200,400);
},
{
name = top;
pos = (200,554);
}
);
layerId = m01;
shapes = (
{
closed = 1;
nodes = (
(381,432,l),
(326,554,l),
(191,554,l),
(241,432,l)
);
},
{
closed = 1;
nodes = (
(159,432,l),
(209,554,l),
(74,554,l),
(19,432,l)
);
}
);
width = 400;
}
);
metricLeft = period;
metricRight = period;
unicode = 770;
},
{
color = 3;
glyphname = caroncomb;
lastChange = "2023-12-12 21:58:21 +0000";
layers = (
{
anchors = (
{
name = _top;
pos = (190,400);
},
{
name = top;
pos = (176,554);
}
);
layerId = m01;
shapes = (
{
closed = 1;
nodes = (
(306,440,l),
(361,542,l),
(231,542,l),
(181,440,l)
);
},
{
closed = 1;
nodes = (
(199,440,l),
(149,542,l),
(19,542,l),
(74,440,l)
);
}
);
width = 380;
}
);
metricLeft = period;
metricRight = period;
unicode = 780;
},
{
color = 3;
glyphname = brevecomb;
lastChange = "2023-12-12 21:58:21 +0000";
layers = (
{
anchors = (
{
name = _top;
pos = (172,378);
}
);
background = {
shapes = (
{
closed = 1;
nodes = (
(300,432,l),
(321,461,o),
(328,499,o),
(328,554,c),
(206,554,l),
(208,503,o),
(192,479,o),
(174,451,c),
(157,479,o),
(142,503,o),
(142,554,c),
(20,554,l),
(15,499,o),
(24,465,o),
(48,432,c)
);
}
);
};
layerId = m01;
shapes = (
{
closed = 1;
nodes = (
(223,404,o),
(274,415,o),
(324,465,c),
(324,574,l),
(274,524,o),
(224,504,o),
(174,504,cs),
(122,504,o),
(71,523,o),
(19,574,c),
(19,465,l),
(70,415,o),
(122,404,o),
(173,404,cs)
);
}
);
width = 343;
}
);
metricLeft = period;
metricRight = period;
unicode = 774;
},
{
color = 3;
glyphname = ringcomb;
lastChange = "2023-12-12 21:58:21 +0000";
layers = (
{
anchors = (
{
name = _top;
pos = (161,400);
},
{
name = top;
pos = (164,556);
}
);
layerId = m01;
shapes = (
{
closed = 1;
nodes = (
(163,433,l),
(285,433,l),
(296,443,o),
(310,463,o),
(310,493,cs),
(310,521,o),
(304,535,o),
(286,554,c),
(164,554,l),
(42,554,l),
(28,544,o),
(19,521,o),
(19,493,cs),
(19,467,o),
(24,448,o),
(41,433,c)
);
},
{
closed = 1;
nodes = (
(149,449,o),
(136,470,o),
(136,493,cs),
(136,517,o),
(149,540,o),
(164,547,c),
(177,539,o),
(193,518,o),
(193,493,cs),
(193,467,o),
(176,446,o),
(163,440,c)
);
}
);
width = 329;
}
);
metricLeft = period;
metricRight = period;
unicode = 778;
},
{
color = 3;
glyphname = tildecomb;
lastChange = "2023-12-12 21:58:21 +0000";
layers = (
{
anchors = (
{
name = _top;
pos = (157,400);
},
{
name = top;
pos = (161,530);
}
);
layerId = m01;
shapes = (
{
closed = 1;
nodes = (
(249,426,o),
(271,434,o),
(294,457,c),
(294,533,l),
(270,511,o),
(252,502,o),
(233,502,cs),
(213,502,o),
(199,507,o),
(173,520,cs),
(144,534,o),
(128,543,o),
(95,543,cs),
(73,543,o),
(41,534,o),
(19,512,c),
(19,436,l),
(41,458,o),
(67,468,o),
(84,468,cs),
(109,467,o),
(120,459,o),
(155,443,cs),
(172,436,o),
(189,426,o),
(223,426,cs)
);
}
);
width = 313;
}
);
metricLeft = period;
metricRight = period;
unicode = 771;
},
{
color = 3;
glyphname = macroncomb;
lastChange = "2023-12-12 21:58:21 +0000";
layers = (
{
anchors = (
{
name = _top;
pos = (174,412);
},
{
name = top;
pos = (173,524);
}
);
layerId = m01;
shapes = (
{
closed = 1;
nodes = (
(329,452,l),
(329,524,l),
(19,524,l),
(19,452,l)
);
}
);
width = 348;
}
);
metricLeft = period;
metricRight = period;
unicode = 772;
},
{
color = 3;
glyphname = hookabovecomb;
lastChange = "2023-12-12 21:58:21 +0000";
layers = (
{
anchors = (
{
name = _top;
pos = (121,377);
}
);
layerId = m01;
shapes = (
{
closed = 1;
nodes = (
(177,409,l),
(177,436,o),
(178,446,o),
(192,457,cs),
(216,476,o),
(231,510,o),
(229,538,cs),
(225,580,o),
(200,606,o),
(150,619,c),
(19,619,l),
(66,609,o),
(112,573,o),
(114,544,cs),
(116,522,o),
(109,506,o),
(89,489,cs),
(65,468,o),
(62,449,o),
(62,409,c)
);
}
);
width = 248;
}
);
metricLeft = period;
metricRight = period;
unicode = 777;
},
{
color = 3;
glyphname = verticallineabovecomb;
lastChange = "2023-12-12 21:58:21 +0000";
layers = (
{
anchors = (
{
name = _top;
pos = (74,400);
},
{
name = top;
pos = (74,764);
}
);
layerId = m01;
shapes = (
{
closed = 1;
nodes = (
(129,434,l),
(129,764,l),
(19,764,l),
(19,434,l)
);
}
);
width = 148;
}
);
metricLeft = period;
metricRight = period;
unicode = 781;
},
{
color = 3;
glyphname = dblgravecomb;
lastChange = "2023-12-12 21:58:21 +0000";
layers = (
{
anchors = (
{
name = _top;
pos = (246,400);
},
{
name = top;
pos = (217,554);
}
);
layerId = m01;
shapes = (
{
closed = 1;
nodes = (
(415,432,l),
(356,554,l),
(208,554,l),
(266,432,l)
);
},
{
closed = 1;
nodes = (
(226,432,l),
(168,554,l),
(19,554,l),
(78,432,l)
);
}
);
width = 434;
}
);
metricLeft = period;
metricRight = period;
unicode = 783;
},
{
color = 3;
glyphname = candraBinducomb;
lastChange = "2023-12-12 21:58:21 +0000";
layers = (
{
anchors = (
{
name = _top;
pos = (170,400);
},
{
name = top;
pos = (170,651);
}
);
layerId = m01;
shapes = (
{
closed = 1;
nodes = (
(289,417,l),
(308,443,o),
(321,492,o),
(321,537,c),
(199,537,l),
(199,488,o),
(188,454,o),
(160,417,c)
);
},
{
closed = 1;
nodes = (
(180,417,l),
(152,452,o),
(141,487,o),
(141,537,c),
(19,537,l),
(19,485,o),
(29,445,o),
(51,417,c)
);
},
{
closed = 1;
nodes = (
(230,572,l),
(240,585,o),
(245,606,o),
(245,632,cs),
(245,657,o),
(240,678,o),
(230,691,c),
(110,691,l),
(100,678,o),
(96,657,o),
(96,632,cs),
(96,606,o),
(100,585,o),
(110,572,c)
);
}
);
width = 340;
}
);
metricLeft = period;
metricRight = period;
unicode = 784;
},
{
color = 3;
glyphname = breveinvertedcomb;
lastChange = "2023-12-12 21:57:14 +0000";
layers = (
{
anchors = (
{
name = _top;
pos = (174,360);
},
{
name = top;
pos = (180,563);
}
);
background = {
shapes = (
{
closed = 1;
nodes = (
(24,521,o),
(15,487,o),
(20,432,c),
(142,432,l),
(142,483,o),
(157,507,o),
(174,535,c),
(192,507,o),
(208,483,o),
(206,432,c),
(328,432,l),
(328,487,o),
(321,525,o),
(300,554,c),
(48,554,l)
);
}
);
};
layerId = m01;
shapes = (
{
pos = (0,967);
ref = brevecomb;
scale = (1,-1);
}
);
width = 343;
}
);
metricLeft = period;
metricRight = period;
unicode = 785;
},
{
color = 3;
glyphname = commaturnedabovecomb;
lastChange = "2023-12-12 21:58:21 +0000";
layers = (
{
anchors = (
{
name = _top;
pos = (109,400);
},
{
name = top;
pos = (109,666);
}
);
layerId = m01;
shapes = (
{
closed = 1;
nodes = (
(198,451,l),
(198,581,l),
(158,581,l),
(158,666,l),
(70,666,l),
(38,623,o),
(19,570,o),
(19,517,cs),
(19,481,o),
(28,462,o),
(40,451,c)
);
}
);
width = 217;
}
);
metricLeft = period;
metricRight = period;
unicode = 786;
},
{
color = 3;
glyphname = commaabovecomb;
lastChange = "2023-12-12 21:58:21 +0000";
layers = (
{
anchors = (
{
name = _top;
pos = (109,400);
},
{
name = top;
pos = (109,664);
}
);
layerId = m01;
shapes = (
{
closed = 1;
nodes = (
(147,449,l),
(179,492,o),
(198,545,o),
(198,598,cs),
(198,634,o),
(189,653,o),
(177,664,c),
(19,664,l),
(19,534,l),
(59,534,l),
(59,449,l)
);
}
);
width = 217;
}
);
metricLeft = period;
metricRight = period;
unicode = 787;
},
{
color = 9;
glyphname = commaaboverightcomb;
lastChange = "2023-12-12 22:32:34 +0000";
layers = (
{
layerId = m01;
shapes = (
{
closed = 1;
nodes = (
(147,449,l),
(179,492,o),
(198,545,o),
(198,598,cs),
(198,634,o),
(189,653,o),
(177,664,c),
(19,664,l),
(19,534,l),
(59,534,l),
(59,449,l)
);
}
);
width = 217;
}
);
metricLeft = period;
metricRight = period;
unicode = 789;
},
{
color = 3;
glyphname = horncomb;
lastChange = "2023-12-12 21:58:21 +0000";
layers = (
{
anchors = (
{
name = _topright;
pos = (174,430);
},
{
name = topright;
pos = (229,574);
}
);
layerId = m01;
shapes = (
{
closed = 1;
nodes = (
(174,430,l),
(214,473,o),
(229,512,o),
(229,574,c),
(89,574,l),
(89,507,o),
(73,474,o),
(19,430,c)
);
}
);
width = 248;
}
);
metricLeft = period;
metricRight = period;
unicode = 795;
},
{
color = 3;
glyphname = ringbelowcomb;
lastChange = "2023-12-12 21:58:21 +0000";
layers = (
{
anchors = (
{
name = _bottom;
pos = (167,0);
},
{
name = bottom;
pos = (167,-167);
}
);
layerId = m01;
shapes = (
{
closed = 1;
nodes = (
(163,-155,l),
(285,-155,l),
(296,-145,o),
(310,-125,o),
(310,-95,cs),
(310,-67,o),
(304,-53,o),
(286,-34,c),
(164,-34,l),
(42,-34,l),
(28,-44,o),
(19,-67,o),
(19,-95,cs),
(19,-121,o),
(24,-140,o),
(41,-155,c)
);
},
{
closed = 1;
nodes = (
(149,-139,o),
(136,-118,o),
(136,-95,cs),
(136,-71,o),
(149,-48,o),
(164,-41,c),
(177,-49,o),
(193,-70,o),
(193,-95,cs),
(193,-121,o),
(176,-142,o),
(163,-148,c)
);
}
);
width = 329;
}
);
metricLeft = period;
metricRight = period;
unicode = 805;
},
{
color = 3;
glyphname = commaaccentcomb;
lastChange = "2023-12-12 21:58:21 +0000";
layers = (
{
anchors = (
{
name = _bottom;
pos = (109,0);
},
{
name = bottom;
pos = (109,-249);
}
);
layerId = m01;
shapes = (
{
closed = 1;
nodes = (
(147,-249,l),
(179,-206,o),
(198,-153,o),
(198,-100,cs),
(198,-64,o),
(189,-45,o),
(177,-34,c),
(19,-34,l),
(19,-164,l),
(59,-164,l),
(59,-249,l)
);
}
);
width = 217;
}
);
metricLeft = period;
metricRight = period;
unicode = 806;
},
{
color = 3;
glyphname = cedillacomb;
lastChange = "2023-12-12 22:36:14 +0000";
layers = (
{
anchors = (
{
name = _bottom;
pos = (109,0);
},
{
name = bottom;
pos = (105,-157);
}
);
layerId = m01;
shapes = (
{
closed = 1;
nodes = (
(165,-176,l),
(198,-159,o),
(218,-137,o),
(218,-106,cs),
(218,-79,o),
(203,-59,o),
(174,-44,c),
(188,0,l),
(83,0,l),
(62,-59,l),
(84,-69,o),
(94,-84,o),
(94,-107,cs),
(94,-138,o),
(75,-154,o),
(19,-176,c)
);
}
);
width = 237;
}
);
metricLeft = period;
metricRight = period;
unicode = 807;
},
{
color = 3;
glyphname = ogonekcomb;
lastChange = "2023-12-12 21:58:21 +0000";
layers = (
{
anchors = (
{
name = _ogonek;
pos = (171,0);
}
);
layerId = m01;
shapes = (
{
closed = 1;
nodes = (
(215,-169,l),
(159,-126,o),
(138,-61,o),
(171,0,c),
(36,0,l),
(3,-56,o),
(21,-133,o),
(73,-169,c)
);
}
);
width = 234;
}
);
metricLeft = period;
metricRight = period;
unicode = 808;
},
{
color = 3;
glyphname = verticallinebelowcomb;
lastChange = "2023-12-12 21:58:21 +0000";
layers = (
{
anchors = (
{
name = _bottom;
pos = (62,0);
},
{
name = bottom;
pos = (62,-270);
}
);
layerId = m01;
shapes = (
{
closed = 1;
nodes = (
(105,-270,l),
(105,-35,l),
(19,-35,l),
(19,-270,l)
);
}
);
width = 124;
}
);
metricLeft = period;
metricRight = period;
unicode = 809;
},
{
color = 3;
glyphname = circumflexbelowcomb;
lastChange = "2023-12-12 21:58:21 +0000";
layers = (
{
anchors = (
{
name = _bottom;
pos = (199,0);
},
{
name = bottom;
pos = (199,-158);
}
);
layerId = m01;
shapes = (
{
closed = 1;
nodes = (
(381,-155,l),
(326,-33,l),
(191,-33,l),
(241,-155,l)
);
},
{
closed = 1;
nodes = (
(159,-155,l),
(209,-33,l),
(74,-33,l),
(19,-155,l)
);
}
);
width = 400;
}
);
metricLeft = period;
metricRight = period;
unicode = 813;
},
{
color = 3;
glyphname = lowlinecomb;
lastChange = "2023-12-12 21:58:21 +0000";
layers = (
{
anchors = (
{
name = _bottom;
pos = (185,0);
},
{
name = bottom;
pos = (185,-166);
}
);
layerId = m01;
shapes = (
{
closed = 1;
nodes = (
(351,-166,l),
(351,-104,l),
(19,-104,l),
(19,-166,l)
);
}
);
width = 370;
}
);
metricLeft = period;
metricRight = period;
unicode = 818;
},
{
color = 3;
glyphname = tildeoverlaycomb;
lastChange = "2023-12-12 21:58:21 +0000";
layers = (
{
anchors = (
{
name = _center;
pos = (149,199);
}
);
layerId = m01;
shapes = (
{
closed = 1;
nodes = (
(41,151,o),
(59,164,o),
(89,164,cs),
(138,164,o),
(158,130,o),
(208,130,cs),
(237,130,o),
(258,142,o),
(279,167,c),
(279,270,l),
(255,246,o),
(239,235,o),
(210,235,cs),
(160,235,o),
(139,268,o),
(90,268,cs),
(61,268,o),
(40,256,o),
(19,231,c),
(19,128,l)
);
}
);
width = 298;
}
);
metricLeft = period;
metricRight = period;
unicode = 820;
},
{
color = 8;
glyphname = slashshortcomb;
layers = (
{
anchors = (
{
name = _center;
pos = (141,200);
}
);
layerId = m01;
shapes = (
{
closed = 1;
nodes = (
(219,500,l),
(5,-100,l),
(63,-100,l),
(277,500,l)
);
}
);
width = 371;
}
);
unicode = 823;
},
{
color = 3;
glyphname = dotaboverightcomb;
lastChange = "2023-12-12 21:58:21 +0000";
layers = (
{
layerId = m01;
shapes = (
{
closed = 1;
nodes = (
(163,424,l),
(175,437,o),
(182,456,o),
(182,490,cs),
(182,511,o),
(179,532,o),
(174,554,c),
(37,554,l),
(26,541,o),
(19,522,o),
(19,487,cs),
(19,468,o),
(21,446,o),
(27,424,c)
);
}
);
width = 201;
}
);
metricLeft = period;
metricRight = period;
unicode = 856;
},
{
color = 3;
glyphname = acutemacroncomb;
lastChange = "2023-12-12 21:58:21 +0000";
layers = (
{
layerId = m01;
shapes = (
{
closed = 1;
nodes = (
(169,462,l),
(309,722,l),
(159,722,l),
(19,462,l)
);
},
{
closed = 1;
nodes = (
(430,612,l),
(430,722,l),
(160,722,l),
(160,612,l)
);
}
);
width = 449;
}
);
metricLeft = period;
metricRight = period;
unicode = 7623;
},
{
color = 3;
glyphname = brevecomb_hookabovecomb;
lastChange = "2023-12-12 21:58:21 +0000";
layers = (
{
anchors = (
{
name = _top;
pos = (173,374);
}
);
layerId = m01;
shapes = (
{
closed = 1;
nodes = (
(223,554,l),
(223,581,o),
(224,591,o),
(238,602,cs),
(262,621,o),
(277,655,o),
(275,683,cs),
(271,725,o),
(246,751,o),
(196,764,c),
(60,764,l),
(107,754,o),
(153,718,o),
(155,689,cs),
(157,667,o),
(150,651,o),
(130,634,cs),
(106,613,o),
(103,594,o),
(103,554,c)
);
},
{
ref = brevecomb;
}
);
width = 343;
}
);
metricLeft = period;
metricRight = period;
},
{
color = 3;
glyphname = brevecomb_tildecomb;
lastChange = "2023-12-12 21:58:21 +0000";
layers = (
{
anchors = (
{
name = _top;
pos = (172,374);
},
{
name = top;
pos = (135,570);
}
);
layerId = m01;
shapes = (
{
closed = 1;
nodes = (
(70,577,o),
(88,588,o),
(118,588,cs),
(167,588,o),
(187,555,o),
(237,555,cs),
(266,555,o),
(287,567,o),
(308,592,c),
(308,700,l),
(284,676,o),
(268,665,o),
(239,665,cs),
(189,665,o),
(168,698,o),
(119,698,cs),
(90,698,o),
(69,685,o),
(48,660,c),
(48,554,l)
);
},
{
ref = brevecomb;
}
);
width = 343;
}
);
metricLeft = period;
metricRight = period;
},
{
color = 3;
glyphname = circumflexcomb_acutecomb;
lastChange = "2023-12-12 21:58:21 +0000";
layers = (
{
anchors = (
{
name = _top;
pos = (199,400);
},
{
name = top;
pos = (231,708);
}
);
layerId = m01;
shapes = (
{
closed = 1;
nodes = (
(494,536,l),
(562,658,l),
(422,658,l),
(354,536,l)
);
},
{
ref = circumflexcomb;
}
);
width = 581;
}
);
metricLeft = period;
metricRight = period;
},
{
color = 3;
glyphname = circumflexcomb_gravecomb;
lastChange = "2023-12-12 21:58:21 +0000";
layers = (
{
anchors = (
{
name = _top;
pos = (200,410);
},
{
name = top;
pos = (131,699);
}
);
layerId = m01;
shapes = (
{
closed = 1;
nodes = (
(501,536,l),
(433,658,l),
(293,658,l),
(361,536,l)
);
},
{
ref = circumflexcomb;
}
);
width = 520;
}
);
metricLeft = period;
metricRight = period;
},
{
color = 3;
glyphname = strokeshortcomb.case;
lastChange = "2023-12-12 21:58:21 +0000";
layers = (
{
anchors = (
{
name = _stroke;
pos = (153,153);
}
);
layerId = m01;
shapes = (
{
closed = 1;
nodes = (
(287,124,l),
(287,183,l),
(19,183,l),
(19,124,l)
);
}
);
width = 306;
}
);
metricLeft = period;
metricRight = period;
},
{
color = 3;
glyphname = brevecomb.ss01;
lastChange = "2023-12-12 21:58:21 +0000";
layers = (
{
layerId = m01;
shapes = (
{
closed = 1;
nodes = (
(300,432,l),
(321,461,o),
(328,499,o),
(328,554,c),
(206,554,l),
(208,503,o),
(192,479,o),
(174,451,c),
(157,479,o),
(142,503,o),
(142,554,c),
(20,554,l),
(15,499,o),
(24,465,o),
(48,432,c)
);
}
);
width = 347;
}
);
metricLeft = period;
metricRight = period;
},
{
color = 9;
glyphname = secondtonechinese;
lastChange = "2023-12-12 22:35:21 +0000";
layers = (
{
layerId = m01;
shapes = (
{
closed = 1;
nodes = (
(146,432,l),
(223,554,l),
(96,554,l),
(19,432,l)
);
}
);
width = 242;
}
);
metricLeft = period;
metricRight = period;
unicode = 714;
},
{
color = 9;
glyphname = fourthtonechinese;
lastChange = "2023-12-12 22:35:18 +0000";
layers = (
{
layerId = m01;
shapes = (
{
closed = 1;
nodes = (
(223,432,l),
(146,554,l),
(19,554,l),
(96,432,l)
);
}
);
width = 242;
}
);
metricLeft = period;
metricRight = period;
unicode = 715;
},
{
color = 3;
glyphname = glottalstopmod;
lastChange = "2023-12-13 15:19:25 +0000";
layers = (
{
layerId = m01;
shapes = (
{
closed = 1;
nodes = (
(180,528,l),
(168,543,o),
(152,566,o),
(152,577,cs),
(151,607,o),
(226,629,o),
(226,688,cs),
(226,715,o),
(203,753,o),
(167,784,c),
(19,784,l),
(47,763,o),
(109,714,o),
(109,687,cs),
(110,657,o),
(44,624,o),
(44,590,cs),
(44,575,o),
(56,550,o),
(73,528,c)
);
}
);
width = 245;
}
);
metricLeft = period;
metricRight = period;
unicode = 704;
},
{
color = 3;
glyphname = ringhalfleft;
lastChange = "2023-12-13 15:20:08 +0000";
layers = (
{
layerId = m01;
shapes = (
{
closed = 1;
nodes = (
(189,517,l),
(150,552,o),
(127,593,o),
(126,640,cs),
(125,688,o),
(146,725,o),
(184,763,c),
(52,763,l),
(30,728,o),
(18,691,o),
(19,641,cs),
(21,588,o),
(36,547,o),
(58,517,c)
);
}
);
width = 208;
}
);
metricLeft = period;
metricRight = period;
unicode = 703;
},
{
color = 11;
export = 0;
glyphname = _part.aleftbowl;
lastChange = "2023-12-12 21:58:21 +0000";
layers = (
{
anchors = (
{
name = _connector;
pos = (294,0);
}
);
layerId = m01;
shapes = (
{
closed = 1;
nodes = (
(294,0,l),
(294,0,o),
(197,37,o),
(197,134,cs),
(197,218,o),
(270,280,o),
(270,280,c),
(68,280,l),
(68,280,o),
(24,208,o),
(24,133,cs),
(24,48,o),
(80,0,o),
(80,0,c)
);
}
);
width = 458;
}
);
},
{
color = 11;
export = 0;
glyphname = _part.angledstem;
lastChange = "2023-12-12 21:58:21 +0000";
layers = (
{
anchors = (
{
name = leg;
pos = (217,0);
}
);
layerId = m01;
shapes = (
{
closed = 1;
nodes = (
(243,0,l),
(210,400,l),
(37,400,l),
(70,0,l)
);
}
);
width = 488;
}
);
},
{
color = 11;
export = 0;
glyphname = _part.crossbar;
lastChange = "2023-12-12 21:58:21 +0000";
layers = (
{
anchors = (
{
name = _connector;
pos = (28,400);
},
{
name = _crossbar;
pos = (180,400);
}
);
layerId = m01;
shapes = (
{
closed = 1;
nodes = (
(331,280,l),
(331,400,l),
(28,400,l),
(28,280,l)
);
}
);
width = 359;
}
);
},
{
color = 11;
export = 0;
glyphname = _part.curvedstem;
lastChange = "2023-12-12 21:58:21 +0000";
layers = (
{
layerId = m01;
shapes = (
{
closed = 1;
nodes = (
(271,0,l),
(255,24,o),
(201,108,o),
(201,208,c),
(201,554,l),
(28,554,l),
(29,147,ls),
(29,91,o),
(48,25,o),
(64,0,c)
);
}
);
width = 281;
}
);
},
{
color = 11;
export = 0;
glyphname = _part.descendedstem;
lastChange = "2023-12-12 21:58:21 +0000";
layers = (
{
anchors = (
{
name = bowl;
pos = (292,0);
},
{
name = jot;
pos = (353,400);
}
);
layerId = m01;
shapes = (
{
closed = 1;
nodes = (
(403,-154,l),
(419,-129,o),
(439,-63,o),
(439,-7,c),
(439,400,l),
(266,400,l),
(266,54,l),
(266,-46,o),
(212,-130,o),
(196,-154,c)
);
}
);
width = 468;
}
);
},
{
color = 11;
export = 0;
glyphname = _part.farleg;
lastChange = "2023-12-12 21:58:21 +0000";
layers = (
{
anchors = (
{
name = _leg;
pos = (10,400);
}
);
layerId = m01;
shapes = (
{
closed = 1;
nodes = (
(306,0,l),
(306,200,l),
(306,340,o),
(235,400,o),
(235,400,c),
(10,400,l),
(10,400,o),
(133,330,o),
(133,200,cs),
(133,70,o),
(133,0,o),
(133,0,c)
);
}
);
width = 306;
}
);
},
{
color = 11;
export = 0;
glyphname = _part.fstem;
lastChange = "2023-12-12 21:58:21 +0000";
layers = (
{
anchors = (
{
name = connector;
pos = (30,400);
}
);
layerId = m01;
shapes = (
{
closed = 1;
nodes = (
(203,0,l),
(203,400,l),
(203,400,o),
(203,560,o),
(333,630,c),
(160,630,l),
(30,560,o),
(30,450,o),
(30,400,c),
(30,0,l)
);
}
);
width = 363;
}
);
},
{
color = 11;
export = 0;
glyphname = _part.kleg;
lastChange = "2023-12-12 21:58:21 +0000";
layers = (
{
anchors = (
{
name = _kleg;
pos = (178,280);
}
);
background = {
shapes = (
{
closed = 1;
nodes = (
(450,0,l),
(450,140,ls),
(450,238,o),
(371,280,o),
(371,280,cs),
(178,280,l),
(178,280,o),
(277,231,o),
(277,140,cs),
(277,0,l)
);
},
{
closed = 1;
nodes = (
(371,280,l),
(435,400,l),
(262,400,l),
(198,280,l)
);
}
);
};
layerId = m01;
shapes = (
{
closed = 1;
nodes = (
(450,0,l),
(450,140,ls),
(450,209,o),
(408,261,o),
(371,280,c),
(178,280,l),
(228,253,o),
(277,203,o),
(277,140,cs),
(277,0,l)
);
},
{
closed = 1;
nodes = (
(371,280,l),
(435,400,l),
(262,400,l),
(198,280,l)
);
}
);
width = 475;
}
);
},
{
color = 11;
export = 0;
glyphname = _part.lefthalfo;
lastChange = "2023-12-12 21:58:21 +0000";
layers = (
{
anchors = (
{
name = oconnect;
pos = (228,0);
}
);
background = {
shapes = (
{
closed = 1;
nodes = (
(264,0,o),
(195,70,o),
(195,200,cs),
(195,330,o),
(264,400,o),
(264,400,c),
(196,400,o),
(128,400,o),
(60,400,c),
(60,400,o),
(22,340,o),
(22,200,cs),
(22,60,o),
(60,0,o),
(60,0,c),
(264,0,l)
);
}
);
};
layerId = m01;
shapes = (
{
closed = 1;
nodes = (
(264,0,l),
(220,51,o),
(195,124,o),
(195,200,cs),
(195,276,o),
(221,352,o),
(264,400,c),
(60,400,l),
(36,356,o),
(22,283,o),
(22,200,cs),
(22,118,o),
(36,42,o),
(60,0,c)
);
}
);
width = 490;
}
);
},
{
color = 11;
export = 0;
glyphname = _part.leg;
lastChange = "2023-12-12 21:58:21 +0000";
layers = (
{
anchors = (
{
name = _bowl;
pos = (178,400);
},
{
name = _leg;
pos = (172,400);
}
);
background = {
shapes = (
{
closed = 1;
nodes = (
(450,0,l),
(450,200,l),
(450,340,o),
(392,400,o),
(392,400,c),
(178,400,l),
(178,400,o),
(277,330,o),
(277,200,cs),
(277,70,o),
(277,0,o),
(277,0,c)
);
}
);
};
layerId = m01;
shapes = (
{
closed = 1;
nodes = (
(450,0,l),
(450,200,ls),
(450,282,o),
(428,358,o),
(392,400,c),
(178,400,l),
(238,355,o),
(277,277,o),
(277,200,cs),
(277,0,l)
);
}
);
width = 478;
}
);
},
{
color = 11;
export = 0;
glyphname = _part.longstem;
lastChange = "2023-12-12 21:58:21 +0000";
layers = (
{
anchors = (
{
name = bowl;
pos = (168,0);
},
{
name = kleg;
pos = (172,280);
},
{
name = leg;
pos = (170,400);
}
);
layerId = m01;
shapes = (
{
closed = 1;
nodes = (
(197,0,l),
(197,554,l),
(24,554,l),
(24,0,l)
);
}
);
width = 464;
}
);
},
{
color = 11;
export = 0;
glyphname = _part.middleleg;
lastChange = "2023-12-12 21:58:21 +0000";
layers = (
{
anchors = (
{
name = _leg;
pos = (190,400);
},
{
name = leg;
pos = (383,400);
}
);
layerId = m01;
shapes = (
{
closed = 1;
nodes = (
(448,0,l),
(448,200,l),
(448,340,o),
(401,400,o),
(401,400,c),
(190,400,l),
(190,400,o),
(275,330,o),
(275,200,cs),
(275,70,o),
(275,0,o),
(275,0,c)
);
}
);
width = 672;
}
);
},
{
color = 11;
export = 0;
glyphname = _part.normalleftbowl;
lastChange = "2023-12-12 21:58:21 +0000";
layers = (
{
anchors = (
{
name = _bowl;
pos = (298,0);
}
);
layerId = m01;
shapes = (
{
closed = 1;
nodes = (
(298,0,l),
(298,0,o),
(199,70,o),
(199,200,cs),
(199,330,o),
(298,400,o),
(298,400,c),
(84,400,l),
(84,400,o),
(26,340,o),
(26,200,cs),
(26,60,o),
(84,0,o),
(84,0,c)
);
}
);
width = 298;
}
);
},
{
color = 11;
export = 0;
glyphname = _part.normalrightbowl;
lastChange = "2023-12-12 21:58:21 +0000";
layers = (
{
anchors = (
{
name = _bowl;
}
);
layerId = m01;
shapes = (
{
closed = 1;
nodes = (
(214,0,l),
(214,0,o),
(272,60,o),
(272,200,cs),
(272,340,o),
(214,400,o),
(214,400,c),
(0,400,l),
(0,400,o),
(99,330,o),
(99,200,cs),
(99,70,o),
(0,0,o),
(0,0,c)
);
}
);
width = 298;
}
);
},
{
color = 11;
export = 0;
glyphname = _part.rightthalfo;
lastChange = "2023-12-12 21:58:21 +0000";
layers = (
{
anchors = (
{
name = _oconnect;
pos = (234,0);
}
);
background = {
shapes = (
{
closed = 1;
nodes = (
(438,0,l),
(438,0,o),
(476,60,o),
(476,200,cs),
(476,340,o),
(438,400,o),
(438,400,c),
(234,400,l),
(234,400,o),
(303,330,o),
(303,200,cs),
(303,70,o),
(234,0,o),
(234,0,c)
);
}
);
};
layerId = m01;
shapes = (
{
closed = 1;
nodes = (
(438,0,l),
(462,46,o),
(476,119,o),
(476,200,cs),
(476,282,o),
(461,359,o),
(438,400,c),
(234,400,l),
(269,359,o),
(303,290,o),
(303,201,cs),
(303,104,o),
(262,29,o),
(234,0,c)
);
}
);
width = 498;
}
);
},
{
color = 11;
export = 0;
glyphname = _part.s;
lastChange = "2023-12-12 21:58:21 +0000";
layers = (
{
layerId = m01;
shapes = (
{
closed = 1;
nodes = (
(221,0,l),
(221,0,o),
(261,51,o),
(261,119,cs),
(261,198,o),
(206,239,o),
(212,300,cs),
(216,344,o),
(252,400,o),
(252,400,c),
(60,400,l),
(60,400,o),
(20,349,o),
(20,281,cs),
(20,202,o),
(75,161,o),
(69,100,cs),
(65,56,o),
(29,0,o),
(29,0,c)
);
}
);
width = 282;
}
);
},
{
color = 11;
export = 0;
glyphname = _part.shortcurvedstem;
lastChange = "2023-12-12 21:58:21 +0000";
layers = (
{
anchors = (
{
name = connector;
pos = (294,0);
}
);
layerId = m01;
shapes = (
{
closed = 1;
nodes = (
(430,0,l),
(430,253,l),
(430,309,o),
(410,375,o),
(394,400,c),
(187,400,l),
(203,376,o),
(257,292,o),
(257,192,c),
(257,0,l)
);
}
);
width = 458;
}
);
},
{
color = 11;
export = 0;
glyphname = _part.shortstem;
lastChange = "2023-12-12 21:58:21 +0000";
layers = (
{
anchors = (
{
name = jot;
pos = (114,400);
},
{
name = leg;
pos = (174,400);
}
);
layerId = m01;
shapes = (
{
closed = 1;
nodes = (
(201,0,l),
(201,400,l),
(28,400,l),
(28,0,l)
);
}
);
width = 229;
}
);
},
{
color = 11;
export = 0;
glyphname = _part.tittle;
lastChange = "2023-12-12 21:58:21 +0000";
layers = (
{
anchors = (
{
name = _jot;
pos = (116,400);
}
);
layerId = m01;
shapes = (
{
closed = 1;
nodes = (
(203,434,l),
(203,500,l),
(30,500,l),
(30,434,l)
);
}
);
width = 233;
}
);
},
{
color = 11;
export = 0;
glyphname = _part.tstem;
lastChange = "2023-12-12 21:58:21 +0000";
layers = (
{
anchors = (
{
name = crossbar;
pos = (117,400);
}
);
layerId = m01;
shapes = (
{
closed = 1;
nodes = (
(273,0,l),
(246,40,o),
(203,120,o),
(203,270,cs),
(203,500,l),
(30,500,l),
(30,200,ls),
(30,140,o),
(40,40,o),
(66,0,c)
);
}
);
width = 283;
}
);
},
{
color = 11;
export = 0;
glyphname = _part.xleg;
lastChange = "2023-12-12 21:58:21 +0000";
layers = (
{
anchors = (
{
name = _xleg;
pos = (254,280);
},
{
name = xleg;
pos = (263,280);
}
);
layerId = m01;
shapes = (
{
closed = 1;
nodes = (
(203,0,l),
(203,0,o),
(203,49,o),
(203,140,cs),
(203,231,o),
(283,280,o),
(283,280,c),
(90,280,ls),
(90,280,o),
(30,238,o),
(30,140,c),
(30,0,l)
);
},
{
closed = 1;
nodes = (
(263,280,l),
(213,400,l),
(40,400,l),
(90,280,l)
);
}
);
width = 313;
}
);
},
{
color = 11;
export = 0;
glyphname = _part.z;
lastChange = "2023-12-12 21:58:21 +0000";
layers = (
{
layerId = m01;
shapes = (
{
closed = 1;
nodes = (
(262,0,ls),
(262,0,o),
(212,63,o),
(212,104,cs),
(212,145,o),
(262,235,o),
(262,278,cs),
(262,316,o),
(222,400,o),
(222,400,cs),
(30,400,ls),
(30,400,o),
(70,336,o),
(70,297,cs),
(70,254,o),
(20,166,o),
(20,123,cs),
(20,84,o),
(60,0,o),
(60,0,cs)
);
}
);
width = 282;
}
);
},
{
color = 8;
glyphname = _bottomshortstroke.part;
layers = (
{
anchors = (
{
name = _bottomshortstroke;
pos = (183,337);
}
);
layerId = m01;
shapes = (
{
closed = 1;
nodes = (
(52,307,l),
(314,307,l),
(314,367,l),
(52,367,l)
);
}
);
width = 365;
}
);
},
{
color = 7;
glyphname = _leftcaphook.part;
layers = (
{
anchors = (
{
name = _hook;
pos = (230,453);
}
);
layerId = m01;
shapes = (
{
closed = 1;
nodes = (
(118,304,o),
(160,330,o),
(230,330,c),
(230,453,l),
(164,453,o),
(104,435,o),
(70,405,c),
(93,258,l)
);
}
);
width = 600;
}
);
},
{
color = 8;
glyphname = _shortdiagonalstroke.part;
lastChange = "2023-12-13 14:52:40 +0000";
layers = (
{
anchors = (
{
name = _center;
pos = (183,277);
}
);
layerId = m01;
shapes = (
{
closed = 1;
nodes = (
(69,154,l),
(297,314,l),
(297,387,l),
(69,227,l)
);
}
);
width = 365;
}
);
},
{
color = 8;
glyphname = _shortstroke.part;
layers = (
{
anchors = (
{
name = _shortstroke;
pos = (183,277);
}
);
layerId = m01;
shapes = (
{
closed = 1;
nodes = (
(52,247,l),
(314,247,l),
(314,307,l),
(52,307,l)
);
}
);
width = 365;
}
);
},
{
color = 8;
glyphname = _topshortstroke.part;
layers = (
{
anchors = (
{
name = _topshortstroke;
pos = (183,337);
}
);
layerId = m01;
shapes = (
{
closed = 1;
nodes = (
(52,307,l),
(314,307,l),
(314,367,l),
(52,367,l)
);
}
);
width = 365;
}
);
},
{
color = 9;
glyphname = strokelong.comb;
lastChange = "2023-12-12 22:03:10 +0000";
layers = (
{
anchors = (
{
name = _center;
pos = (218,296);
}
);
layerId = m01;
shapes = (
{
closed = 1;
nodes = (
(409,266,l),
(409,325,l),
(27,325,l),
(27,266,l)
);
}
);
width = 421;
}
);
},
{
color = 11;
glyphname = strokelongY.comb;
lastChange = "2023-12-12 21:58:21 +0000";
layers = (
{
anchors = (
{
name = _bottom;
pos = (279,0);
},
{
name = _center;
pos = (278,426);
}
);
layerId = m01;
shapes = (
{
closed = 1;
nodes = (
(550,394,l),
(550,453,l),
(10,453,l),
(10,394,l)
);
}
);
width = 560;
}
);
},
{
color = 8;
export = 0;
glyphname = _belt.part;
lastChange = "2023-12-13 14:57:15 +0000";
layers = (
{
anchors = (
{
name = _belt;
pos = (213,355);
},
{
name = bottom;
pos = (-1556,0);
},
{
name = center;
pos = (-1556,88);
},
{
name = ogonek;
pos = (-1477,0);
},
{
name = top;
pos = (-1557,175);
},
{
name = topright;
pos = (-1478,175);
}
);
background = {
shapes = (
{
closed = 1;
nodes = (
(-1473,406,l),
(-1500,426,o),
(-1535,430,o),
(-1561,430,cs),
(-1586,430,o),
(-1618,426,o),
(-1648,405,c),
(-1648,258,l),
(-1622,239,o),
(-1587,235,o),
(-1561,235,cs),
(-1537,235,o),
(-1506,239,o),
(-1473,259,c)
);
},
{
closed = 1;
nodes = (
(-1497,318,o),
(-1526,311,o),
(-1561,311,cs),
(-1606,311,o),
(-1616,319,o),
(-1648,342,c),
(-1648,311,l),
(-1618,333,o),
(-1606,354,o),
(-1561,354,cs),
(-1524,354,o),
(-1502,346,o),
(-1473,311,c),
(-1473,342,l)
);
}
);
};
layerId = m01;
shapes = (
{
closed = 1;
nodes = (
(169,431,l),
(158,444,o),
(127,457,o),
(97,457,cs),
(75,457,o),
(50,449,o),
(30,431,c),
(30,356,l),
(45,356,l),
(60,383,o),
(82,397,o),
(100,397,cs),
(133,397,o),
(155,360,o),
(155,326,c),
(169,326,l)
);
},
{
closed = 1;
nodes = (
(50,278,o),
(85,273,o),
(110,271,cs),
(175,266,o),
(269,281,o),
(354,329,c),
(354,389,l),
(269,341,o),
(165,324,o),
(109,331,cs),
(91,333,o),
(60,345,o),
(45,371,c),
(30,371,l),
(30,298,l)
);
}
);
width = 384;
}
);
},
{
export = 0;
glyphname = _beltcase.part;
lastChange = "2023-12-13 14:57:04 +0000";
layers = (
{
anchors = (
{
name = _center;
pos = (325,227);
}
);
layerId = m01;
shapes = (
{
closed = 1;
nodes = (
(293,352,l),
(33,286,o),
(19,259,o),
(19,230,cs),
(19,191,o),
(31,150,o),
(471,113,c),
(503,195,l),
(199,152,o),
(182,188,o),
(182,230,cs),
(182,255,o),
(201,276,o),
(311,302,c)
);
}
);
width = 522;
}
);
metricLeft = period;
metricRight = period;
},
{
color = 11;
export = 0;
glyphname = _eng.part;
lastChange = "2023-12-12 21:58:21 +0000";
layers = (
{
anchors = (
{
name = _engpart;
pos = (207,0);
}
);
layerId = m01;
shapes = (
{
closed = 1;
nodes = (
(171,-250,l),
(192,-211,o),
(205,-139,o),
(206,-63,cs),
(207,0,l),
(34,0,l),
(34,-42,ls),
(34,-105,o),
(10,-188,o),
(-27,-250,c)
);
}
);
width = 231;
}
);
},
{
color = 8;
export = 0;
glyphname = _hook.part;
layers = (
{
anchors = (
{
name = _hook;
pos = (322,400);
}
);
layerId = m01;
shapes = (
{
closed = 1;
nodes = (
(322,400,l),
(322,513,o),
(407,573,o),
(407,573,c),
(198,573,l),
(198,573,o),
(151,521,o),
(151,400,c)
);
}
);
width = 672;
}
);
},
{
color = 8;
export = 0;
glyphname = _midstroke.part;
layers = (
{
anchors = (
{
name = _midstroke;
pos = (270,277);
}
);
layerId = m01;
shapes = (
{
closed = 1;
nodes = (
(472,247,l),
(472,307,l),
(83,307,l),
(83,247,l)
);
}
);
width = 555;
}
);
},
{
color = 11;
export = 0;
glyphname = _stroke.part;
lastChange = "2023-12-13 15:11:02 +0000";
layers = (
{
anchors = (
{
name = _stroke;
pos = (278,278);
}
);
layerId = m01;
shapes = (
{
closed = 1;
nodes = (
(525,247,l),
(525,307,l),
(30,307,l),
(30,247,l)
);
}
);
width = 555;
}
);
},
